<?xml version="1.0" encoding="utf-8" standalone="no"?>
<!DOCTYPE svg PUBLIC "-//W3C//DTD SVG 1.1//EN"
  "http://www.w3.org/Graphics/SVG/1.1/DTD/svg11.dtd">
<!-- Created with matplotlib (http://matplotlib.org/) -->
<svg height="576pt" version="1.1" viewBox="0 0 864 576" width="864pt" xmlns="http://www.w3.org/2000/svg" xmlns:xlink="http://www.w3.org/1999/xlink">
 <defs>
  <style type="text/css">
*{stroke-linecap:butt;stroke-linejoin:round;}
  </style>
 </defs>
 <g id="figure_1">
  <g id="patch_1">
   <path d="M 0 576 
L 864 576 
L 864 0 
L 0 0 
z
" style="fill:#ffffff;"/>
  </g>
  <g id="axes_1">
   <g id="patch_2">
    <path d="M 108 247.156364 
L 412.363636 247.156364 
L 412.363636 69.12 
L 108 69.12 
z
" style="fill:#ffffff;"/>
   </g>
   <g id="matplotlib.axis_1">
    <g id="xtick_1">
     <g id="line2d_1">
      <defs>
       <path d="M 0 0 
L 0 3.5 
" id="m4e883fcdc8" style="stroke:#000000;stroke-width:1.3;"/>
      </defs>
      <g>
       <use style="stroke:#000000;stroke-width:1.3;" x="132.013823" xlink:href="#m4e883fcdc8" y="247.156364"/>
      </g>
     </g>
    </g>
    <g id="xtick_2">
     <g id="line2d_2">
      <g>
       <use style="stroke:#000000;stroke-width:1.3;" x="169.602912" xlink:href="#m4e883fcdc8" y="247.156364"/>
      </g>
     </g>
    </g>
    <g id="xtick_3">
     <g id="line2d_3">
      <g>
       <use style="stroke:#000000;stroke-width:1.3;" x="207.14058" xlink:href="#m4e883fcdc8" y="247.156364"/>
      </g>
     </g>
    </g>
    <g id="xtick_4">
     <g id="line2d_4">
      <g>
       <use style="stroke:#000000;stroke-width:1.3;" x="244.729669" xlink:href="#m4e883fcdc8" y="247.156364"/>
      </g>
     </g>
    </g>
    <g id="xtick_5">
     <g id="line2d_5">
      <g>
       <use style="stroke:#000000;stroke-width:1.3;" x="282.267336" xlink:href="#m4e883fcdc8" y="247.156364"/>
      </g>
     </g>
    </g>
    <g id="xtick_6">
     <g id="line2d_6">
      <g>
       <use style="stroke:#000000;stroke-width:1.3;" x="319.856425" xlink:href="#m4e883fcdc8" y="247.156364"/>
      </g>
     </g>
    </g>
    <g id="xtick_7">
     <g id="line2d_7">
      <g>
       <use style="stroke:#000000;stroke-width:1.3;" x="357.394093" xlink:href="#m4e883fcdc8" y="247.156364"/>
      </g>
     </g>
    </g>
    <g id="xtick_8">
     <g id="line2d_8">
      <g>
       <use style="stroke:#000000;stroke-width:1.3;" x="394.983182" xlink:href="#m4e883fcdc8" y="247.156364"/>
      </g>
     </g>
    </g>
    <g id="xtick_9">
     <g id="line2d_9">
      <defs>
       <path d="M 0 0 
L 0 2 
" id="m3f80c857af" style="stroke:#000000;stroke-width:0.65;"/>
      </defs>
      <g>
       <use style="stroke:#000000;stroke-width:0.65;" x="120.906787" xlink:href="#m3f80c857af" y="247.156364"/>
      </g>
     </g>
    </g>
    <g id="xtick_10">
     <g id="line2d_10">
      <g>
       <use style="stroke:#000000;stroke-width:0.65;" x="172.32825" xlink:href="#m3f80c857af" y="247.156364"/>
      </g>
     </g>
    </g>
    <g id="xtick_11">
     <g id="line2d_11">
      <g>
       <use style="stroke:#000000;stroke-width:0.65;" x="223.749712" xlink:href="#m3f80c857af" y="247.156364"/>
      </g>
     </g>
    </g>
    <g id="xtick_12">
     <g id="line2d_12">
      <g>
       <use style="stroke:#000000;stroke-width:0.65;" x="275.171174" xlink:href="#m3f80c857af" y="247.156364"/>
      </g>
     </g>
    </g>
    <g id="xtick_13">
     <g id="line2d_13">
      <g>
       <use style="stroke:#000000;stroke-width:0.65;" x="326.592637" xlink:href="#m3f80c857af" y="247.156364"/>
      </g>
     </g>
    </g>
    <g id="xtick_14">
     <g id="line2d_14">
      <g>
       <use style="stroke:#000000;stroke-width:0.65;" x="378.014099" xlink:href="#m3f80c857af" y="247.156364"/>
      </g>
     </g>
    </g>
   </g>
   <g id="matplotlib.axis_2">
    <g id="ytick_1">
     <g id="line2d_15">
      <defs>
       <path d="M 0 0 
L -3.5 0 
" id="mbbcaecdc81" style="stroke:#000000;stroke-width:1.3;"/>
      </defs>
      <g>
       <use style="stroke:#000000;stroke-width:1.3;" x="108" xlink:href="#mbbcaecdc81" y="240.565183"/>
      </g>
     </g>
     <g id="text_1">
      <!-- 1 -->
      <defs>
       <path d="M 12.40625 8.296875 
L 28.515625 8.296875 
L 28.515625 63.921875 
L 10.984375 60.40625 
L 10.984375 69.390625 
L 28.421875 72.90625 
L 38.28125 72.90625 
L 38.28125 8.296875 
L 54.390625 8.296875 
L 54.390625 0 
L 12.40625 0 
z
" id="DejaVuSans-31"/>
      </defs>
      <g transform="translate(87.12875 245.504167)scale(0.13 -0.13)">
       <use xlink:href="#DejaVuSans-31"/>
      </g>
     </g>
    </g>
    <g id="ytick_2">
     <g id="line2d_16">
      <g>
       <use style="stroke:#000000;stroke-width:1.3;" x="108" xlink:href="#mbbcaecdc81" y="204.650179"/>
      </g>
     </g>
     <g id="text_2">
      <!-- 2 -->
      <defs>
       <path d="M 19.1875 8.296875 
L 53.609375 8.296875 
L 53.609375 0 
L 7.328125 0 
L 7.328125 8.296875 
Q 12.9375 14.109375 22.625 23.890625 
Q 32.328125 33.6875 34.8125 36.53125 
Q 39.546875 41.84375 41.421875 45.53125 
Q 43.3125 49.21875 43.3125 52.78125 
Q 43.3125 58.59375 39.234375 62.25 
Q 35.15625 65.921875 28.609375 65.921875 
Q 23.96875 65.921875 18.8125 64.3125 
Q 13.671875 62.703125 7.8125 59.421875 
L 7.8125 69.390625 
Q 13.765625 71.78125 18.9375 73 
Q 24.125 74.21875 28.421875 74.21875 
Q 39.75 74.21875 46.484375 68.546875 
Q 53.21875 62.890625 53.21875 53.421875 
Q 53.21875 48.921875 51.53125 44.890625 
Q 49.859375 40.875 45.40625 35.40625 
Q 44.1875 33.984375 37.640625 27.21875 
Q 31.109375 20.453125 19.1875 8.296875 
z
" id="DejaVuSans-32"/>
      </defs>
      <g transform="translate(87.12875 209.589163)scale(0.13 -0.13)">
       <use xlink:href="#DejaVuSans-32"/>
      </g>
     </g>
    </g>
    <g id="ytick_3">
     <g id="line2d_17">
      <g>
       <use style="stroke:#000000;stroke-width:1.3;" x="108" xlink:href="#mbbcaecdc81" y="168.735174"/>
      </g>
     </g>
     <g id="text_3">
      <!-- 3 -->
      <defs>
       <path d="M 40.578125 39.3125 
Q 47.65625 37.796875 51.625 33 
Q 55.609375 28.21875 55.609375 21.1875 
Q 55.609375 10.40625 48.1875 4.484375 
Q 40.765625 -1.421875 27.09375 -1.421875 
Q 22.515625 -1.421875 17.65625 -0.515625 
Q 12.796875 0.390625 7.625 2.203125 
L 7.625 11.71875 
Q 11.71875 9.328125 16.59375 8.109375 
Q 21.484375 6.890625 26.8125 6.890625 
Q 36.078125 6.890625 40.9375 10.546875 
Q 45.796875 14.203125 45.796875 21.1875 
Q 45.796875 27.640625 41.28125 31.265625 
Q 36.765625 34.90625 28.71875 34.90625 
L 20.21875 34.90625 
L 20.21875 43.015625 
L 29.109375 43.015625 
Q 36.375 43.015625 40.234375 45.921875 
Q 44.09375 48.828125 44.09375 54.296875 
Q 44.09375 59.90625 40.109375 62.90625 
Q 36.140625 65.921875 28.71875 65.921875 
Q 24.65625 65.921875 20.015625 65.03125 
Q 15.375 64.15625 9.8125 62.3125 
L 9.8125 71.09375 
Q 15.4375 72.65625 20.34375 73.4375 
Q 25.25 74.21875 29.59375 74.21875 
Q 40.828125 74.21875 47.359375 69.109375 
Q 53.90625 64.015625 53.90625 55.328125 
Q 53.90625 49.265625 50.4375 45.09375 
Q 46.96875 40.921875 40.578125 39.3125 
z
" id="DejaVuSans-33"/>
      </defs>
      <g transform="translate(87.12875 173.674159)scale(0.13 -0.13)">
       <use xlink:href="#DejaVuSans-33"/>
      </g>
     </g>
    </g>
    <g id="ytick_4">
     <g id="line2d_18">
      <g>
       <use style="stroke:#000000;stroke-width:1.3;" x="108" xlink:href="#mbbcaecdc81" y="132.82017"/>
      </g>
     </g>
     <g id="text_4">
      <!-- 4 -->
      <defs>
       <path d="M 37.796875 64.3125 
L 12.890625 25.390625 
L 37.796875 25.390625 
z
M 35.203125 72.90625 
L 47.609375 72.90625 
L 47.609375 25.390625 
L 58.015625 25.390625 
L 58.015625 17.1875 
L 47.609375 17.1875 
L 47.609375 0 
L 37.796875 0 
L 37.796875 17.1875 
L 4.890625 17.1875 
L 4.890625 26.703125 
z
" id="DejaVuSans-34"/>
      </defs>
      <g transform="translate(87.12875 137.759155)scale(0.13 -0.13)">
       <use xlink:href="#DejaVuSans-34"/>
      </g>
     </g>
    </g>
    <g id="ytick_5">
     <g id="line2d_19">
      <g>
       <use style="stroke:#000000;stroke-width:1.3;" x="108" xlink:href="#mbbcaecdc81" y="96.905166"/>
      </g>
     </g>
     <g id="text_5">
      <!-- 5 -->
      <defs>
       <path d="M 10.796875 72.90625 
L 49.515625 72.90625 
L 49.515625 64.59375 
L 19.828125 64.59375 
L 19.828125 46.734375 
Q 21.96875 47.46875 24.109375 47.828125 
Q 26.265625 48.1875 28.421875 48.1875 
Q 40.625 48.1875 47.75 41.5 
Q 54.890625 34.8125 54.890625 23.390625 
Q 54.890625 11.625 47.5625 5.09375 
Q 40.234375 -1.421875 26.90625 -1.421875 
Q 22.3125 -1.421875 17.546875 -0.640625 
Q 12.796875 0.140625 7.71875 1.703125 
L 7.71875 11.625 
Q 12.109375 9.234375 16.796875 8.0625 
Q 21.484375 6.890625 26.703125 6.890625 
Q 35.15625 6.890625 40.078125 11.328125 
Q 45.015625 15.765625 45.015625 23.390625 
Q 45.015625 31 40.078125 35.4375 
Q 35.15625 39.890625 26.703125 39.890625 
Q 22.75 39.890625 18.8125 39.015625 
Q 14.890625 38.140625 10.796875 36.28125 
z
" id="DejaVuSans-35"/>
      </defs>
      <g transform="translate(87.12875 101.84415)scale(0.13 -0.13)">
       <use xlink:href="#DejaVuSans-35"/>
      </g>
     </g>
    </g>
   </g>
   <g id="line2d_20">
    <path clip-path="url(#pe474d8c3b0)" d="M 108 236.292462 
L 110.159701 234.080399 
L 112.473667 232.228792 
L 114.787633 229.272271 
L 116.998756 230.137473 
L 119.312722 230.909652 
L 121.523845 238.568028 
L 123.734968 236.636762 
L 125.94609 238.429167 
L 128.105792 236.695465 
L 130.316915 235.956899 
L 132.682302 238.857131 
L 134.944846 238.011732 
L 137.104548 234.73239 
L 139.315671 232.295967 
L 141.681058 231.187664 
L 143.840759 230.302449 
L 146.051882 227.044607 
L 150.474128 222.153903 
L 152.839515 223.750411 
L 155.050638 223.514171 
L 157.261761 221.714808 
L 159.627148 221.807497 
L 161.838271 219.864892 
L 164.049394 217.76573 
L 166.209096 214.23305 
L 168.420218 215.551194 
L 170.785606 210.169046 
L 172.996729 215.257517 
L 175.207851 211.043864 
L 177.418974 208.660249 
L 179.630097 209.069209 
L 181.789799 210.034992 
L 184.103764 205.269321 
L 186.263466 202.401299 
L 188.577432 199.78972 
L 190.788555 196.815266 
L 193.10252 197.974913 
L 195.313643 201.915415 
L 199.735889 200.89349 
L 201.947012 195.190438 
L 206.420679 187.411976 
L 208.786066 188.810332 
L 211.100032 184.532087 
L 213.311155 181.086561 
L 215.522278 181.516739 
L 217.733401 183.202089 
L 219.944524 174.85619 
L 222.104225 176.195424 
L 224.418191 183.437992 
L 226.680735 178.767583 
L 228.94328 176.863698 
L 231.257246 170.618839 
L 233.468368 181.519155 
L 235.679491 183.379402 
L 237.839193 207.440417 
L 240.050316 221.228309 
L 242.210017 221.51079 
L 244.575404 220.649188 
L 246.837949 221.496284 
L 249.049072 213.804102 
L 251.260194 217.484259 
L 253.57416 209.060109 
L 255.785283 203.340398 
L 257.996406 210.621729 
L 260.156107 206.052552 
L 262.36723 206.45724 
L 264.784039 201.147339 
L 266.995162 196.628537 
L 269.206285 207.1394 
L 271.417408 208.339387 
L 273.731374 209.762014 
L 275.891075 201.212207 
L 278.102198 199.542206 
L 280.261899 194.359781 
L 282.524444 187.38571 
L 284.735567 188.6721 
L 287.049532 191.013067 
L 289.260655 192.878297 
L 291.471778 202.814442 
L 293.682901 207.060082 
L 295.894024 198.128947 
L 298.053725 203.425799 
L 300.367691 195.175761 
L 302.681657 191.97302 
L 304.89278 193.277974 
L 307.206746 199.262409 
L 309.417868 199.68969 
L 311.628991 193.976277 
L 313.840114 191.116303 
L 315.999816 192.754803 
L 318.416624 186.981507 
L 320.679169 186.399192 
L 323.044556 184.859667 
L 325.255679 179.635531 
L 327.466802 178.51961 
L 329.677925 178.221228 
L 331.837626 174.713147 
L 334.048749 168.862655 
L 336.20845 166.080677 
L 338.573838 167.280416 
L 343.047505 160.86267 
L 345.361471 156.191294 
L 347.572594 159.856877 
L 349.783717 154.547048 
L 351.994839 156.872451 
L 354.154541 155.530417 
L 356.365664 153.20767 
L 358.782472 148.513503 
L 360.993595 144.498637 
L 363.204718 147.999851 
L 365.518684 149.250246 
L 367.729807 157.902644 
L 369.889508 154.98415 
L 372.100631 152.729882 
L 374.260333 164.717317 
L 376.677141 161.665869 
L 378.939686 156.082314 
L 381.150809 157.488926 
L 383.31051 152.293044 
L 385.521633 147.665817 
L 390.046722 153.836821 
L 392.206423 146.138508 
L 394.417546 145.37032 
L 396.834355 143.079355 
L 399.045478 140.612665 
L 401.2566 137.023259 
L 403.467723 135.03467 
L 405.678846 134.730815 
L 407.992812 130.151668 
L 410.152513 124.810566 
L 412.363636 113.98745 
L 412.363636 113.98745 
" style="fill:none;stroke:#1f77b4;stroke-linecap:square;stroke-width:2.275;"/>
   </g>
   <g id="line2d_21">
    <path clip-path="url(#pe474d8c3b0)" d="M 108 236.292462 
L 110.159701 234.213503 
L 112.473667 232.22932 
L 114.787633 229.189587 
L 116.998756 230.124142 
L 119.312722 231.286529 
L 121.523845 239.063802 
L 123.734968 236.96248 
L 125.94609 238.772232 
L 128.105792 235.227373 
L 130.316915 234.539851 
L 132.682302 237.977842 
L 134.944846 236.692364 
L 137.104548 232.610645 
L 139.315671 229.642335 
L 143.840759 228.003038 
L 148.211584 222.407647 
L 150.474128 220.074486 
L 152.839515 221.772592 
L 155.050638 220.815915 
L 157.261761 219.398132 
L 159.627148 220.079171 
L 161.838271 218.704179 
L 164.049394 217.167289 
L 166.209096 213.616915 
L 168.420218 214.457686 
L 170.785606 209.830168 
L 172.996729 214.779779 
L 175.207851 211.056239 
L 177.418974 208.86415 
L 179.630097 209.293455 
L 181.789799 210.089092 
L 184.103764 206.034605 
L 188.577432 201.541188 
L 190.788555 199.918967 
L 193.10252 200.295763 
L 195.313643 203.45095 
L 197.524766 202.419491 
L 199.735889 200.638017 
L 201.947012 196.75079 
L 204.106713 193.434295 
L 206.420679 190.535467 
L 208.786066 192.265478 
L 211.100032 188.025109 
L 213.311155 186.033468 
L 215.522278 188.267731 
L 217.733401 190.779937 
L 219.944524 187.11959 
L 222.104225 187.986622 
L 224.418191 194.078547 
L 226.680735 192.667582 
L 228.94328 192.397044 
L 231.257246 188.454348 
L 233.468368 197.512791 
L 235.679491 196.011149 
L 237.839193 207.708954 
L 240.050316 222.401235 
L 242.210017 223.115283 
L 244.575404 224.15385 
L 246.837949 224.385717 
L 249.049072 214.653679 
L 251.260194 218.525221 
L 253.57416 209.266625 
L 255.785283 202.725689 
L 257.996406 207.686267 
L 260.156107 203.113722 
L 262.36723 202.458971 
L 264.784039 197.733437 
L 266.995162 191.969172 
L 269.206285 202.801496 
L 271.417408 203.026949 
L 273.731374 204.025967 
L 275.891075 194.770947 
L 278.102198 194.436268 
L 280.261899 187.775243 
L 282.524444 181.769978 
L 284.735567 182.139386 
L 287.049532 182.721605 
L 289.260655 184.542734 
L 291.471778 196.377628 
L 293.682901 200.020004 
L 295.894024 190.236364 
L 298.053725 194.824693 
L 300.367691 185.022319 
L 302.681657 181.225054 
L 304.89278 182.253751 
L 307.206746 188.207725 
L 309.417868 188.06414 
L 311.628991 181.764969 
L 313.840114 178.208281 
L 315.999816 180.336706 
L 318.416624 173.269758 
L 320.679169 170.9151 
L 323.044556 168.265813 
L 325.255679 162.001464 
L 327.466802 160.201613 
L 329.677925 159.800904 
L 331.837626 157.14066 
L 334.048749 149.430244 
L 336.20845 146.78272 
L 338.573838 147.437231 
L 343.047505 140.75636 
L 345.361471 136.591373 
L 347.572594 140.260058 
L 349.783717 133.705784 
L 351.994839 136.360074 
L 354.154541 135.114248 
L 356.365664 132.296663 
L 358.782472 128.537749 
L 360.993595 124.280841 
L 363.204718 127.375899 
L 365.518684 129.692537 
L 367.729807 140.25504 
L 369.889508 135.783004 
L 372.100631 132.051696 
L 374.260333 145.333051 
L 376.677141 140.487776 
L 378.939686 130.564462 
L 381.150809 130.002534 
L 385.521633 117.005006 
L 387.835599 120.815553 
L 390.046722 123.399716 
L 392.206423 113.054486 
L 394.417546 110.961189 
L 396.834355 109.261589 
L 399.045478 106.717946 
L 401.2566 102.526632 
L 403.467723 100.588925 
L 405.678846 100.73627 
L 407.992812 95.224955 
L 410.152513 89.65836 
L 412.363636 77.212562 
L 412.363636 77.212562 
" style="fill:none;stroke:#ff7f0e;stroke-linecap:square;stroke-width:2.275;"/>
   </g>
   <g id="patch_3">
    <path d="M 108 247.156364 
L 108 69.12 
" style="fill:none;stroke:#000000;stroke-linecap:square;stroke-linejoin:miter;stroke-width:0.8;"/>
   </g>
   <g id="patch_4">
    <path d="M 412.363636 247.156364 
L 412.363636 69.12 
" style="fill:none;stroke:#000000;stroke-linecap:square;stroke-linejoin:miter;stroke-width:0.8;"/>
   </g>
   <g id="patch_5">
    <path d="M 108 247.156364 
L 412.363636 247.156364 
" style="fill:none;stroke:#000000;stroke-linecap:square;stroke-linejoin:miter;stroke-width:0.8;"/>
   </g>
   <g id="patch_6">
    <path d="M 108 69.12 
L 412.363636 69.12 
" style="fill:none;stroke:#000000;stroke-linecap:square;stroke-linejoin:miter;stroke-width:0.8;"/>
   </g>
   <g id="text_6">
    <!-- Wealth factor - eta=2 -->
    <defs>
     <path d="M 3.328125 72.90625 
L 13.28125 72.90625 
L 28.609375 11.28125 
L 43.890625 72.90625 
L 54.984375 72.90625 
L 70.3125 11.28125 
L 85.59375 72.90625 
L 95.609375 72.90625 
L 77.296875 0 
L 64.890625 0 
L 49.515625 63.28125 
L 33.984375 0 
L 21.578125 0 
z
" id="DejaVuSans-57"/>
     <path d="M 56.203125 29.59375 
L 56.203125 25.203125 
L 14.890625 25.203125 
Q 15.484375 15.921875 20.484375 11.0625 
Q 25.484375 6.203125 34.421875 6.203125 
Q 39.59375 6.203125 44.453125 7.46875 
Q 49.3125 8.734375 54.109375 11.28125 
L 54.109375 2.78125 
Q 49.265625 0.734375 44.1875 -0.34375 
Q 39.109375 -1.421875 33.890625 -1.421875 
Q 20.796875 -1.421875 13.15625 6.1875 
Q 5.515625 13.8125 5.515625 26.8125 
Q 5.515625 40.234375 12.765625 48.109375 
Q 20.015625 56 32.328125 56 
Q 43.359375 56 49.78125 48.890625 
Q 56.203125 41.796875 56.203125 29.59375 
z
M 47.21875 32.234375 
Q 47.125 39.59375 43.09375 43.984375 
Q 39.0625 48.390625 32.421875 48.390625 
Q 24.90625 48.390625 20.390625 44.140625 
Q 15.875 39.890625 15.1875 32.171875 
z
" id="DejaVuSans-65"/>
     <path d="M 34.28125 27.484375 
Q 23.390625 27.484375 19.1875 25 
Q 14.984375 22.515625 14.984375 16.5 
Q 14.984375 11.71875 18.140625 8.90625 
Q 21.296875 6.109375 26.703125 6.109375 
Q 34.1875 6.109375 38.703125 11.40625 
Q 43.21875 16.703125 43.21875 25.484375 
L 43.21875 27.484375 
z
M 52.203125 31.203125 
L 52.203125 0 
L 43.21875 0 
L 43.21875 8.296875 
Q 40.140625 3.328125 35.546875 0.953125 
Q 30.953125 -1.421875 24.3125 -1.421875 
Q 15.921875 -1.421875 10.953125 3.296875 
Q 6 8.015625 6 15.921875 
Q 6 25.140625 12.171875 29.828125 
Q 18.359375 34.515625 30.609375 34.515625 
L 43.21875 34.515625 
L 43.21875 35.40625 
Q 43.21875 41.609375 39.140625 45 
Q 35.0625 48.390625 27.6875 48.390625 
Q 23 48.390625 18.546875 47.265625 
Q 14.109375 46.140625 10.015625 43.890625 
L 10.015625 52.203125 
Q 14.9375 54.109375 19.578125 55.046875 
Q 24.21875 56 28.609375 56 
Q 40.484375 56 46.34375 49.84375 
Q 52.203125 43.703125 52.203125 31.203125 
z
" id="DejaVuSans-61"/>
     <path d="M 9.421875 75.984375 
L 18.40625 75.984375 
L 18.40625 0 
L 9.421875 0 
z
" id="DejaVuSans-6c"/>
     <path d="M 18.3125 70.21875 
L 18.3125 54.6875 
L 36.8125 54.6875 
L 36.8125 47.703125 
L 18.3125 47.703125 
L 18.3125 18.015625 
Q 18.3125 11.328125 20.140625 9.421875 
Q 21.96875 7.515625 27.59375 7.515625 
L 36.8125 7.515625 
L 36.8125 0 
L 27.59375 0 
Q 17.1875 0 13.234375 3.875 
Q 9.28125 7.765625 9.28125 18.015625 
L 9.28125 47.703125 
L 2.6875 47.703125 
L 2.6875 54.6875 
L 9.28125 54.6875 
L 9.28125 70.21875 
z
" id="DejaVuSans-74"/>
     <path d="M 54.890625 33.015625 
L 54.890625 0 
L 45.90625 0 
L 45.90625 32.71875 
Q 45.90625 40.484375 42.875 44.328125 
Q 39.84375 48.1875 33.796875 48.1875 
Q 26.515625 48.1875 22.3125 43.546875 
Q 18.109375 38.921875 18.109375 30.90625 
L 18.109375 0 
L 9.078125 0 
L 9.078125 75.984375 
L 18.109375 75.984375 
L 18.109375 46.1875 
Q 21.34375 51.125 25.703125 53.5625 
Q 30.078125 56 35.796875 56 
Q 45.21875 56 50.046875 50.171875 
Q 54.890625 44.34375 54.890625 33.015625 
z
" id="DejaVuSans-68"/>
     <path id="DejaVuSans-20"/>
     <path d="M 37.109375 75.984375 
L 37.109375 68.5 
L 28.515625 68.5 
Q 23.6875 68.5 21.796875 66.546875 
Q 19.921875 64.59375 19.921875 59.515625 
L 19.921875 54.6875 
L 34.71875 54.6875 
L 34.71875 47.703125 
L 19.921875 47.703125 
L 19.921875 0 
L 10.890625 0 
L 10.890625 47.703125 
L 2.296875 47.703125 
L 2.296875 54.6875 
L 10.890625 54.6875 
L 10.890625 58.5 
Q 10.890625 67.625 15.140625 71.796875 
Q 19.390625 75.984375 28.609375 75.984375 
z
" id="DejaVuSans-66"/>
     <path d="M 48.78125 52.59375 
L 48.78125 44.1875 
Q 44.96875 46.296875 41.140625 47.34375 
Q 37.3125 48.390625 33.40625 48.390625 
Q 24.65625 48.390625 19.8125 42.84375 
Q 14.984375 37.3125 14.984375 27.296875 
Q 14.984375 17.28125 19.8125 11.734375 
Q 24.65625 6.203125 33.40625 6.203125 
Q 37.3125 6.203125 41.140625 7.25 
Q 44.96875 8.296875 48.78125 10.40625 
L 48.78125 2.09375 
Q 45.015625 0.34375 40.984375 -0.53125 
Q 36.96875 -1.421875 32.421875 -1.421875 
Q 20.0625 -1.421875 12.78125 6.34375 
Q 5.515625 14.109375 5.515625 27.296875 
Q 5.515625 40.671875 12.859375 48.328125 
Q 20.21875 56 33.015625 56 
Q 37.15625 56 41.109375 55.140625 
Q 45.0625 54.296875 48.78125 52.59375 
z
" id="DejaVuSans-63"/>
     <path d="M 30.609375 48.390625 
Q 23.390625 48.390625 19.1875 42.75 
Q 14.984375 37.109375 14.984375 27.296875 
Q 14.984375 17.484375 19.15625 11.84375 
Q 23.34375 6.203125 30.609375 6.203125 
Q 37.796875 6.203125 41.984375 11.859375 
Q 46.1875 17.53125 46.1875 27.296875 
Q 46.1875 37.015625 41.984375 42.703125 
Q 37.796875 48.390625 30.609375 48.390625 
z
M 30.609375 56 
Q 42.328125 56 49.015625 48.375 
Q 55.71875 40.765625 55.71875 27.296875 
Q 55.71875 13.875 49.015625 6.21875 
Q 42.328125 -1.421875 30.609375 -1.421875 
Q 18.84375 -1.421875 12.171875 6.21875 
Q 5.515625 13.875 5.515625 27.296875 
Q 5.515625 40.765625 12.171875 48.375 
Q 18.84375 56 30.609375 56 
z
" id="DejaVuSans-6f"/>
     <path d="M 41.109375 46.296875 
Q 39.59375 47.171875 37.8125 47.578125 
Q 36.03125 48 33.890625 48 
Q 26.265625 48 22.1875 43.046875 
Q 18.109375 38.09375 18.109375 28.8125 
L 18.109375 0 
L 9.078125 0 
L 9.078125 54.6875 
L 18.109375 54.6875 
L 18.109375 46.1875 
Q 20.953125 51.171875 25.484375 53.578125 
Q 30.03125 56 36.53125 56 
Q 37.453125 56 38.578125 55.875 
Q 39.703125 55.765625 41.0625 55.515625 
z
" id="DejaVuSans-72"/>
     <path d="M 4.890625 31.390625 
L 31.203125 31.390625 
L 31.203125 23.390625 
L 4.890625 23.390625 
z
" id="DejaVuSans-2d"/>
     <path d="M 10.59375 45.40625 
L 73.1875 45.40625 
L 73.1875 37.203125 
L 10.59375 37.203125 
z
M 10.59375 25.484375 
L 73.1875 25.484375 
L 73.1875 17.1875 
L 10.59375 17.1875 
z
" id="DejaVuSans-3d"/>
    </defs>
    <g transform="translate(175.489662 63.12)scale(0.156 -0.156)">
     <use xlink:href="#DejaVuSans-57"/>
     <use x="98.798828" xlink:href="#DejaVuSans-65"/>
     <use x="160.322266" xlink:href="#DejaVuSans-61"/>
     <use x="221.601562" xlink:href="#DejaVuSans-6c"/>
     <use x="249.384766" xlink:href="#DejaVuSans-74"/>
     <use x="288.59375" xlink:href="#DejaVuSans-68"/>
     <use x="351.972656" xlink:href="#DejaVuSans-20"/>
     <use x="383.759766" xlink:href="#DejaVuSans-66"/>
     <use x="418.964844" xlink:href="#DejaVuSans-61"/>
     <use x="480.244141" xlink:href="#DejaVuSans-63"/>
     <use x="535.224609" xlink:href="#DejaVuSans-74"/>
     <use x="574.433594" xlink:href="#DejaVuSans-6f"/>
     <use x="635.615234" xlink:href="#DejaVuSans-72"/>
     <use x="676.728516" xlink:href="#DejaVuSans-20"/>
     <use x="708.515625" xlink:href="#DejaVuSans-2d"/>
     <use x="744.599609" xlink:href="#DejaVuSans-20"/>
     <use x="776.386719" xlink:href="#DejaVuSans-65"/>
     <use x="837.910156" xlink:href="#DejaVuSans-74"/>
     <use x="877.119141" xlink:href="#DejaVuSans-61"/>
     <use x="938.398438" xlink:href="#DejaVuSans-3d"/>
     <use x="1022.1875" xlink:href="#DejaVuSans-32"/>
    </g>
   </g>
   <g id="legend_1">
    <g id="patch_7">
     <path d="M 117.1 117.683125 
L 208.687031 117.683125 
Q 211.287031 117.683125 211.287031 115.083125 
L 211.287031 78.22 
Q 211.287031 75.62 208.687031 75.62 
L 117.1 75.62 
Q 114.5 75.62 114.5 78.22 
L 114.5 115.083125 
Q 114.5 117.683125 117.1 117.683125 
z
" style="fill:#ffffff;opacity:0.8;stroke:#cccccc;stroke-linejoin:miter;stroke-width:0.39;"/>
    </g>
    <g id="line2d_22">
     <path d="M 119.7 86.147969 
L 145.7 86.147969 
" style="fill:none;stroke:#1f77b4;stroke-linecap:square;stroke-width:2.275;"/>
    </g>
    <g id="line2d_23"/>
    <g id="text_7">
     <!-- EG -->
     <defs>
      <path d="M 9.8125 72.90625 
L 55.90625 72.90625 
L 55.90625 64.59375 
L 19.671875 64.59375 
L 19.671875 43.015625 
L 54.390625 43.015625 
L 54.390625 34.71875 
L 19.671875 34.71875 
L 19.671875 8.296875 
L 56.78125 8.296875 
L 56.78125 0 
L 9.8125 0 
z
" id="DejaVuSans-45"/>
      <path d="M 59.515625 10.40625 
L 59.515625 29.984375 
L 43.40625 29.984375 
L 43.40625 38.09375 
L 69.28125 38.09375 
L 69.28125 6.78125 
Q 63.578125 2.734375 56.6875 0.65625 
Q 49.8125 -1.421875 42 -1.421875 
Q 24.90625 -1.421875 15.25 8.5625 
Q 5.609375 18.5625 5.609375 36.375 
Q 5.609375 54.25 15.25 64.234375 
Q 24.90625 74.21875 42 74.21875 
Q 49.125 74.21875 55.546875 72.453125 
Q 61.96875 70.703125 67.390625 67.28125 
L 67.390625 56.78125 
Q 61.921875 61.421875 55.765625 63.765625 
Q 49.609375 66.109375 42.828125 66.109375 
Q 29.4375 66.109375 22.71875 58.640625 
Q 16.015625 51.171875 16.015625 36.375 
Q 16.015625 21.625 22.71875 14.15625 
Q 29.4375 6.6875 42.828125 6.6875 
Q 48.046875 6.6875 52.140625 7.59375 
Q 56.25 8.5 59.515625 10.40625 
z
" id="DejaVuSans-47"/>
     </defs>
     <g transform="translate(156.1 90.697969)scale(0.13 -0.13)">
      <use xlink:href="#DejaVuSans-45"/>
      <use x="63.183594" xlink:href="#DejaVuSans-47"/>
     </g>
    </g>
    <g id="line2d_24">
     <path d="M 119.7 105.229531 
L 145.7 105.229531 
" style="fill:none;stroke:#ff7f0e;stroke-linecap:square;stroke-width:2.275;"/>
    </g>
    <g id="line2d_25"/>
    <g id="text_8">
     <!-- BP1EXP -->
     <defs>
      <path d="M 19.671875 34.8125 
L 19.671875 8.109375 
L 35.5 8.109375 
Q 43.453125 8.109375 47.28125 11.40625 
Q 51.125 14.703125 51.125 21.484375 
Q 51.125 28.328125 47.28125 31.5625 
Q 43.453125 34.8125 35.5 34.8125 
z
M 19.671875 64.796875 
L 19.671875 42.828125 
L 34.28125 42.828125 
Q 41.5 42.828125 45.03125 45.53125 
Q 48.578125 48.25 48.578125 53.8125 
Q 48.578125 59.328125 45.03125 62.0625 
Q 41.5 64.796875 34.28125 64.796875 
z
M 9.8125 72.90625 
L 35.015625 72.90625 
Q 46.296875 72.90625 52.390625 68.21875 
Q 58.5 63.53125 58.5 54.890625 
Q 58.5 48.1875 55.375 44.234375 
Q 52.25 40.28125 46.1875 39.3125 
Q 53.46875 37.75 57.5 32.78125 
Q 61.53125 27.828125 61.53125 20.40625 
Q 61.53125 10.640625 54.890625 5.3125 
Q 48.25 0 35.984375 0 
L 9.8125 0 
z
" id="DejaVuSans-42"/>
      <path d="M 19.671875 64.796875 
L 19.671875 37.40625 
L 32.078125 37.40625 
Q 38.96875 37.40625 42.71875 40.96875 
Q 46.484375 44.53125 46.484375 51.125 
Q 46.484375 57.671875 42.71875 61.234375 
Q 38.96875 64.796875 32.078125 64.796875 
z
M 9.8125 72.90625 
L 32.078125 72.90625 
Q 44.34375 72.90625 50.609375 67.359375 
Q 56.890625 61.8125 56.890625 51.125 
Q 56.890625 40.328125 50.609375 34.8125 
Q 44.34375 29.296875 32.078125 29.296875 
L 19.671875 29.296875 
L 19.671875 0 
L 9.8125 0 
z
" id="DejaVuSans-50"/>
      <path d="M 6.296875 72.90625 
L 16.890625 72.90625 
L 35.015625 45.796875 
L 53.21875 72.90625 
L 63.8125 72.90625 
L 40.375 37.890625 
L 65.375 0 
L 54.78125 0 
L 34.28125 31 
L 13.625 0 
L 2.984375 0 
L 29 38.921875 
z
" id="DejaVuSans-58"/>
     </defs>
     <g transform="translate(156.1 109.779531)scale(0.13 -0.13)">
      <use xlink:href="#DejaVuSans-42"/>
      <use x="68.603516" xlink:href="#DejaVuSans-50"/>
      <use x="128.90625" xlink:href="#DejaVuSans-31"/>
      <use x="192.529297" xlink:href="#DejaVuSans-45"/>
      <use x="255.712891" xlink:href="#DejaVuSans-58"/>
      <use x="324.21875" xlink:href="#DejaVuSans-50"/>
     </g>
    </g>
   </g>
  </g>
  <g id="axes_2">
   <g id="patch_8">
    <path d="M 473.236364 247.156364 
L 777.6 247.156364 
L 777.6 69.12 
L 473.236364 69.12 
z
" style="fill:#ffffff;"/>
   </g>
   <g id="matplotlib.axis_3">
    <g id="xtick_15">
     <g id="line2d_26">
      <g>
       <use style="stroke:#000000;stroke-width:1.3;" x="497.250187" xlink:href="#m4e883fcdc8" y="247.156364"/>
      </g>
     </g>
    </g>
    <g id="xtick_16">
     <g id="line2d_27">
      <g>
       <use style="stroke:#000000;stroke-width:1.3;" x="534.839276" xlink:href="#m4e883fcdc8" y="247.156364"/>
      </g>
     </g>
    </g>
    <g id="xtick_17">
     <g id="line2d_28">
      <g>
       <use style="stroke:#000000;stroke-width:1.3;" x="572.376943" xlink:href="#m4e883fcdc8" y="247.156364"/>
      </g>
     </g>
    </g>
    <g id="xtick_18">
     <g id="line2d_29">
      <g>
       <use style="stroke:#000000;stroke-width:1.3;" x="609.966032" xlink:href="#m4e883fcdc8" y="247.156364"/>
      </g>
     </g>
    </g>
    <g id="xtick_19">
     <g id="line2d_30">
      <g>
       <use style="stroke:#000000;stroke-width:1.3;" x="647.5037" xlink:href="#m4e883fcdc8" y="247.156364"/>
      </g>
     </g>
    </g>
    <g id="xtick_20">
     <g id="line2d_31">
      <g>
       <use style="stroke:#000000;stroke-width:1.3;" x="685.092789" xlink:href="#m4e883fcdc8" y="247.156364"/>
      </g>
     </g>
    </g>
    <g id="xtick_21">
     <g id="line2d_32">
      <g>
       <use style="stroke:#000000;stroke-width:1.3;" x="722.630457" xlink:href="#m4e883fcdc8" y="247.156364"/>
      </g>
     </g>
    </g>
    <g id="xtick_22">
     <g id="line2d_33">
      <g>
       <use style="stroke:#000000;stroke-width:1.3;" x="760.219546" xlink:href="#m4e883fcdc8" y="247.156364"/>
      </g>
     </g>
    </g>
    <g id="xtick_23">
     <g id="line2d_34">
      <g>
       <use style="stroke:#000000;stroke-width:0.65;" x="486.143151" xlink:href="#m3f80c857af" y="247.156364"/>
      </g>
     </g>
    </g>
    <g id="xtick_24">
     <g id="line2d_35">
      <g>
       <use style="stroke:#000000;stroke-width:0.65;" x="537.564613" xlink:href="#m3f80c857af" y="247.156364"/>
      </g>
     </g>
    </g>
    <g id="xtick_25">
     <g id="line2d_36">
      <g>
       <use style="stroke:#000000;stroke-width:0.65;" x="588.986076" xlink:href="#m3f80c857af" y="247.156364"/>
      </g>
     </g>
    </g>
    <g id="xtick_26">
     <g id="line2d_37">
      <g>
       <use style="stroke:#000000;stroke-width:0.65;" x="640.407538" xlink:href="#m3f80c857af" y="247.156364"/>
      </g>
     </g>
    </g>
    <g id="xtick_27">
     <g id="line2d_38">
      <g>
       <use style="stroke:#000000;stroke-width:0.65;" x="691.829001" xlink:href="#m3f80c857af" y="247.156364"/>
      </g>
     </g>
    </g>
    <g id="xtick_28">
     <g id="line2d_39">
      <g>
       <use style="stroke:#000000;stroke-width:0.65;" x="743.250463" xlink:href="#m3f80c857af" y="247.156364"/>
      </g>
     </g>
    </g>
   </g>
   <g id="matplotlib.axis_4">
    <g id="ytick_6">
     <g id="line2d_40">
      <g>
       <use style="stroke:#000000;stroke-width:1.3;" x="473.236364" xlink:href="#mbbcaecdc81" y="209.901842"/>
      </g>
     </g>
     <g id="text_9">
      <!-- 0.1 -->
      <defs>
       <path d="M 31.78125 66.40625 
Q 24.171875 66.40625 20.328125 58.90625 
Q 16.5 51.421875 16.5 36.375 
Q 16.5 21.390625 20.328125 13.890625 
Q 24.171875 6.390625 31.78125 6.390625 
Q 39.453125 6.390625 43.28125 13.890625 
Q 47.125 21.390625 47.125 36.375 
Q 47.125 51.421875 43.28125 58.90625 
Q 39.453125 66.40625 31.78125 66.40625 
z
M 31.78125 74.21875 
Q 44.046875 74.21875 50.515625 64.515625 
Q 56.984375 54.828125 56.984375 36.375 
Q 56.984375 17.96875 50.515625 8.265625 
Q 44.046875 -1.421875 31.78125 -1.421875 
Q 19.53125 -1.421875 13.0625 8.265625 
Q 6.59375 17.96875 6.59375 36.375 
Q 6.59375 54.828125 13.0625 64.515625 
Q 19.53125 74.21875 31.78125 74.21875 
z
" id="DejaVuSans-30"/>
       <path d="M 10.6875 12.40625 
L 21 12.40625 
L 21 0 
L 10.6875 0 
z
" id="DejaVuSans-2e"/>
      </defs>
      <g transform="translate(439.962301 214.840826)scale(0.13 -0.13)">
       <use xlink:href="#DejaVuSans-30"/>
       <use x="63.623047" xlink:href="#DejaVuSans-2e"/>
       <use x="95.410156" xlink:href="#DejaVuSans-31"/>
      </g>
     </g>
    </g>
    <g id="ytick_7">
     <g id="line2d_41">
      <g>
       <use style="stroke:#000000;stroke-width:1.3;" x="473.236364" xlink:href="#mbbcaecdc81" y="161.205245"/>
      </g>
     </g>
     <g id="text_10">
      <!-- 0.2 -->
      <g transform="translate(439.962301 166.14423)scale(0.13 -0.13)">
       <use xlink:href="#DejaVuSans-30"/>
       <use x="63.623047" xlink:href="#DejaVuSans-2e"/>
       <use x="95.410156" xlink:href="#DejaVuSans-32"/>
      </g>
     </g>
    </g>
    <g id="ytick_8">
     <g id="line2d_42">
      <g>
       <use style="stroke:#000000;stroke-width:1.3;" x="473.236364" xlink:href="#mbbcaecdc81" y="112.508649"/>
      </g>
     </g>
     <g id="text_11">
      <!-- 0.3 -->
      <g transform="translate(439.962301 117.447633)scale(0.13 -0.13)">
       <use xlink:href="#DejaVuSans-30"/>
       <use x="63.623047" xlink:href="#DejaVuSans-2e"/>
       <use x="95.410156" xlink:href="#DejaVuSans-33"/>
      </g>
     </g>
    </g>
   </g>
   <g id="line2d_43">
    <path clip-path="url(#pcbc17a95dc)" d="M 473.236364 239.063802 
L 475.396065 233.058549 
L 477.710031 231.602118 
L 480.023997 229.324192 
L 482.23512 223.194773 
L 484.549085 218.730809 
L 486.760208 215.914597 
L 488.971331 212.368578 
L 491.182454 210.412548 
L 493.342155 211.991053 
L 495.553278 209.198157 
L 497.918666 204.772499 
L 500.18121 205.610514 
L 502.340911 207.495124 
L 504.552034 206.883645 
L 506.917422 204.295343 
L 509.077123 203.141383 
L 511.288246 200.855622 
L 513.447947 199.753992 
L 520.287002 192.408701 
L 522.498125 191.210376 
L 524.863512 186.970822 
L 527.074635 187.117836 
L 529.285758 187.746429 
L 531.445459 185.097021 
L 533.656582 182.062477 
L 536.021969 178.159979 
L 538.233092 176.098596 
L 540.444215 175.754727 
L 542.655338 174.214371 
L 544.866461 173.488967 
L 547.026162 173.104638 
L 551.49983 171.701878 
L 553.813795 170.261338 
L 556.024918 168.683299 
L 558.338884 166.6908 
L 562.76113 163.909615 
L 564.972253 165.476131 
L 567.183376 162.974924 
L 569.343077 162.385337 
L 571.657043 161.223459 
L 574.02243 159.180214 
L 576.336396 158.125188 
L 578.547519 155.372447 
L 580.758642 155.295553 
L 582.969765 152.158038 
L 585.180887 148.825357 
L 587.340589 145.349027 
L 589.654555 144.186288 
L 591.917099 140.142678 
L 594.179643 137.537875 
L 596.493609 136.367292 
L 598.704732 132.621666 
L 600.915855 136.120379 
L 603.075556 135.66768 
L 605.286679 127.337019 
L 607.446381 126.881492 
L 609.811768 127.138675 
L 612.074312 127.674171 
L 614.285435 131.551268 
L 616.496558 127.753848 
L 618.810524 128.752798 
L 621.021647 129.837084 
L 623.23277 125.309423 
L 625.392471 127.760579 
L 627.603594 127.670257 
L 632.231526 124.857705 
L 634.442648 126.113021 
L 636.653771 125.254251 
L 638.967737 126.612783 
L 641.127439 126.444399 
L 643.338561 124.720024 
L 645.498263 122.568592 
L 647.760807 119.785155 
L 652.285896 119.466 
L 654.497019 118.046926 
L 656.708142 115.91786 
L 658.919265 112.988526 
L 661.130388 112.282023 
L 663.290089 109.579613 
L 665.604055 109.678966 
L 667.918021 105.738108 
L 672.443109 103.430636 
L 674.654232 102.359589 
L 676.865355 102.909868 
L 679.076478 104.474084 
L 681.236179 101.31905 
L 683.652988 100.194238 
L 685.915532 97.434556 
L 688.28092 95.028954 
L 690.492043 95.371402 
L 692.703165 93.657053 
L 697.07399 90.532008 
L 699.285113 90.953161 
L 701.444814 91.845623 
L 703.810201 91.358496 
L 706.072746 89.847842 
L 708.283869 90.67807 
L 710.597834 89.158184 
L 712.808957 88.83792 
L 715.02008 88.265106 
L 717.231203 85.70618 
L 719.390904 84.806172 
L 721.602027 84.493268 
L 724.018836 83.060419 
L 726.229959 83.243589 
L 728.441082 83.701413 
L 730.755048 80.89953 
L 732.966171 82.126369 
L 735.125872 82.857725 
L 737.336995 81.526903 
L 739.496696 81.024947 
L 741.913505 82.420545 
L 744.176049 84.559786 
L 746.387172 84.496348 
L 750.757997 86.058348 
L 753.071962 84.674746 
L 755.283085 84.685559 
L 757.442787 82.83459 
L 759.65391 82.89074 
L 762.070718 80.863075 
L 764.281841 79.881875 
L 768.704087 77.212562 
L 770.91521 78.185237 
L 773.229176 77.741797 
L 775.388877 78.352258 
L 777.6 77.513937 
L 777.6 77.513937 
" style="fill:none;stroke:#1f77b4;stroke-linecap:square;stroke-width:2.275;"/>
   </g>
   <g id="line2d_44">
    <path clip-path="url(#pcbc17a95dc)" d="M 473.236364 239.063802 
L 475.396065 231.093941 
L 477.710031 229.761095 
L 480.023997 227.957999 
L 482.23512 220.793923 
L 486.760208 208.681371 
L 488.971331 208.693343 
L 491.182454 202.333097 
L 493.342155 212.292686 
L 495.553278 212.891508 
L 497.918666 206.527249 
L 500.18121 207.016422 
L 502.340911 213.710693 
L 504.552034 214.159402 
L 506.917422 210.974865 
L 509.077123 210.490681 
L 511.288246 207.352257 
L 513.447947 208.432804 
L 515.710492 206.591285 
L 518.075879 203.866797 
L 520.287002 205.847186 
L 522.498125 204.507495 
L 524.863512 201.21447 
L 527.074635 199.25357 
L 529.285758 197.120258 
L 531.445459 197.145454 
L 533.656582 195.873454 
L 536.021969 193.374348 
L 538.233092 194.113977 
L 540.444215 193.476003 
L 542.655338 192.276486 
L 544.866461 190.776316 
L 547.026162 189.011086 
L 549.340128 186.236282 
L 551.49983 185.171658 
L 553.813795 184.262346 
L 556.024918 182.302097 
L 558.338884 182.357783 
L 560.550007 183.047055 
L 562.76113 182.801289 
L 564.972253 185.468414 
L 567.183376 183.252734 
L 569.343077 183.672498 
L 571.657043 182.750752 
L 574.02243 182.168435 
L 576.336396 181.273642 
L 578.547519 180.000456 
L 580.758642 178.262353 
L 582.969765 176.329211 
L 585.180887 172.563803 
L 587.340589 171.030737 
L 589.654555 167.988501 
L 591.917099 165.367426 
L 596.493609 161.082254 
L 598.704732 157.577692 
L 600.915855 162.466253 
L 603.075556 167.561586 
L 605.286679 159.244454 
L 607.446381 154.862915 
L 609.811768 150.977613 
L 612.074312 151.850584 
L 614.285435 160.150314 
L 616.496558 156.396568 
L 618.810524 159.538194 
L 621.021647 162.867621 
L 623.23277 161.327495 
L 625.392471 160.486858 
L 627.603594 162.122097 
L 630.020403 162.185127 
L 632.231526 163.581525 
L 634.442648 161.378107 
L 636.653771 161.19752 
L 638.967737 160.358979 
L 641.127439 160.715172 
L 643.338561 158.013686 
L 645.498263 161.346817 
L 647.760807 159.528367 
L 649.97193 158.483346 
L 652.285896 158.273174 
L 654.497019 156.466126 
L 656.708142 152.029511 
L 658.919265 151.498912 
L 661.130388 151.566958 
L 663.290089 152.435326 
L 665.604055 153.930943 
L 667.918021 154.702677 
L 670.129143 154.0947 
L 672.443109 153.707654 
L 674.654232 153.836326 
L 676.865355 154.083776 
L 679.076478 154.212501 
L 681.236179 152.545078 
L 683.652988 153.83921 
L 685.915532 156.745254 
L 688.28092 157.480094 
L 690.492043 158.313135 
L 692.703165 158.521101 
L 694.914288 159.002861 
L 697.07399 157.431516 
L 699.285113 157.813312 
L 701.444814 156.566487 
L 703.810201 156.692568 
L 706.072746 156.621412 
L 710.597834 154.851694 
L 712.808957 154.836108 
L 715.02008 154.339653 
L 717.231203 153.043573 
L 719.390904 153.058556 
L 721.602027 153.863758 
L 724.018836 152.184414 
L 726.229959 151.997619 
L 728.441082 152.273934 
L 730.755048 150.366708 
L 732.966171 150.028646 
L 735.125872 150.447783 
L 737.336995 148.972689 
L 739.496696 149.358948 
L 741.913505 150.547486 
L 744.176049 153.096989 
L 746.387172 153.952357 
L 748.546874 153.137845 
L 750.757997 153.68934 
L 753.071962 153.887696 
L 755.283085 154.307479 
L 757.442787 154.406988 
L 759.65391 155.760476 
L 762.070718 153.654524 
L 764.281841 152.618928 
L 768.704087 152.0888 
L 773.229176 149.583796 
L 775.388877 148.758032 
L 777.6 148.045751 
L 777.6 148.045751 
" style="fill:none;stroke:#ff7f0e;stroke-linecap:square;stroke-width:2.275;"/>
   </g>
   <g id="patch_9">
    <path d="M 473.236364 247.156364 
L 473.236364 69.12 
" style="fill:none;stroke:#000000;stroke-linecap:square;stroke-linejoin:miter;stroke-width:0.8;"/>
   </g>
   <g id="patch_10">
    <path d="M 777.6 247.156364 
L 777.6 69.12 
" style="fill:none;stroke:#000000;stroke-linecap:square;stroke-linejoin:miter;stroke-width:0.8;"/>
   </g>
   <g id="patch_11">
    <path d="M 473.236364 247.156364 
L 777.6 247.156364 
" style="fill:none;stroke:#000000;stroke-linecap:square;stroke-linejoin:miter;stroke-width:0.8;"/>
   </g>
   <g id="patch_12">
    <path d="M 473.236364 69.12 
L 777.6 69.12 
" style="fill:none;stroke:#000000;stroke-linecap:square;stroke-linejoin:miter;stroke-width:0.8;"/>
   </g>
   <g id="text_12">
    <!-- Internal regret - eta=2 -->
    <defs>
     <path d="M 9.8125 72.90625 
L 19.671875 72.90625 
L 19.671875 0 
L 9.8125 0 
z
" id="DejaVuSans-49"/>
     <path d="M 54.890625 33.015625 
L 54.890625 0 
L 45.90625 0 
L 45.90625 32.71875 
Q 45.90625 40.484375 42.875 44.328125 
Q 39.84375 48.1875 33.796875 48.1875 
Q 26.515625 48.1875 22.3125 43.546875 
Q 18.109375 38.921875 18.109375 30.90625 
L 18.109375 0 
L 9.078125 0 
L 9.078125 54.6875 
L 18.109375 54.6875 
L 18.109375 46.1875 
Q 21.34375 51.125 25.703125 53.5625 
Q 30.078125 56 35.796875 56 
Q 45.21875 56 50.046875 50.171875 
Q 54.890625 44.34375 54.890625 33.015625 
z
" id="DejaVuSans-6e"/>
     <path d="M 45.40625 27.984375 
Q 45.40625 37.75 41.375 43.109375 
Q 37.359375 48.484375 30.078125 48.484375 
Q 22.859375 48.484375 18.828125 43.109375 
Q 14.796875 37.75 14.796875 27.984375 
Q 14.796875 18.265625 18.828125 12.890625 
Q 22.859375 7.515625 30.078125 7.515625 
Q 37.359375 7.515625 41.375 12.890625 
Q 45.40625 18.265625 45.40625 27.984375 
z
M 54.390625 6.78125 
Q 54.390625 -7.171875 48.1875 -13.984375 
Q 42 -20.796875 29.203125 -20.796875 
Q 24.46875 -20.796875 20.265625 -20.09375 
Q 16.0625 -19.390625 12.109375 -17.921875 
L 12.109375 -9.1875 
Q 16.0625 -11.328125 19.921875 -12.34375 
Q 23.78125 -13.375 27.78125 -13.375 
Q 36.625 -13.375 41.015625 -8.765625 
Q 45.40625 -4.15625 45.40625 5.171875 
L 45.40625 9.625 
Q 42.625 4.78125 38.28125 2.390625 
Q 33.9375 0 27.875 0 
Q 17.828125 0 11.671875 7.65625 
Q 5.515625 15.328125 5.515625 27.984375 
Q 5.515625 40.671875 11.671875 48.328125 
Q 17.828125 56 27.875 56 
Q 33.9375 56 38.28125 53.609375 
Q 42.625 51.21875 45.40625 46.390625 
L 45.40625 54.6875 
L 54.390625 54.6875 
z
" id="DejaVuSans-67"/>
    </defs>
    <g transform="translate(536.817494 63.12)scale(0.156 -0.156)">
     <use xlink:href="#DejaVuSans-49"/>
     <use x="29.492188" xlink:href="#DejaVuSans-6e"/>
     <use x="92.871094" xlink:href="#DejaVuSans-74"/>
     <use x="132.080078" xlink:href="#DejaVuSans-65"/>
     <use x="193.603516" xlink:href="#DejaVuSans-72"/>
     <use x="234.701172" xlink:href="#DejaVuSans-6e"/>
     <use x="298.080078" xlink:href="#DejaVuSans-61"/>
     <use x="359.359375" xlink:href="#DejaVuSans-6c"/>
     <use x="387.142578" xlink:href="#DejaVuSans-20"/>
     <use x="418.929688" xlink:href="#DejaVuSans-72"/>
     <use x="460.011719" xlink:href="#DejaVuSans-65"/>
     <use x="521.535156" xlink:href="#DejaVuSans-67"/>
     <use x="585.011719" xlink:href="#DejaVuSans-72"/>
     <use x="626.09375" xlink:href="#DejaVuSans-65"/>
     <use x="687.617188" xlink:href="#DejaVuSans-74"/>
     <use x="726.826172" xlink:href="#DejaVuSans-20"/>
     <use x="758.613281" xlink:href="#DejaVuSans-2d"/>
     <use x="794.697266" xlink:href="#DejaVuSans-20"/>
     <use x="826.484375" xlink:href="#DejaVuSans-65"/>
     <use x="888.007812" xlink:href="#DejaVuSans-74"/>
     <use x="927.216797" xlink:href="#DejaVuSans-61"/>
     <use x="988.496094" xlink:href="#DejaVuSans-3d"/>
     <use x="1072.285156" xlink:href="#DejaVuSans-32"/>
    </g>
   </g>
   <g id="legend_2">
    <g id="patch_13">
     <path d="M 482.336364 117.683125 
L 573.923395 117.683125 
Q 576.523395 117.683125 576.523395 115.083125 
L 576.523395 78.22 
Q 576.523395 75.62 573.923395 75.62 
L 482.336364 75.62 
Q 479.736364 75.62 479.736364 78.22 
L 479.736364 115.083125 
Q 479.736364 117.683125 482.336364 117.683125 
z
" style="fill:#ffffff;opacity:0.8;stroke:#cccccc;stroke-linejoin:miter;stroke-width:0.39;"/>
    </g>
    <g id="line2d_45">
     <path d="M 484.936364 86.147969 
L 510.936364 86.147969 
" style="fill:none;stroke:#1f77b4;stroke-linecap:square;stroke-width:2.275;"/>
    </g>
    <g id="line2d_46"/>
    <g id="text_13">
     <!-- EG -->
     <g transform="translate(521.336364 90.697969)scale(0.13 -0.13)">
      <use xlink:href="#DejaVuSans-45"/>
      <use x="63.183594" xlink:href="#DejaVuSans-47"/>
     </g>
    </g>
    <g id="line2d_47">
     <path d="M 484.936364 105.229531 
L 510.936364 105.229531 
" style="fill:none;stroke:#ff7f0e;stroke-linecap:square;stroke-width:2.275;"/>
    </g>
    <g id="line2d_48"/>
    <g id="text_14">
     <!-- BP1EXP -->
     <g transform="translate(521.336364 109.779531)scale(0.13 -0.13)">
      <use xlink:href="#DejaVuSans-42"/>
      <use x="68.603516" xlink:href="#DejaVuSans-50"/>
      <use x="128.90625" xlink:href="#DejaVuSans-31"/>
      <use x="192.529297" xlink:href="#DejaVuSans-45"/>
      <use x="255.712891" xlink:href="#DejaVuSans-58"/>
      <use x="324.21875" xlink:href="#DejaVuSans-50"/>
     </g>
    </g>
   </g>
  </g>
  <g id="axes_3">
   <g id="patch_14">
    <path d="M 108 460.8 
L 412.363636 460.8 
L 412.363636 282.763636 
L 108 282.763636 
z
" style="fill:#ffffff;"/>
   </g>
   <g id="matplotlib.axis_5">
    <g id="xtick_29">
     <g id="line2d_49">
      <g>
       <use style="stroke:#000000;stroke-width:1.3;" x="132.013823" xlink:href="#m4e883fcdc8" y="460.8"/>
      </g>
     </g>
     <g id="text_15">
      <!-- 2003 -->
      <g transform="translate(102.009576 498.497072)rotate(-30)scale(0.13 -0.13)">
       <use xlink:href="#DejaVuSans-32"/>
       <use x="63.623047" xlink:href="#DejaVuSans-30"/>
       <use x="127.246094" xlink:href="#DejaVuSans-30"/>
       <use x="190.869141" xlink:href="#DejaVuSans-33"/>
      </g>
     </g>
    </g>
    <g id="xtick_30">
     <g id="line2d_50">
      <g>
       <use style="stroke:#000000;stroke-width:1.3;" x="169.602912" xlink:href="#m4e883fcdc8" y="460.8"/>
      </g>
     </g>
     <g id="text_16">
      <!-- 2005 -->
      <g transform="translate(139.598665 498.497072)rotate(-30)scale(0.13 -0.13)">
       <use xlink:href="#DejaVuSans-32"/>
       <use x="63.623047" xlink:href="#DejaVuSans-30"/>
       <use x="127.246094" xlink:href="#DejaVuSans-30"/>
       <use x="190.869141" xlink:href="#DejaVuSans-35"/>
      </g>
     </g>
    </g>
    <g id="xtick_31">
     <g id="line2d_51">
      <g>
       <use style="stroke:#000000;stroke-width:1.3;" x="207.14058" xlink:href="#m4e883fcdc8" y="460.8"/>
      </g>
     </g>
     <g id="text_17">
      <!-- 2007 -->
      <defs>
       <path d="M 8.203125 72.90625 
L 55.078125 72.90625 
L 55.078125 68.703125 
L 28.609375 0 
L 18.3125 0 
L 43.21875 64.59375 
L 8.203125 64.59375 
z
" id="DejaVuSans-37"/>
      </defs>
      <g transform="translate(177.136332 498.497072)rotate(-30)scale(0.13 -0.13)">
       <use xlink:href="#DejaVuSans-32"/>
       <use x="63.623047" xlink:href="#DejaVuSans-30"/>
       <use x="127.246094" xlink:href="#DejaVuSans-30"/>
       <use x="190.869141" xlink:href="#DejaVuSans-37"/>
      </g>
     </g>
    </g>
    <g id="xtick_32">
     <g id="line2d_52">
      <g>
       <use style="stroke:#000000;stroke-width:1.3;" x="244.729669" xlink:href="#m4e883fcdc8" y="460.8"/>
      </g>
     </g>
     <g id="text_18">
      <!-- 2009 -->
      <defs>
       <path d="M 10.984375 1.515625 
L 10.984375 10.5 
Q 14.703125 8.734375 18.5 7.8125 
Q 22.3125 6.890625 25.984375 6.890625 
Q 35.75 6.890625 40.890625 13.453125 
Q 46.046875 20.015625 46.78125 33.40625 
Q 43.953125 29.203125 39.59375 26.953125 
Q 35.25 24.703125 29.984375 24.703125 
Q 19.046875 24.703125 12.671875 31.3125 
Q 6.296875 37.9375 6.296875 49.421875 
Q 6.296875 60.640625 12.9375 67.421875 
Q 19.578125 74.21875 30.609375 74.21875 
Q 43.265625 74.21875 49.921875 64.515625 
Q 56.59375 54.828125 56.59375 36.375 
Q 56.59375 19.140625 48.40625 8.859375 
Q 40.234375 -1.421875 26.421875 -1.421875 
Q 22.703125 -1.421875 18.890625 -0.6875 
Q 15.09375 0.046875 10.984375 1.515625 
z
M 30.609375 32.421875 
Q 37.25 32.421875 41.125 36.953125 
Q 45.015625 41.5 45.015625 49.421875 
Q 45.015625 57.28125 41.125 61.84375 
Q 37.25 66.40625 30.609375 66.40625 
Q 23.96875 66.40625 20.09375 61.84375 
Q 16.21875 57.28125 16.21875 49.421875 
Q 16.21875 41.5 20.09375 36.953125 
Q 23.96875 32.421875 30.609375 32.421875 
z
" id="DejaVuSans-39"/>
      </defs>
      <g transform="translate(214.725421 498.497072)rotate(-30)scale(0.13 -0.13)">
       <use xlink:href="#DejaVuSans-32"/>
       <use x="63.623047" xlink:href="#DejaVuSans-30"/>
       <use x="127.246094" xlink:href="#DejaVuSans-30"/>
       <use x="190.869141" xlink:href="#DejaVuSans-39"/>
      </g>
     </g>
    </g>
    <g id="xtick_33">
     <g id="line2d_53">
      <g>
       <use style="stroke:#000000;stroke-width:1.3;" x="282.267336" xlink:href="#m4e883fcdc8" y="460.8"/>
      </g>
     </g>
     <g id="text_19">
      <!-- 2011 -->
      <g transform="translate(252.263089 498.497072)rotate(-30)scale(0.13 -0.13)">
       <use xlink:href="#DejaVuSans-32"/>
       <use x="63.623047" xlink:href="#DejaVuSans-30"/>
       <use x="127.246094" xlink:href="#DejaVuSans-31"/>
       <use x="190.869141" xlink:href="#DejaVuSans-31"/>
      </g>
     </g>
    </g>
    <g id="xtick_34">
     <g id="line2d_54">
      <g>
       <use style="stroke:#000000;stroke-width:1.3;" x="319.856425" xlink:href="#m4e883fcdc8" y="460.8"/>
      </g>
     </g>
     <g id="text_20">
      <!-- 2013 -->
      <g transform="translate(289.852178 498.497072)rotate(-30)scale(0.13 -0.13)">
       <use xlink:href="#DejaVuSans-32"/>
       <use x="63.623047" xlink:href="#DejaVuSans-30"/>
       <use x="127.246094" xlink:href="#DejaVuSans-31"/>
       <use x="190.869141" xlink:href="#DejaVuSans-33"/>
      </g>
     </g>
    </g>
    <g id="xtick_35">
     <g id="line2d_55">
      <g>
       <use style="stroke:#000000;stroke-width:1.3;" x="357.394093" xlink:href="#m4e883fcdc8" y="460.8"/>
      </g>
     </g>
     <g id="text_21">
      <!-- 2015 -->
      <g transform="translate(327.389846 498.497072)rotate(-30)scale(0.13 -0.13)">
       <use xlink:href="#DejaVuSans-32"/>
       <use x="63.623047" xlink:href="#DejaVuSans-30"/>
       <use x="127.246094" xlink:href="#DejaVuSans-31"/>
       <use x="190.869141" xlink:href="#DejaVuSans-35"/>
      </g>
     </g>
    </g>
    <g id="xtick_36">
     <g id="line2d_56">
      <g>
       <use style="stroke:#000000;stroke-width:1.3;" x="394.983182" xlink:href="#m4e883fcdc8" y="460.8"/>
      </g>
     </g>
     <g id="text_22">
      <!-- 2017 -->
      <g transform="translate(364.978935 498.497072)rotate(-30)scale(0.13 -0.13)">
       <use xlink:href="#DejaVuSans-32"/>
       <use x="63.623047" xlink:href="#DejaVuSans-30"/>
       <use x="127.246094" xlink:href="#DejaVuSans-31"/>
       <use x="190.869141" xlink:href="#DejaVuSans-37"/>
      </g>
     </g>
    </g>
    <g id="xtick_37">
     <g id="line2d_57">
      <g>
       <use style="stroke:#000000;stroke-width:0.65;" x="120.906787" xlink:href="#m3f80c857af" y="460.8"/>
      </g>
     </g>
    </g>
    <g id="xtick_38">
     <g id="line2d_58">
      <g>
       <use style="stroke:#000000;stroke-width:0.65;" x="172.32825" xlink:href="#m3f80c857af" y="460.8"/>
      </g>
     </g>
    </g>
    <g id="xtick_39">
     <g id="line2d_59">
      <g>
       <use style="stroke:#000000;stroke-width:0.65;" x="223.749712" xlink:href="#m3f80c857af" y="460.8"/>
      </g>
     </g>
    </g>
    <g id="xtick_40">
     <g id="line2d_60">
      <g>
       <use style="stroke:#000000;stroke-width:0.65;" x="275.171174" xlink:href="#m3f80c857af" y="460.8"/>
      </g>
     </g>
    </g>
    <g id="xtick_41">
     <g id="line2d_61">
      <g>
       <use style="stroke:#000000;stroke-width:0.65;" x="326.592637" xlink:href="#m3f80c857af" y="460.8"/>
      </g>
     </g>
    </g>
    <g id="xtick_42">
     <g id="line2d_62">
      <g>
       <use style="stroke:#000000;stroke-width:0.65;" x="378.014099" xlink:href="#m3f80c857af" y="460.8"/>
      </g>
     </g>
    </g>
    <g id="text_23">
     <!-- Date -->
     <defs>
      <path d="M 19.671875 64.796875 
L 19.671875 8.109375 
L 31.59375 8.109375 
Q 46.6875 8.109375 53.6875 14.9375 
Q 60.6875 21.78125 60.6875 36.53125 
Q 60.6875 51.171875 53.6875 57.984375 
Q 46.6875 64.796875 31.59375 64.796875 
z
M 9.8125 72.90625 
L 30.078125 72.90625 
Q 51.265625 72.90625 61.171875 64.09375 
Q 71.09375 55.28125 71.09375 36.53125 
Q 71.09375 17.671875 61.125 8.828125 
Q 51.171875 0 30.078125 0 
L 9.8125 0 
z
" id="DejaVuSans-44"/>
     </defs>
     <g transform="translate(243.092201 515.704218)scale(0.143 -0.143)">
      <use xlink:href="#DejaVuSans-44"/>
      <use x="77.001953" xlink:href="#DejaVuSans-61"/>
      <use x="138.28125" xlink:href="#DejaVuSans-74"/>
      <use x="177.490234" xlink:href="#DejaVuSans-65"/>
     </g>
    </g>
   </g>
   <g id="matplotlib.axis_6">
    <g id="ytick_9">
     <g id="line2d_63">
      <g>
       <use style="stroke:#000000;stroke-width:1.3;" x="108" xlink:href="#mbbcaecdc81" y="453.868285"/>
      </g>
     </g>
     <g id="text_24">
      <!-- 1 -->
      <g transform="translate(87.12875 458.807269)scale(0.13 -0.13)">
       <use xlink:href="#DejaVuSans-31"/>
      </g>
     </g>
    </g>
    <g id="ytick_10">
     <g id="line2d_64">
      <g>
       <use style="stroke:#000000;stroke-width:1.3;" x="108" xlink:href="#mbbcaecdc81" y="421.36264"/>
      </g>
     </g>
     <g id="text_25">
      <!-- 2 -->
      <g transform="translate(87.12875 426.301624)scale(0.13 -0.13)">
       <use xlink:href="#DejaVuSans-32"/>
      </g>
     </g>
    </g>
    <g id="ytick_11">
     <g id="line2d_65">
      <g>
       <use style="stroke:#000000;stroke-width:1.3;" x="108" xlink:href="#mbbcaecdc81" y="388.856994"/>
      </g>
     </g>
     <g id="text_26">
      <!-- 3 -->
      <g transform="translate(87.12875 393.795979)scale(0.13 -0.13)">
       <use xlink:href="#DejaVuSans-33"/>
      </g>
     </g>
    </g>
    <g id="ytick_12">
     <g id="line2d_66">
      <g>
       <use style="stroke:#000000;stroke-width:1.3;" x="108" xlink:href="#mbbcaecdc81" y="356.351349"/>
      </g>
     </g>
     <g id="text_27">
      <!-- 4 -->
      <g transform="translate(87.12875 361.290333)scale(0.13 -0.13)">
       <use xlink:href="#DejaVuSans-34"/>
      </g>
     </g>
    </g>
    <g id="ytick_13">
     <g id="line2d_67">
      <g>
       <use style="stroke:#000000;stroke-width:1.3;" x="108" xlink:href="#mbbcaecdc81" y="323.845704"/>
      </g>
     </g>
     <g id="text_28">
      <!-- 5 -->
      <g transform="translate(87.12875 328.784688)scale(0.13 -0.13)">
       <use xlink:href="#DejaVuSans-35"/>
      </g>
     </g>
    </g>
    <g id="ytick_14">
     <g id="line2d_68">
      <g>
       <use style="stroke:#000000;stroke-width:1.3;" x="108" xlink:href="#mbbcaecdc81" y="291.340058"/>
      </g>
     </g>
     <g id="text_29">
      <!-- 6 -->
      <defs>
       <path d="M 33.015625 40.375 
Q 26.375 40.375 22.484375 35.828125 
Q 18.609375 31.296875 18.609375 23.390625 
Q 18.609375 15.53125 22.484375 10.953125 
Q 26.375 6.390625 33.015625 6.390625 
Q 39.65625 6.390625 43.53125 10.953125 
Q 47.40625 15.53125 47.40625 23.390625 
Q 47.40625 31.296875 43.53125 35.828125 
Q 39.65625 40.375 33.015625 40.375 
z
M 52.59375 71.296875 
L 52.59375 62.3125 
Q 48.875 64.0625 45.09375 64.984375 
Q 41.3125 65.921875 37.59375 65.921875 
Q 27.828125 65.921875 22.671875 59.328125 
Q 17.53125 52.734375 16.796875 39.40625 
Q 19.671875 43.65625 24.015625 45.921875 
Q 28.375 48.1875 33.59375 48.1875 
Q 44.578125 48.1875 50.953125 41.515625 
Q 57.328125 34.859375 57.328125 23.390625 
Q 57.328125 12.15625 50.6875 5.359375 
Q 44.046875 -1.421875 33.015625 -1.421875 
Q 20.359375 -1.421875 13.671875 8.265625 
Q 6.984375 17.96875 6.984375 36.375 
Q 6.984375 53.65625 15.1875 63.9375 
Q 23.390625 74.21875 37.203125 74.21875 
Q 40.921875 74.21875 44.703125 73.484375 
Q 48.484375 72.75 52.59375 71.296875 
z
" id="DejaVuSans-36"/>
      </defs>
      <g transform="translate(87.12875 296.279043)scale(0.13 -0.13)">
       <use xlink:href="#DejaVuSans-36"/>
      </g>
     </g>
    </g>
   </g>
   <g id="line2d_69">
    <path clip-path="url(#p131806fb88)" d="M 108 450.001167 
L 110.159701 448.1424 
L 112.473667 446.328877 
L 114.787633 443.569948 
L 116.998756 444.431529 
L 119.312722 445.570886 
L 121.523845 452.659088 
L 123.734968 450.654435 
L 125.94609 452.375319 
L 128.105792 448.686789 
L 130.316915 448.001909 
L 132.682302 451.231026 
L 134.944846 449.982707 
L 137.104548 446.024825 
L 139.315671 443.229167 
L 143.840759 441.774487 
L 148.211584 436.668027 
L 150.474128 434.555233 
L 152.839515 436.164901 
L 155.050638 435.162816 
L 157.261761 433.910455 
L 159.627148 434.640327 
L 161.838271 433.474003 
L 164.049394 432.148829 
L 166.209096 428.87672 
L 168.420218 429.620092 
L 170.785606 425.515731 
L 172.996729 429.98205 
L 175.207851 426.634879 
L 177.418974 424.66927 
L 179.630097 425.099914 
L 181.789799 425.855477 
L 184.103764 422.316221 
L 188.577432 418.37593 
L 190.788555 417.110868 
L 193.10252 417.334314 
L 195.313643 420.066891 
L 197.524766 419.059174 
L 199.735889 417.132775 
L 204.106713 410.844879 
L 206.420679 408.31764 
L 208.786066 409.934667 
L 211.100032 406.094649 
L 213.311155 404.509915 
L 215.522278 406.79359 
L 217.733401 409.275647 
L 219.944524 406.697989 
L 222.104225 407.375411 
L 224.418191 412.939925 
L 226.680735 412.158866 
L 228.94328 412.22108 
L 231.257246 409.054317 
L 233.468368 417.207387 
L 235.679491 415.048807 
L 237.839193 423.715375 
L 240.050316 437.453797 
L 242.210017 438.2961 
L 244.575404 439.60638 
L 246.837949 439.660921 
L 249.049072 429.811281 
L 251.260194 433.551318 
L 253.57416 424.697903 
L 255.785283 418.260322 
L 257.996406 422.561134 
L 260.156107 418.356179 
L 262.36723 417.450339 
L 264.784039 413.102532 
L 266.995162 407.450486 
L 269.206285 417.66257 
L 271.417408 417.726496 
L 273.731374 418.626936 
L 275.891075 409.924167 
L 278.102198 409.945218 
L 280.261899 403.263692 
L 282.524444 397.952116 
L 287.049532 398.496449 
L 289.260655 400.334747 
L 291.471778 411.78736 
L 293.682901 415.07654 
L 295.894024 405.847201 
L 298.053725 409.860599 
L 300.367691 400.456934 
L 302.681657 396.777844 
L 304.89278 397.691427 
L 307.206746 403.15726 
L 309.417868 402.936541 
L 311.628991 396.927602 
L 313.840114 393.495205 
L 315.999816 395.581355 
L 318.416624 388.690482 
L 323.044556 383.170461 
L 325.255679 377.116 
L 327.466802 375.322238 
L 329.677925 374.894031 
L 331.837626 372.695559 
L 334.048749 365.224727 
L 336.20845 362.791044 
L 338.573838 363.1907 
L 343.047505 357.008704 
L 345.361471 353.175179 
L 347.572594 356.568976 
L 349.783717 350.271424 
L 351.994839 352.876675 
L 354.154541 351.681788 
L 356.365664 348.904439 
L 358.782472 345.609918 
L 360.993595 341.56055 
L 363.204718 344.311963 
L 365.518684 346.768908 
L 367.729807 356.910939 
L 369.889508 352.494014 
L 372.100631 348.968441 
L 374.260333 361.456033 
L 376.677141 356.49092 
L 378.939686 346.13099 
L 381.150809 345.212982 
L 385.521633 332.283147 
L 387.835599 335.899785 
L 390.046722 338.176414 
L 392.206423 327.750379 
L 394.417546 325.450857 
L 396.834355 324.353536 
L 399.045478 321.965791 
L 401.2566 318.01467 
L 403.467723 316.148411 
L 405.678846 316.597304 
L 410.152513 306.344915 
L 412.363636 294.444006 
L 412.363636 294.444006 
" style="fill:none;stroke:#1f77b4;stroke-linecap:square;stroke-width:2.275;"/>
   </g>
   <g id="line2d_70">
    <path clip-path="url(#p131806fb88)" d="M 108 450.001167 
L 110.159701 448.148635 
L 112.473667 446.330398 
L 114.787633 443.569526 
L 116.998756 444.435761 
L 119.312722 445.601931 
L 121.523845 452.707438 
L 123.734968 450.662517 
L 125.94609 452.415122 
L 128.105792 448.573875 
L 130.316915 447.863111 
L 132.682302 451.127527 
L 134.944846 449.856128 
L 137.104548 445.816858 
L 139.315671 442.989628 
L 143.840759 441.540872 
L 148.211584 436.418124 
L 150.474128 434.304006 
L 152.839515 435.933606 
L 155.050638 434.893602 
L 157.261761 433.647279 
L 159.627148 434.408615 
L 161.838271 433.260317 
L 164.049394 431.948536 
L 166.209096 428.655629 
L 168.420218 429.404894 
L 170.785606 425.318463 
L 172.996729 429.782697 
L 175.207851 426.430884 
L 177.418974 424.473413 
L 179.630097 424.923634 
L 181.789799 425.704713 
L 184.103764 422.199276 
L 188.577432 418.293542 
L 190.788555 417.077955 
L 193.10252 417.279383 
L 195.313643 419.979621 
L 197.524766 418.956414 
L 199.735889 416.934414 
L 204.106713 410.683945 
L 206.420679 408.17193 
L 208.786066 409.808568 
L 211.100032 405.977857 
L 213.311155 404.436592 
L 215.522278 406.768994 
L 217.733401 409.301545 
L 219.944524 406.854932 
L 222.104225 407.509155 
L 224.418191 413.130418 
L 226.680735 412.445042 
L 228.94328 412.565651 
L 231.257246 409.477742 
L 233.468368 417.665935 
L 235.679491 415.245639 
L 237.839193 423.597572 
L 240.050316 437.47491 
L 242.210017 438.388952 
L 244.575404 439.792296 
L 246.837949 439.811452 
L 249.049072 429.603662 
L 251.260194 433.42831 
L 253.57416 424.432917 
L 255.785283 417.809333 
L 257.996406 422.107388 
L 260.156107 417.886226 
L 262.36723 416.889175 
L 264.784039 412.4975 
L 266.995162 406.72167 
L 269.206285 417.063693 
L 271.417408 417.096831 
L 273.731374 418.014281 
L 275.891075 409.216582 
L 278.102198 409.330217 
L 280.261899 402.440606 
L 282.524444 397.164932 
L 284.735567 397.496271 
L 287.049532 397.658098 
L 289.260655 399.566008 
L 291.471778 411.249164 
L 293.682901 414.542604 
L 295.894024 405.204945 
L 298.053725 409.166079 
L 300.367691 399.60472 
L 302.681657 395.840086 
L 304.89278 396.758148 
L 307.206746 402.240278 
L 309.417868 401.991025 
L 311.628991 395.892512 
L 313.840114 392.395137 
L 315.999816 394.540678 
L 318.416624 387.496794 
L 320.679169 384.499185 
L 323.044556 381.614751 
L 325.255679 375.432198 
L 327.466802 373.563044 
L 329.677925 373.117252 
L 331.837626 370.957463 
L 334.048749 363.339376 
L 336.20845 360.875675 
L 338.573838 361.237267 
L 343.047505 354.964087 
L 345.361471 351.101566 
L 347.572594 354.529061 
L 349.783717 348.114922 
L 351.994839 350.758278 
L 354.154541 349.527432 
L 356.365664 346.69333 
L 358.782472 343.381437 
L 360.993595 339.266435 
L 363.204718 341.999967 
L 365.518684 344.529691 
L 367.729807 354.853738 
L 369.889508 350.343188 
L 372.100631 346.78076 
L 374.260333 359.396005 
L 376.677141 354.309729 
L 378.939686 343.541609 
L 381.150809 342.524136 
L 385.521633 329.27961 
L 387.835599 332.924918 
L 390.046722 335.169813 
L 392.206423 324.374644 
L 394.417546 322.010803 
L 396.834355 321.054864 
L 399.045478 318.617786 
L 401.2566 314.603264 
L 403.467723 312.699161 
L 405.678846 313.28772 
L 410.152513 302.941954 
L 412.363636 290.856198 
L 412.363636 290.856198 
" style="fill:none;stroke:#ff7f0e;stroke-linecap:square;stroke-width:2.275;"/>
   </g>
   <g id="patch_15">
    <path d="M 108 460.8 
L 108 282.763636 
" style="fill:none;stroke:#000000;stroke-linecap:square;stroke-linejoin:miter;stroke-width:0.8;"/>
   </g>
   <g id="patch_16">
    <path d="M 412.363636 460.8 
L 412.363636 282.763636 
" style="fill:none;stroke:#000000;stroke-linecap:square;stroke-linejoin:miter;stroke-width:0.8;"/>
   </g>
   <g id="patch_17">
    <path d="M 108 460.8 
L 412.363636 460.8 
" style="fill:none;stroke:#000000;stroke-linecap:square;stroke-linejoin:miter;stroke-width:0.8;"/>
   </g>
   <g id="patch_18">
    <path d="M 108 282.763636 
L 412.363636 282.763636 
" style="fill:none;stroke:#000000;stroke-linecap:square;stroke-linejoin:miter;stroke-width:0.8;"/>
   </g>
   <g id="text_30">
    <!-- Wealth factor - optimal eta -->
    <defs>
     <path d="M 18.109375 8.203125 
L 18.109375 -20.796875 
L 9.078125 -20.796875 
L 9.078125 54.6875 
L 18.109375 54.6875 
L 18.109375 46.390625 
Q 20.953125 51.265625 25.265625 53.625 
Q 29.59375 56 35.59375 56 
Q 45.5625 56 51.78125 48.09375 
Q 58.015625 40.1875 58.015625 27.296875 
Q 58.015625 14.40625 51.78125 6.484375 
Q 45.5625 -1.421875 35.59375 -1.421875 
Q 29.59375 -1.421875 25.265625 0.953125 
Q 20.953125 3.328125 18.109375 8.203125 
z
M 48.6875 27.296875 
Q 48.6875 37.203125 44.609375 42.84375 
Q 40.53125 48.484375 33.40625 48.484375 
Q 26.265625 48.484375 22.1875 42.84375 
Q 18.109375 37.203125 18.109375 27.296875 
Q 18.109375 17.390625 22.1875 11.75 
Q 26.265625 6.109375 33.40625 6.109375 
Q 40.53125 6.109375 44.609375 11.75 
Q 48.6875 17.390625 48.6875 27.296875 
z
" id="DejaVuSans-70"/>
     <path d="M 9.421875 54.6875 
L 18.40625 54.6875 
L 18.40625 0 
L 9.421875 0 
z
M 9.421875 75.984375 
L 18.40625 75.984375 
L 18.40625 64.59375 
L 9.421875 64.59375 
z
" id="DejaVuSans-69"/>
     <path d="M 52 44.1875 
Q 55.375 50.25 60.0625 53.125 
Q 64.75 56 71.09375 56 
Q 79.640625 56 84.28125 50.015625 
Q 88.921875 44.046875 88.921875 33.015625 
L 88.921875 0 
L 79.890625 0 
L 79.890625 32.71875 
Q 79.890625 40.578125 77.09375 44.375 
Q 74.3125 48.1875 68.609375 48.1875 
Q 61.625 48.1875 57.5625 43.546875 
Q 53.515625 38.921875 53.515625 30.90625 
L 53.515625 0 
L 44.484375 0 
L 44.484375 32.71875 
Q 44.484375 40.625 41.703125 44.40625 
Q 38.921875 48.1875 33.109375 48.1875 
Q 26.21875 48.1875 22.15625 43.53125 
Q 18.109375 38.875 18.109375 30.90625 
L 18.109375 0 
L 9.078125 0 
L 9.078125 54.6875 
L 18.109375 54.6875 
L 18.109375 46.1875 
Q 21.1875 51.21875 25.484375 53.609375 
Q 29.78125 56 35.6875 56 
Q 41.65625 56 45.828125 52.96875 
Q 50 49.953125 52 44.1875 
z
" id="DejaVuSans-6d"/>
    </defs>
    <g transform="translate(155.015881 276.763636)scale(0.156 -0.156)">
     <use xlink:href="#DejaVuSans-57"/>
     <use x="98.798828" xlink:href="#DejaVuSans-65"/>
     <use x="160.322266" xlink:href="#DejaVuSans-61"/>
     <use x="221.601562" xlink:href="#DejaVuSans-6c"/>
     <use x="249.384766" xlink:href="#DejaVuSans-74"/>
     <use x="288.59375" xlink:href="#DejaVuSans-68"/>
     <use x="351.972656" xlink:href="#DejaVuSans-20"/>
     <use x="383.759766" xlink:href="#DejaVuSans-66"/>
     <use x="418.964844" xlink:href="#DejaVuSans-61"/>
     <use x="480.244141" xlink:href="#DejaVuSans-63"/>
     <use x="535.224609" xlink:href="#DejaVuSans-74"/>
     <use x="574.433594" xlink:href="#DejaVuSans-6f"/>
     <use x="635.615234" xlink:href="#DejaVuSans-72"/>
     <use x="676.728516" xlink:href="#DejaVuSans-20"/>
     <use x="708.515625" xlink:href="#DejaVuSans-2d"/>
     <use x="744.599609" xlink:href="#DejaVuSans-20"/>
     <use x="776.386719" xlink:href="#DejaVuSans-6f"/>
     <use x="837.568359" xlink:href="#DejaVuSans-70"/>
     <use x="901.044922" xlink:href="#DejaVuSans-74"/>
     <use x="940.253906" xlink:href="#DejaVuSans-69"/>
     <use x="968.037109" xlink:href="#DejaVuSans-6d"/>
     <use x="1065.449219" xlink:href="#DejaVuSans-61"/>
     <use x="1126.728516" xlink:href="#DejaVuSans-6c"/>
     <use x="1154.511719" xlink:href="#DejaVuSans-20"/>
     <use x="1186.298828" xlink:href="#DejaVuSans-65"/>
     <use x="1247.822266" xlink:href="#DejaVuSans-74"/>
     <use x="1287.03125" xlink:href="#DejaVuSans-61"/>
    </g>
   </g>
   <g id="legend_3">
    <g id="patch_19">
     <path d="M 117.1 331.326761 
L 208.687031 331.326761 
Q 211.287031 331.326761 211.287031 328.726761 
L 211.287031 291.863636 
Q 211.287031 289.263636 208.687031 289.263636 
L 117.1 289.263636 
Q 114.5 289.263636 114.5 291.863636 
L 114.5 328.726761 
Q 114.5 331.326761 117.1 331.326761 
z
" style="fill:#ffffff;opacity:0.8;stroke:#cccccc;stroke-linejoin:miter;stroke-width:0.39;"/>
    </g>
    <g id="line2d_71">
     <path d="M 119.7 299.791605 
L 145.7 299.791605 
" style="fill:none;stroke:#1f77b4;stroke-linecap:square;stroke-width:2.275;"/>
    </g>
    <g id="line2d_72"/>
    <g id="text_31">
     <!-- EG -->
     <g transform="translate(156.1 304.341605)scale(0.13 -0.13)">
      <use xlink:href="#DejaVuSans-45"/>
      <use x="63.183594" xlink:href="#DejaVuSans-47"/>
     </g>
    </g>
    <g id="line2d_73">
     <path d="M 119.7 318.873168 
L 145.7 318.873168 
" style="fill:none;stroke:#ff7f0e;stroke-linecap:square;stroke-width:2.275;"/>
    </g>
    <g id="line2d_74"/>
    <g id="text_32">
     <!-- BP1EXP -->
     <g transform="translate(156.1 323.423168)scale(0.13 -0.13)">
      <use xlink:href="#DejaVuSans-42"/>
      <use x="68.603516" xlink:href="#DejaVuSans-50"/>
      <use x="128.90625" xlink:href="#DejaVuSans-31"/>
      <use x="192.529297" xlink:href="#DejaVuSans-45"/>
      <use x="255.712891" xlink:href="#DejaVuSans-58"/>
      <use x="324.21875" xlink:href="#DejaVuSans-50"/>
     </g>
    </g>
   </g>
  </g>
  <g id="axes_4">
   <g id="patch_20">
    <path d="M 473.236364 460.8 
L 777.6 460.8 
L 777.6 282.763636 
L 473.236364 282.763636 
z
" style="fill:#ffffff;"/>
   </g>
   <g id="matplotlib.axis_7">
    <g id="xtick_43">
     <g id="line2d_75">
      <g>
       <use style="stroke:#000000;stroke-width:1.3;" x="497.250187" xlink:href="#m4e883fcdc8" y="460.8"/>
      </g>
     </g>
     <g id="text_33">
      <!-- 2003 -->
      <g transform="translate(467.245939 498.497072)rotate(-30)scale(0.13 -0.13)">
       <use xlink:href="#DejaVuSans-32"/>
       <use x="63.623047" xlink:href="#DejaVuSans-30"/>
       <use x="127.246094" xlink:href="#DejaVuSans-30"/>
       <use x="190.869141" xlink:href="#DejaVuSans-33"/>
      </g>
     </g>
    </g>
    <g id="xtick_44">
     <g id="line2d_76">
      <g>
       <use style="stroke:#000000;stroke-width:1.3;" x="534.839276" xlink:href="#m4e883fcdc8" y="460.8"/>
      </g>
     </g>
     <g id="text_34">
      <!-- 2005 -->
      <g transform="translate(504.835028 498.497072)rotate(-30)scale(0.13 -0.13)">
       <use xlink:href="#DejaVuSans-32"/>
       <use x="63.623047" xlink:href="#DejaVuSans-30"/>
       <use x="127.246094" xlink:href="#DejaVuSans-30"/>
       <use x="190.869141" xlink:href="#DejaVuSans-35"/>
      </g>
     </g>
    </g>
    <g id="xtick_45">
     <g id="line2d_77">
      <g>
       <use style="stroke:#000000;stroke-width:1.3;" x="572.376943" xlink:href="#m4e883fcdc8" y="460.8"/>
      </g>
     </g>
     <g id="text_35">
      <!-- 2007 -->
      <g transform="translate(542.372696 498.497072)rotate(-30)scale(0.13 -0.13)">
       <use xlink:href="#DejaVuSans-32"/>
       <use x="63.623047" xlink:href="#DejaVuSans-30"/>
       <use x="127.246094" xlink:href="#DejaVuSans-30"/>
       <use x="190.869141" xlink:href="#DejaVuSans-37"/>
      </g>
     </g>
    </g>
    <g id="xtick_46">
     <g id="line2d_78">
      <g>
       <use style="stroke:#000000;stroke-width:1.3;" x="609.966032" xlink:href="#m4e883fcdc8" y="460.8"/>
      </g>
     </g>
     <g id="text_36">
      <!-- 2009 -->
      <g transform="translate(579.961785 498.497072)rotate(-30)scale(0.13 -0.13)">
       <use xlink:href="#DejaVuSans-32"/>
       <use x="63.623047" xlink:href="#DejaVuSans-30"/>
       <use x="127.246094" xlink:href="#DejaVuSans-30"/>
       <use x="190.869141" xlink:href="#DejaVuSans-39"/>
      </g>
     </g>
    </g>
    <g id="xtick_47">
     <g id="line2d_79">
      <g>
       <use style="stroke:#000000;stroke-width:1.3;" x="647.5037" xlink:href="#m4e883fcdc8" y="460.8"/>
      </g>
     </g>
     <g id="text_37">
      <!-- 2011 -->
      <g transform="translate(617.499453 498.497072)rotate(-30)scale(0.13 -0.13)">
       <use xlink:href="#DejaVuSans-32"/>
       <use x="63.623047" xlink:href="#DejaVuSans-30"/>
       <use x="127.246094" xlink:href="#DejaVuSans-31"/>
       <use x="190.869141" xlink:href="#DejaVuSans-31"/>
      </g>
     </g>
    </g>
    <g id="xtick_48">
     <g id="line2d_80">
      <g>
       <use style="stroke:#000000;stroke-width:1.3;" x="685.092789" xlink:href="#m4e883fcdc8" y="460.8"/>
      </g>
     </g>
     <g id="text_38">
      <!-- 2013 -->
      <g transform="translate(655.088542 498.497072)rotate(-30)scale(0.13 -0.13)">
       <use xlink:href="#DejaVuSans-32"/>
       <use x="63.623047" xlink:href="#DejaVuSans-30"/>
       <use x="127.246094" xlink:href="#DejaVuSans-31"/>
       <use x="190.869141" xlink:href="#DejaVuSans-33"/>
      </g>
     </g>
    </g>
    <g id="xtick_49">
     <g id="line2d_81">
      <g>
       <use style="stroke:#000000;stroke-width:1.3;" x="722.630457" xlink:href="#m4e883fcdc8" y="460.8"/>
      </g>
     </g>
     <g id="text_39">
      <!-- 2015 -->
      <g transform="translate(692.626209 498.497072)rotate(-30)scale(0.13 -0.13)">
       <use xlink:href="#DejaVuSans-32"/>
       <use x="63.623047" xlink:href="#DejaVuSans-30"/>
       <use x="127.246094" xlink:href="#DejaVuSans-31"/>
       <use x="190.869141" xlink:href="#DejaVuSans-35"/>
      </g>
     </g>
    </g>
    <g id="xtick_50">
     <g id="line2d_82">
      <g>
       <use style="stroke:#000000;stroke-width:1.3;" x="760.219546" xlink:href="#m4e883fcdc8" y="460.8"/>
      </g>
     </g>
     <g id="text_40">
      <!-- 2017 -->
      <g transform="translate(730.215298 498.497072)rotate(-30)scale(0.13 -0.13)">
       <use xlink:href="#DejaVuSans-32"/>
       <use x="63.623047" xlink:href="#DejaVuSans-30"/>
       <use x="127.246094" xlink:href="#DejaVuSans-31"/>
       <use x="190.869141" xlink:href="#DejaVuSans-37"/>
      </g>
     </g>
    </g>
    <g id="xtick_51">
     <g id="line2d_83">
      <g>
       <use style="stroke:#000000;stroke-width:0.65;" x="486.143151" xlink:href="#m3f80c857af" y="460.8"/>
      </g>
     </g>
    </g>
    <g id="xtick_52">
     <g id="line2d_84">
      <g>
       <use style="stroke:#000000;stroke-width:0.65;" x="537.564613" xlink:href="#m3f80c857af" y="460.8"/>
      </g>
     </g>
    </g>
    <g id="xtick_53">
     <g id="line2d_85">
      <g>
       <use style="stroke:#000000;stroke-width:0.65;" x="588.986076" xlink:href="#m3f80c857af" y="460.8"/>
      </g>
     </g>
    </g>
    <g id="xtick_54">
     <g id="line2d_86">
      <g>
       <use style="stroke:#000000;stroke-width:0.65;" x="640.407538" xlink:href="#m3f80c857af" y="460.8"/>
      </g>
     </g>
    </g>
    <g id="xtick_55">
     <g id="line2d_87">
      <g>
       <use style="stroke:#000000;stroke-width:0.65;" x="691.829001" xlink:href="#m3f80c857af" y="460.8"/>
      </g>
     </g>
    </g>
    <g id="xtick_56">
     <g id="line2d_88">
      <g>
       <use style="stroke:#000000;stroke-width:0.65;" x="743.250463" xlink:href="#m3f80c857af" y="460.8"/>
      </g>
     </g>
    </g>
    <g id="text_41">
     <!-- Date -->
     <g transform="translate(608.328565 515.704218)scale(0.143 -0.143)">
      <use xlink:href="#DejaVuSans-44"/>
      <use x="77.001953" xlink:href="#DejaVuSans-61"/>
      <use x="138.28125" xlink:href="#DejaVuSans-74"/>
      <use x="177.490234" xlink:href="#DejaVuSans-65"/>
     </g>
    </g>
   </g>
   <g id="matplotlib.axis_8">
    <g id="ytick_15">
     <g id="line2d_89">
      <g>
       <use style="stroke:#000000;stroke-width:1.3;" x="473.236364" xlink:href="#mbbcaecdc81" y="445.775465"/>
      </g>
     </g>
     <g id="text_42">
      <!-- 0.05 -->
      <g transform="translate(431.691051 450.714449)scale(0.13 -0.13)">
       <use xlink:href="#DejaVuSans-30"/>
       <use x="63.623047" xlink:href="#DejaVuSans-2e"/>
       <use x="95.410156" xlink:href="#DejaVuSans-30"/>
       <use x="159.033203" xlink:href="#DejaVuSans-35"/>
      </g>
     </g>
    </g>
    <g id="ytick_16">
     <g id="line2d_90">
      <g>
       <use style="stroke:#000000;stroke-width:1.3;" x="473.236364" xlink:href="#mbbcaecdc81" y="410.712392"/>
      </g>
     </g>
     <g id="text_43">
      <!-- 0.10 -->
      <g transform="translate(431.691051 415.651376)scale(0.13 -0.13)">
       <use xlink:href="#DejaVuSans-30"/>
       <use x="63.623047" xlink:href="#DejaVuSans-2e"/>
       <use x="95.410156" xlink:href="#DejaVuSans-31"/>
       <use x="159.033203" xlink:href="#DejaVuSans-30"/>
      </g>
     </g>
    </g>
    <g id="ytick_17">
     <g id="line2d_91">
      <g>
       <use style="stroke:#000000;stroke-width:1.3;" x="473.236364" xlink:href="#mbbcaecdc81" y="375.649319"/>
      </g>
     </g>
     <g id="text_44">
      <!-- 0.15 -->
      <g transform="translate(431.691051 380.588303)scale(0.13 -0.13)">
       <use xlink:href="#DejaVuSans-30"/>
       <use x="63.623047" xlink:href="#DejaVuSans-2e"/>
       <use x="95.410156" xlink:href="#DejaVuSans-31"/>
       <use x="159.033203" xlink:href="#DejaVuSans-35"/>
      </g>
     </g>
    </g>
    <g id="ytick_18">
     <g id="line2d_92">
      <g>
       <use style="stroke:#000000;stroke-width:1.3;" x="473.236364" xlink:href="#mbbcaecdc81" y="340.586246"/>
      </g>
     </g>
     <g id="text_45">
      <!-- 0.20 -->
      <g transform="translate(431.691051 345.52523)scale(0.13 -0.13)">
       <use xlink:href="#DejaVuSans-30"/>
       <use x="63.623047" xlink:href="#DejaVuSans-2e"/>
       <use x="95.410156" xlink:href="#DejaVuSans-32"/>
       <use x="159.033203" xlink:href="#DejaVuSans-30"/>
      </g>
     </g>
    </g>
    <g id="ytick_19">
     <g id="line2d_93">
      <g>
       <use style="stroke:#000000;stroke-width:1.3;" x="473.236364" xlink:href="#mbbcaecdc81" y="305.523173"/>
      </g>
     </g>
     <g id="text_46">
      <!-- 0.25 -->
      <g transform="translate(431.691051 310.462157)scale(0.13 -0.13)">
       <use xlink:href="#DejaVuSans-30"/>
       <use x="63.623047" xlink:href="#DejaVuSans-2e"/>
       <use x="95.410156" xlink:href="#DejaVuSans-32"/>
       <use x="159.033203" xlink:href="#DejaVuSans-35"/>
      </g>
     </g>
    </g>
   </g>
   <g id="line2d_94">
    <path clip-path="url(#p7b8caeb97f)" d="M 473.236364 452.707438 
L 475.396065 440.633462 
L 477.710031 438.420896 
L 480.023997 435.472754 
L 482.23512 424.024129 
L 484.549085 413.820672 
L 486.760208 403.000324 
L 488.971331 404.922336 
L 491.182454 393.828006 
L 493.342155 412.203332 
L 495.553278 413.938113 
L 497.918666 403.500013 
L 500.18121 404.447882 
L 502.340911 415.161684 
L 504.552034 416.071298 
L 506.917422 411.345159 
L 509.077123 410.070961 
L 511.288246 404.655586 
L 513.447947 406.545862 
L 515.710492 403.397697 
L 518.075879 399.003173 
L 520.287002 402.100529 
L 522.498125 399.66104 
L 524.863512 394.041405 
L 527.074635 390.746565 
L 529.285758 387.034555 
L 531.445459 387.552589 
L 533.656582 385.149067 
L 536.021969 380.656251 
L 538.233092 381.761296 
L 540.444215 380.570675 
L 542.655338 378.159284 
L 544.866461 375.383763 
L 547.026162 372.225494 
L 549.340128 367.348544 
L 553.813795 363.625711 
L 556.024918 360.012159 
L 558.338884 360.384843 
L 560.550007 361.450679 
L 562.76113 361.235948 
L 564.972253 366.41553 
L 567.183376 362.120661 
L 569.343077 362.968938 
L 571.657043 360.982876 
L 574.02243 359.543872 
L 576.336396 357.724174 
L 578.547519 355.20922 
L 580.758642 352.029225 
L 582.969765 347.914107 
L 585.180887 340.776241 
L 587.340589 339.504349 
L 589.654555 334.080984 
L 591.917099 327.406185 
L 596.493609 318.338198 
L 598.704732 311.338318 
L 603.075556 333.107544 
L 605.286679 317.776744 
L 609.811768 299.833378 
L 612.074312 301.832219 
L 614.285435 319.557665 
L 616.496558 312.635869 
L 618.810524 318.118199 
L 621.021647 326.390364 
L 623.23277 323.162075 
L 625.392471 321.816451 
L 627.603594 325.566784 
L 630.020403 326.092673 
L 632.231526 328.742323 
L 634.442648 325.422266 
L 636.653771 325.04463 
L 638.967737 323.87927 
L 641.127439 324.315749 
L 643.338561 319.626573 
L 645.498263 325.945845 
L 647.760807 322.351003 
L 649.97193 320.540765 
L 652.285896 320.567281 
L 654.497019 317.036882 
L 656.708142 308.174505 
L 658.919265 307.448086 
L 661.130388 307.37683 
L 663.290089 309.160928 
L 665.604055 311.925693 
L 667.918021 312.567094 
L 670.129143 311.462747 
L 672.443109 310.980111 
L 674.654232 310.879033 
L 676.865355 311.972682 
L 679.076478 312.403461 
L 681.236179 309.468244 
L 683.652988 312.536319 
L 685.915532 318.325894 
L 688.28092 319.870033 
L 690.492043 321.078922 
L 692.703165 322.063974 
L 694.914288 322.643538 
L 697.07399 321.002503 
L 699.285113 321.455782 
L 701.444814 321.594345 
L 703.810201 321.229881 
L 706.072746 321.727137 
L 710.597834 319.329474 
L 712.808957 318.701341 
L 715.02008 318.933214 
L 717.231203 318.876534 
L 719.390904 318.689597 
L 721.602027 317.715671 
L 724.018836 317.661488 
L 726.229959 316.650757 
L 728.441082 317.488187 
L 730.755048 315.686107 
L 732.966171 314.530204 
L 735.125872 312.888122 
L 737.336995 313.240052 
L 739.496696 314.336619 
L 741.913505 310.898243 
L 744.176049 314.587441 
L 746.387172 315.945473 
L 748.546874 313.341099 
L 750.757997 315.042356 
L 753.071962 315.518753 
L 755.283085 316.277392 
L 757.442787 318.286286 
L 759.65391 318.456962 
L 762.070718 315.044339 
L 764.281841 315.146088 
L 766.492964 314.988645 
L 768.704087 314.265859 
L 770.91521 311.110687 
L 773.229176 309.29445 
L 775.388877 307.204754 
L 777.6 305.547389 
L 777.6 305.547389 
" style="fill:none;stroke:#1f77b4;stroke-linecap:square;stroke-width:2.275;"/>
   </g>
   <g id="line2d_95">
    <path clip-path="url(#p7b8caeb97f)" d="M 473.236364 452.707438 
L 475.396065 440.463579 
L 477.710031 438.16942 
L 480.023997 435.090199 
L 482.23512 423.308432 
L 484.549085 412.632169 
L 486.760208 401.079533 
L 488.971331 403.609952 
L 491.182454 391.912876 
L 493.342155 411.684088 
L 495.553278 413.870584 
L 497.918666 402.976497 
L 500.18121 403.843089 
L 502.340911 414.809393 
L 504.552034 415.713805 
L 506.917422 410.99625 
L 509.077123 409.591432 
L 511.288246 403.869657 
L 513.447947 405.833345 
L 515.710492 402.497288 
L 518.075879 398.014458 
L 520.287002 401.112336 
L 522.498125 398.577271 
L 524.863512 392.607206 
L 527.074635 389.201505 
L 529.285758 385.312651 
L 531.445459 385.873112 
L 533.656582 383.399465 
L 536.021969 378.710235 
L 538.233092 379.873006 
L 540.444215 378.490338 
L 542.655338 375.888509 
L 544.866461 372.826531 
L 547.026162 369.433393 
L 549.340128 364.232666 
L 551.49983 362.432168 
L 553.813795 360.096129 
L 556.024918 356.330833 
L 558.338884 356.830813 
L 560.550007 358.04168 
L 562.76113 357.914884 
L 564.972253 363.622206 
L 567.183376 358.965071 
L 569.343077 359.822425 
L 571.657043 357.659555 
L 574.02243 356.081052 
L 576.336396 353.912109 
L 578.547519 350.994405 
L 580.758642 347.563395 
L 582.969765 342.932471 
L 585.180887 335.203467 
L 587.340589 334.087806 
L 589.654555 328.312886 
L 591.917099 320.859183 
L 596.493609 310.575361 
L 598.704732 302.794239 
L 603.075556 327.652942 
L 605.286679 311.00026 
L 609.811768 290.856198 
L 612.074312 292.787055 
L 614.285435 313.356055 
L 616.496558 305.951861 
L 618.810524 311.700518 
L 621.021647 321.459736 
L 623.23277 317.938672 
L 625.392471 316.517087 
L 627.603594 320.800164 
L 630.020403 321.484241 
L 632.231526 324.314594 
L 634.442648 320.918933 
L 636.653771 320.435377 
L 638.967737 319.244584 
L 641.127439 319.734891 
L 643.338561 314.714059 
L 645.498263 321.292142 
L 647.760807 317.229415 
L 649.97193 315.520757 
L 652.285896 315.766236 
L 654.497019 311.927218 
L 656.708142 302.165009 
L 658.919265 301.168281 
L 661.130388 301.413513 
L 663.290089 303.51569 
L 665.604055 306.49045 
L 667.918021 306.847088 
L 670.129143 305.578441 
L 674.654232 304.78742 
L 676.865355 306.09427 
L 679.076478 306.955119 
L 681.236179 304.027051 
L 683.652988 307.610929 
L 685.915532 313.380771 
L 688.28092 314.825597 
L 692.703165 317.234142 
L 694.914288 317.691599 
L 697.07399 316.171766 
L 701.444814 317.002986 
L 703.810201 316.715406 
L 706.072746 317.040628 
L 708.283869 316.048494 
L 710.597834 314.554392 
L 712.808957 314.0509 
L 717.231203 314.359816 
L 719.390904 313.959679 
L 721.602027 312.566249 
L 724.018836 312.575609 
L 726.229959 311.588408 
L 728.441082 312.703989 
L 732.966171 309.372894 
L 735.125872 307.452739 
L 737.336995 307.757876 
L 739.496696 308.635155 
L 741.913505 304.653647 
L 744.176049 309.028122 
L 746.387172 311.142419 
L 748.546874 308.055625 
L 750.757997 309.598134 
L 753.071962 310.172468 
L 755.283085 310.855593 
L 757.442787 312.929399 
L 759.65391 313.033368 
L 762.070718 309.150311 
L 764.281841 309.492988 
L 766.492964 309.33043 
L 768.704087 308.47531 
L 770.91521 304.96719 
L 773.229176 303.007349 
L 775.388877 300.502658 
L 777.6 298.790046 
L 777.6 298.790046 
" style="fill:none;stroke:#ff7f0e;stroke-linecap:square;stroke-width:2.275;"/>
   </g>
   <g id="patch_21">
    <path d="M 473.236364 460.8 
L 473.236364 282.763636 
" style="fill:none;stroke:#000000;stroke-linecap:square;stroke-linejoin:miter;stroke-width:0.8;"/>
   </g>
   <g id="patch_22">
    <path d="M 777.6 460.8 
L 777.6 282.763636 
" style="fill:none;stroke:#000000;stroke-linecap:square;stroke-linejoin:miter;stroke-width:0.8;"/>
   </g>
   <g id="patch_23">
    <path d="M 473.236364 460.8 
L 777.6 460.8 
" style="fill:none;stroke:#000000;stroke-linecap:square;stroke-linejoin:miter;stroke-width:0.8;"/>
   </g>
   <g id="patch_24">
    <path d="M 473.236364 282.763636 
L 777.6 282.763636 
" style="fill:none;stroke:#000000;stroke-linecap:square;stroke-linejoin:miter;stroke-width:0.8;"/>
   </g>
   <g id="text_47">
    <!-- Internal regret - optimal eta -->
    <g transform="translate(516.343713 276.763636)scale(0.156 -0.156)">
     <use xlink:href="#DejaVuSans-49"/>
     <use x="29.492188" xlink:href="#DejaVuSans-6e"/>
     <use x="92.871094" xlink:href="#DejaVuSans-74"/>
     <use x="132.080078" xlink:href="#DejaVuSans-65"/>
     <use x="193.603516" xlink:href="#DejaVuSans-72"/>
     <use x="234.701172" xlink:href="#DejaVuSans-6e"/>
     <use x="298.080078" xlink:href="#DejaVuSans-61"/>
     <use x="359.359375" xlink:href="#DejaVuSans-6c"/>
     <use x="387.142578" xlink:href="#DejaVuSans-20"/>
     <use x="418.929688" xlink:href="#DejaVuSans-72"/>
     <use x="460.011719" xlink:href="#DejaVuSans-65"/>
     <use x="521.535156" xlink:href="#DejaVuSans-67"/>
     <use x="585.011719" xlink:href="#DejaVuSans-72"/>
     <use x="626.09375" xlink:href="#DejaVuSans-65"/>
     <use x="687.617188" xlink:href="#DejaVuSans-74"/>
     <use x="726.826172" xlink:href="#DejaVuSans-20"/>
     <use x="758.613281" xlink:href="#DejaVuSans-2d"/>
     <use x="794.697266" xlink:href="#DejaVuSans-20"/>
     <use x="826.484375" xlink:href="#DejaVuSans-6f"/>
     <use x="887.666016" xlink:href="#DejaVuSans-70"/>
     <use x="951.142578" xlink:href="#DejaVuSans-74"/>
     <use x="990.351562" xlink:href="#DejaVuSans-69"/>
     <use x="1018.134766" xlink:href="#DejaVuSans-6d"/>
     <use x="1115.546875" xlink:href="#DejaVuSans-61"/>
     <use x="1176.826172" xlink:href="#DejaVuSans-6c"/>
     <use x="1204.609375" xlink:href="#DejaVuSans-20"/>
     <use x="1236.396484" xlink:href="#DejaVuSans-65"/>
     <use x="1297.919922" xlink:href="#DejaVuSans-74"/>
     <use x="1337.128906" xlink:href="#DejaVuSans-61"/>
    </g>
   </g>
   <g id="legend_4">
    <g id="patch_25">
     <path d="M 482.336364 331.326761 
L 573.923395 331.326761 
Q 576.523395 331.326761 576.523395 328.726761 
L 576.523395 291.863636 
Q 576.523395 289.263636 573.923395 289.263636 
L 482.336364 289.263636 
Q 479.736364 289.263636 479.736364 291.863636 
L 479.736364 328.726761 
Q 479.736364 331.326761 482.336364 331.326761 
z
" style="fill:#ffffff;opacity:0.8;stroke:#cccccc;stroke-linejoin:miter;stroke-width:0.39;"/>
    </g>
    <g id="line2d_96">
     <path d="M 484.936364 299.791605 
L 510.936364 299.791605 
" style="fill:none;stroke:#1f77b4;stroke-linecap:square;stroke-width:2.275;"/>
    </g>
    <g id="line2d_97"/>
    <g id="text_48">
     <!-- EG -->
     <g transform="translate(521.336364 304.341605)scale(0.13 -0.13)">
      <use xlink:href="#DejaVuSans-45"/>
      <use x="63.183594" xlink:href="#DejaVuSans-47"/>
     </g>
    </g>
    <g id="line2d_98">
     <path d="M 484.936364 318.873168 
L 510.936364 318.873168 
" style="fill:none;stroke:#ff7f0e;stroke-linecap:square;stroke-width:2.275;"/>
    </g>
    <g id="line2d_99"/>
    <g id="text_49">
     <!-- BP1EXP -->
     <g transform="translate(521.336364 323.423168)scale(0.13 -0.13)">
      <use xlink:href="#DejaVuSans-42"/>
      <use x="68.603516" xlink:href="#DejaVuSans-50"/>
      <use x="128.90625" xlink:href="#DejaVuSans-31"/>
      <use x="192.529297" xlink:href="#DejaVuSans-45"/>
      <use x="255.712891" xlink:href="#DejaVuSans-58"/>
      <use x="324.21875" xlink:href="#DejaVuSans-50"/>
     </g>
    </g>
   </g>
  </g>
  <g id="text_50">
   <!-- EG vs BP1EXP - Monthly rebalancing - averaged over 100 choices of 10 stocks -->
   <defs>
    <path d="M 2.984375 54.6875 
L 12.5 54.6875 
L 29.59375 8.796875 
L 46.6875 54.6875 
L 56.203125 54.6875 
L 35.6875 0 
L 23.484375 0 
z
" id="DejaVuSans-76"/>
    <path d="M 44.28125 53.078125 
L 44.28125 44.578125 
Q 40.484375 46.53125 36.375 47.5 
Q 32.28125 48.484375 27.875 48.484375 
Q 21.1875 48.484375 17.84375 46.4375 
Q 14.5 44.390625 14.5 40.28125 
Q 14.5 37.15625 16.890625 35.375 
Q 19.28125 33.59375 26.515625 31.984375 
L 29.59375 31.296875 
Q 39.15625 29.25 43.1875 25.515625 
Q 47.21875 21.78125 47.21875 15.09375 
Q 47.21875 7.46875 41.1875 3.015625 
Q 35.15625 -1.421875 24.609375 -1.421875 
Q 20.21875 -1.421875 15.453125 -0.5625 
Q 10.6875 0.296875 5.421875 2 
L 5.421875 11.28125 
Q 10.40625 8.6875 15.234375 7.390625 
Q 20.0625 6.109375 24.8125 6.109375 
Q 31.15625 6.109375 34.5625 8.28125 
Q 37.984375 10.453125 37.984375 14.40625 
Q 37.984375 18.0625 35.515625 20.015625 
Q 33.0625 21.96875 24.703125 23.78125 
L 21.578125 24.515625 
Q 13.234375 26.265625 9.515625 29.90625 
Q 5.8125 33.546875 5.8125 39.890625 
Q 5.8125 47.609375 11.28125 51.796875 
Q 16.75 56 26.8125 56 
Q 31.78125 56 36.171875 55.265625 
Q 40.578125 54.546875 44.28125 53.078125 
z
" id="DejaVuSans-73"/>
    <path d="M 9.8125 72.90625 
L 24.515625 72.90625 
L 43.109375 23.296875 
L 61.8125 72.90625 
L 76.515625 72.90625 
L 76.515625 0 
L 66.890625 0 
L 66.890625 64.015625 
L 48.09375 14.015625 
L 38.1875 14.015625 
L 19.390625 64.015625 
L 19.390625 0 
L 9.8125 0 
z
" id="DejaVuSans-4d"/>
    <path d="M 32.171875 -5.078125 
Q 28.375 -14.84375 24.75 -17.8125 
Q 21.140625 -20.796875 15.09375 -20.796875 
L 7.90625 -20.796875 
L 7.90625 -13.28125 
L 13.1875 -13.28125 
Q 16.890625 -13.28125 18.9375 -11.515625 
Q 21 -9.765625 23.484375 -3.21875 
L 25.09375 0.875 
L 2.984375 54.6875 
L 12.5 54.6875 
L 29.59375 11.921875 
L 46.6875 54.6875 
L 56.203125 54.6875 
z
" id="DejaVuSans-79"/>
    <path d="M 48.6875 27.296875 
Q 48.6875 37.203125 44.609375 42.84375 
Q 40.53125 48.484375 33.40625 48.484375 
Q 26.265625 48.484375 22.1875 42.84375 
Q 18.109375 37.203125 18.109375 27.296875 
Q 18.109375 17.390625 22.1875 11.75 
Q 26.265625 6.109375 33.40625 6.109375 
Q 40.53125 6.109375 44.609375 11.75 
Q 48.6875 17.390625 48.6875 27.296875 
z
M 18.109375 46.390625 
Q 20.953125 51.265625 25.265625 53.625 
Q 29.59375 56 35.59375 56 
Q 45.5625 56 51.78125 48.09375 
Q 58.015625 40.1875 58.015625 27.296875 
Q 58.015625 14.40625 51.78125 6.484375 
Q 45.5625 -1.421875 35.59375 -1.421875 
Q 29.59375 -1.421875 25.265625 0.953125 
Q 20.953125 3.328125 18.109375 8.203125 
L 18.109375 0 
L 9.078125 0 
L 9.078125 75.984375 
L 18.109375 75.984375 
z
" id="DejaVuSans-62"/>
    <path d="M 45.40625 46.390625 
L 45.40625 75.984375 
L 54.390625 75.984375 
L 54.390625 0 
L 45.40625 0 
L 45.40625 8.203125 
Q 42.578125 3.328125 38.25 0.953125 
Q 33.9375 -1.421875 27.875 -1.421875 
Q 17.96875 -1.421875 11.734375 6.484375 
Q 5.515625 14.40625 5.515625 27.296875 
Q 5.515625 40.1875 11.734375 48.09375 
Q 17.96875 56 27.875 56 
Q 33.9375 56 38.25 53.625 
Q 42.578125 51.265625 45.40625 46.390625 
z
M 14.796875 27.296875 
Q 14.796875 17.390625 18.875 11.75 
Q 22.953125 6.109375 30.078125 6.109375 
Q 37.203125 6.109375 41.296875 11.75 
Q 45.40625 17.390625 45.40625 27.296875 
Q 45.40625 37.203125 41.296875 42.84375 
Q 37.203125 48.484375 30.078125 48.484375 
Q 22.953125 48.484375 18.875 42.84375 
Q 14.796875 37.203125 14.796875 27.296875 
z
" id="DejaVuSans-64"/>
    <path d="M 9.078125 75.984375 
L 18.109375 75.984375 
L 18.109375 31.109375 
L 44.921875 54.6875 
L 56.390625 54.6875 
L 27.390625 29.109375 
L 57.625 0 
L 45.90625 0 
L 18.109375 26.703125 
L 18.109375 0 
L 9.078125 0 
z
" id="DejaVuSans-6b"/>
   </defs>
   <g transform="translate(79.610625 25.197187)scale(0.18 -0.18)">
    <use xlink:href="#DejaVuSans-45"/>
    <use x="63.183594" xlink:href="#DejaVuSans-47"/>
    <use x="140.673828" xlink:href="#DejaVuSans-20"/>
    <use x="172.460938" xlink:href="#DejaVuSans-76"/>
    <use x="231.640625" xlink:href="#DejaVuSans-73"/>
    <use x="283.740234" xlink:href="#DejaVuSans-20"/>
    <use x="315.527344" xlink:href="#DejaVuSans-42"/>
    <use x="384.130859" xlink:href="#DejaVuSans-50"/>
    <use x="444.433594" xlink:href="#DejaVuSans-31"/>
    <use x="508.056641" xlink:href="#DejaVuSans-45"/>
    <use x="571.240234" xlink:href="#DejaVuSans-58"/>
    <use x="639.746094" xlink:href="#DejaVuSans-50"/>
    <use x="700.048828" xlink:href="#DejaVuSans-20"/>
    <use x="731.835938" xlink:href="#DejaVuSans-2d"/>
    <use x="767.919922" xlink:href="#DejaVuSans-20"/>
    <use x="799.707031" xlink:href="#DejaVuSans-4d"/>
    <use x="885.986328" xlink:href="#DejaVuSans-6f"/>
    <use x="947.167969" xlink:href="#DejaVuSans-6e"/>
    <use x="1010.546875" xlink:href="#DejaVuSans-74"/>
    <use x="1049.755859" xlink:href="#DejaVuSans-68"/>
    <use x="1113.134766" xlink:href="#DejaVuSans-6c"/>
    <use x="1140.917969" xlink:href="#DejaVuSans-79"/>
    <use x="1200.097656" xlink:href="#DejaVuSans-20"/>
    <use x="1231.884766" xlink:href="#DejaVuSans-72"/>
    <use x="1272.966797" xlink:href="#DejaVuSans-65"/>
    <use x="1334.490234" xlink:href="#DejaVuSans-62"/>
    <use x="1397.966797" xlink:href="#DejaVuSans-61"/>
    <use x="1459.246094" xlink:href="#DejaVuSans-6c"/>
    <use x="1487.029297" xlink:href="#DejaVuSans-61"/>
    <use x="1548.308594" xlink:href="#DejaVuSans-6e"/>
    <use x="1611.6875" xlink:href="#DejaVuSans-63"/>
    <use x="1666.667969" xlink:href="#DejaVuSans-69"/>
    <use x="1694.451172" xlink:href="#DejaVuSans-6e"/>
    <use x="1757.830078" xlink:href="#DejaVuSans-67"/>
    <use x="1821.306641" xlink:href="#DejaVuSans-20"/>
    <use x="1853.09375" xlink:href="#DejaVuSans-2d"/>
    <use x="1889.177734" xlink:href="#DejaVuSans-20"/>
    <use x="1920.964844" xlink:href="#DejaVuSans-61"/>
    <use x="1982.244141" xlink:href="#DejaVuSans-76"/>
    <use x="2041.423828" xlink:href="#DejaVuSans-65"/>
    <use x="2102.947266" xlink:href="#DejaVuSans-72"/>
    <use x="2144.060547" xlink:href="#DejaVuSans-61"/>
    <use x="2205.339844" xlink:href="#DejaVuSans-67"/>
    <use x="2268.816406" xlink:href="#DejaVuSans-65"/>
    <use x="2330.339844" xlink:href="#DejaVuSans-64"/>
    <use x="2393.816406" xlink:href="#DejaVuSans-20"/>
    <use x="2425.603516" xlink:href="#DejaVuSans-6f"/>
    <use x="2486.785156" xlink:href="#DejaVuSans-76"/>
    <use x="2545.964844" xlink:href="#DejaVuSans-65"/>
    <use x="2607.488281" xlink:href="#DejaVuSans-72"/>
    <use x="2648.601562" xlink:href="#DejaVuSans-20"/>
    <use x="2680.388672" xlink:href="#DejaVuSans-31"/>
    <use x="2744.011719" xlink:href="#DejaVuSans-30"/>
    <use x="2807.634766" xlink:href="#DejaVuSans-30"/>
    <use x="2871.257812" xlink:href="#DejaVuSans-20"/>
    <use x="2903.044922" xlink:href="#DejaVuSans-63"/>
    <use x="2958.025391" xlink:href="#DejaVuSans-68"/>
    <use x="3021.404297" xlink:href="#DejaVuSans-6f"/>
    <use x="3082.585938" xlink:href="#DejaVuSans-69"/>
    <use x="3110.369141" xlink:href="#DejaVuSans-63"/>
    <use x="3165.349609" xlink:href="#DejaVuSans-65"/>
    <use x="3226.873047" xlink:href="#DejaVuSans-73"/>
    <use x="3278.972656" xlink:href="#DejaVuSans-20"/>
    <use x="3310.759766" xlink:href="#DejaVuSans-6f"/>
    <use x="3371.941406" xlink:href="#DejaVuSans-66"/>
    <use x="3407.146484" xlink:href="#DejaVuSans-20"/>
    <use x="3438.933594" xlink:href="#DejaVuSans-31"/>
    <use x="3502.556641" xlink:href="#DejaVuSans-30"/>
    <use x="3566.179688" xlink:href="#DejaVuSans-20"/>
    <use x="3597.966797" xlink:href="#DejaVuSans-73"/>
    <use x="3650.066406" xlink:href="#DejaVuSans-74"/>
    <use x="3689.275391" xlink:href="#DejaVuSans-6f"/>
    <use x="3750.457031" xlink:href="#DejaVuSans-63"/>
    <use x="3805.4375" xlink:href="#DejaVuSans-6b"/>
    <use x="3863.347656" xlink:href="#DejaVuSans-73"/>
   </g>
  </g>
 </g>
 <defs>
  <clipPath id="pe474d8c3b0">
   <rect height="178.036364" width="304.363636" x="108" y="69.12"/>
  </clipPath>
  <clipPath id="pcbc17a95dc">
   <rect height="178.036364" width="304.363636" x="473.236364" y="69.12"/>
  </clipPath>
  <clipPath id="p131806fb88">
   <rect height="178.036364" width="304.363636" x="108" y="282.763636"/>
  </clipPath>
  <clipPath id="p7b8caeb97f">
   <rect height="178.036364" width="304.363636" x="473.236364" y="282.763636"/>
  </clipPath>
 </defs>
</svg>
