<?xml version="1.0" encoding="utf-8" standalone="no"?>
<!DOCTYPE svg PUBLIC "-//W3C//DTD SVG 1.1//EN"
  "http://www.w3.org/Graphics/SVG/1.1/DTD/svg11.dtd">
<!-- Created with matplotlib (http://matplotlib.org/) -->
<svg height="576pt" version="1.1" viewBox="0 0 864 576" width="864pt" xmlns="http://www.w3.org/2000/svg" xmlns:xlink="http://www.w3.org/1999/xlink">
 <defs>
  <style type="text/css">
*{stroke-linecap:butt;stroke-linejoin:round;}
  </style>
 </defs>
 <g id="figure_1">
  <g id="patch_1">
   <path d="M 0 576 
L 864 576 
L 864 0 
L 0 0 
z
" style="fill:#ffffff;"/>
  </g>
  <g id="axes_1">
   <g id="patch_2">
    <path d="M 108 247.156364 
L 412.363636 247.156364 
L 412.363636 69.12 
L 108 69.12 
z
" style="fill:#eaeaf2;"/>
   </g>
   <g id="matplotlib.axis_1">
    <g id="xtick_1">
     <g id="line2d_1">
      <path clip-path="url(#pfb27416631)" d="M 132.013823 247.156364 
L 132.013823 69.12 
" style="fill:none;stroke:#ffffff;stroke-linecap:round;stroke-width:1.3;"/>
     </g>
     <g id="line2d_2"/>
    </g>
    <g id="xtick_2">
     <g id="line2d_3">
      <path clip-path="url(#pfb27416631)" d="M 169.602912 247.156364 
L 169.602912 69.12 
" style="fill:none;stroke:#ffffff;stroke-linecap:round;stroke-width:1.3;"/>
     </g>
     <g id="line2d_4"/>
    </g>
    <g id="xtick_3">
     <g id="line2d_5">
      <path clip-path="url(#pfb27416631)" d="M 207.14058 247.156364 
L 207.14058 69.12 
" style="fill:none;stroke:#ffffff;stroke-linecap:round;stroke-width:1.3;"/>
     </g>
     <g id="line2d_6"/>
    </g>
    <g id="xtick_4">
     <g id="line2d_7">
      <path clip-path="url(#pfb27416631)" d="M 244.729669 247.156364 
L 244.729669 69.12 
" style="fill:none;stroke:#ffffff;stroke-linecap:round;stroke-width:1.3;"/>
     </g>
     <g id="line2d_8"/>
    </g>
    <g id="xtick_5">
     <g id="line2d_9">
      <path clip-path="url(#pfb27416631)" d="M 282.267336 247.156364 
L 282.267336 69.12 
" style="fill:none;stroke:#ffffff;stroke-linecap:round;stroke-width:1.3;"/>
     </g>
     <g id="line2d_10"/>
    </g>
    <g id="xtick_6">
     <g id="line2d_11">
      <path clip-path="url(#pfb27416631)" d="M 319.856425 247.156364 
L 319.856425 69.12 
" style="fill:none;stroke:#ffffff;stroke-linecap:round;stroke-width:1.3;"/>
     </g>
     <g id="line2d_12"/>
    </g>
    <g id="xtick_7">
     <g id="line2d_13">
      <path clip-path="url(#pfb27416631)" d="M 357.394093 247.156364 
L 357.394093 69.12 
" style="fill:none;stroke:#ffffff;stroke-linecap:round;stroke-width:1.3;"/>
     </g>
     <g id="line2d_14"/>
    </g>
    <g id="xtick_8">
     <g id="line2d_15">
      <path clip-path="url(#pfb27416631)" d="M 394.983182 247.156364 
L 394.983182 69.12 
" style="fill:none;stroke:#ffffff;stroke-linecap:round;stroke-width:1.3;"/>
     </g>
     <g id="line2d_16"/>
    </g>
    <g id="xtick_9">
     <g id="line2d_17"/>
    </g>
    <g id="xtick_10">
     <g id="line2d_18"/>
    </g>
    <g id="xtick_11">
     <g id="line2d_19"/>
    </g>
    <g id="xtick_12">
     <g id="line2d_20"/>
    </g>
    <g id="xtick_13">
     <g id="line2d_21"/>
    </g>
    <g id="xtick_14">
     <g id="line2d_22"/>
    </g>
   </g>
   <g id="matplotlib.axis_2">
    <g id="ytick_1">
     <g id="line2d_23">
      <path clip-path="url(#pfb27416631)" d="M 108 234.160722 
L 412.363636 234.160722 
" style="fill:none;stroke:#ffffff;stroke-linecap:round;stroke-width:1.3;"/>
     </g>
     <g id="line2d_24"/>
     <g id="text_1">
      <!-- 1 -->
      <defs>
       <path d="M 37.25 0 
L 28.46875 0 
L 28.46875 56 
Q 25.296875 52.984375 20.140625 49.953125 
Q 14.984375 46.921875 10.890625 45.40625 
L 10.890625 53.90625 
Q 18.265625 57.375 23.78125 62.296875 
Q 29.296875 67.234375 31.59375 71.875 
L 37.25 71.875 
z
" id="ArialMT-31"/>
      </defs>
      <g style="fill:#262626;" transform="translate(91.670781 238.8133)scale(0.13 -0.13)">
       <use xlink:href="#ArialMT-31"/>
      </g>
     </g>
    </g>
    <g id="ytick_2">
     <g id="line2d_25">
      <path clip-path="url(#pfb27416631)" d="M 108 186.244913 
L 412.363636 186.244913 
" style="fill:none;stroke:#ffffff;stroke-linecap:round;stroke-width:1.3;"/>
     </g>
     <g id="line2d_26"/>
     <g id="text_2">
      <!-- 2 -->
      <defs>
       <path d="M 50.34375 8.453125 
L 50.34375 0 
L 3.03125 0 
Q 2.9375 3.171875 4.046875 6.109375 
Q 5.859375 10.9375 9.828125 15.625 
Q 13.8125 20.3125 21.34375 26.46875 
Q 33.015625 36.03125 37.109375 41.625 
Q 41.21875 47.21875 41.21875 52.203125 
Q 41.21875 57.421875 37.46875 61 
Q 33.734375 64.59375 27.734375 64.59375 
Q 21.390625 64.59375 17.578125 60.78125 
Q 13.765625 56.984375 13.71875 50.25 
L 4.6875 51.171875 
Q 5.609375 61.28125 11.65625 66.578125 
Q 17.71875 71.875 27.9375 71.875 
Q 38.234375 71.875 44.234375 66.15625 
Q 50.25 60.453125 50.25 52 
Q 50.25 47.703125 48.484375 43.546875 
Q 46.734375 39.40625 42.65625 34.8125 
Q 38.578125 30.21875 29.109375 22.21875 
Q 21.1875 15.578125 18.9375 13.203125 
Q 16.703125 10.84375 15.234375 8.453125 
z
" id="ArialMT-32"/>
      </defs>
      <g style="fill:#262626;" transform="translate(91.670781 190.897491)scale(0.13 -0.13)">
       <use xlink:href="#ArialMT-32"/>
      </g>
     </g>
    </g>
    <g id="ytick_3">
     <g id="line2d_27">
      <path clip-path="url(#pfb27416631)" d="M 108 138.329103 
L 412.363636 138.329103 
" style="fill:none;stroke:#ffffff;stroke-linecap:round;stroke-width:1.3;"/>
     </g>
     <g id="line2d_28"/>
     <g id="text_3">
      <!-- 3 -->
      <defs>
       <path d="M 4.203125 18.890625 
L 12.984375 20.0625 
Q 14.5 12.59375 18.140625 9.296875 
Q 21.78125 6 27 6 
Q 33.203125 6 37.46875 10.296875 
Q 41.75 14.59375 41.75 20.953125 
Q 41.75 27 37.796875 30.921875 
Q 33.84375 34.859375 27.734375 34.859375 
Q 25.25 34.859375 21.53125 33.890625 
L 22.515625 41.609375 
Q 23.390625 41.5 23.921875 41.5 
Q 29.546875 41.5 34.03125 44.421875 
Q 38.53125 47.359375 38.53125 53.46875 
Q 38.53125 58.296875 35.25 61.46875 
Q 31.984375 64.65625 26.8125 64.65625 
Q 21.6875 64.65625 18.265625 61.421875 
Q 14.84375 58.203125 13.875 51.765625 
L 5.078125 53.328125 
Q 6.6875 62.15625 12.390625 67.015625 
Q 18.109375 71.875 26.609375 71.875 
Q 32.46875 71.875 37.390625 69.359375 
Q 42.328125 66.84375 44.9375 62.5 
Q 47.5625 58.15625 47.5625 53.265625 
Q 47.5625 48.640625 45.0625 44.828125 
Q 42.578125 41.015625 37.703125 38.765625 
Q 44.046875 37.3125 47.5625 32.6875 
Q 51.078125 28.078125 51.078125 21.140625 
Q 51.078125 11.765625 44.234375 5.25 
Q 37.40625 -1.265625 26.953125 -1.265625 
Q 17.53125 -1.265625 11.296875 4.34375 
Q 5.078125 9.96875 4.203125 18.890625 
z
" id="ArialMT-33"/>
      </defs>
      <g style="fill:#262626;" transform="translate(91.670781 142.981682)scale(0.13 -0.13)">
       <use xlink:href="#ArialMT-33"/>
      </g>
     </g>
    </g>
    <g id="ytick_4">
     <g id="line2d_29">
      <path clip-path="url(#pfb27416631)" d="M 108 90.413294 
L 412.363636 90.413294 
" style="fill:none;stroke:#ffffff;stroke-linecap:round;stroke-width:1.3;"/>
     </g>
     <g id="line2d_30"/>
     <g id="text_4">
      <!-- 4 -->
      <defs>
       <path d="M 32.328125 0 
L 32.328125 17.140625 
L 1.265625 17.140625 
L 1.265625 25.203125 
L 33.9375 71.578125 
L 41.109375 71.578125 
L 41.109375 25.203125 
L 50.78125 25.203125 
L 50.78125 17.140625 
L 41.109375 17.140625 
L 41.109375 0 
z
M 32.328125 25.203125 
L 32.328125 57.46875 
L 9.90625 25.203125 
z
" id="ArialMT-34"/>
      </defs>
      <g style="fill:#262626;" transform="translate(91.670781 95.065872)scale(0.13 -0.13)">
       <use xlink:href="#ArialMT-34"/>
      </g>
     </g>
    </g>
   </g>
   <g id="line2d_31">
    <path clip-path="url(#pfb27416631)" d="M 108 229.672017 
L 110.159701 226.756226 
L 112.473667 226.002534 
L 114.787633 223.918788 
L 116.998756 227.710375 
L 119.312722 229.019485 
L 121.523845 238.28663 
L 123.734968 235.222056 
L 125.94609 236.79212 
L 128.105792 233.097326 
L 130.316915 231.044698 
L 132.682302 236.372906 
L 134.944846 235.624065 
L 137.104548 232.721418 
L 139.315671 230.886313 
L 141.681058 228.764921 
L 143.840759 227.460591 
L 146.051882 225.36406 
L 148.211584 223.672135 
L 150.474128 221.2753 
L 152.839515 223.779983 
L 155.050638 225.084106 
L 157.261761 224.433071 
L 159.627148 225.380803 
L 161.838271 223.115702 
L 164.049394 222.396855 
L 166.209096 218.756706 
L 168.420218 220.476037 
L 170.785606 217.613154 
L 172.996729 222.93236 
L 177.418974 219.160659 
L 179.630097 219.694407 
L 181.789799 219.174734 
L 186.263466 213.85156 
L 188.577432 211.420645 
L 190.788555 210.619393 
L 193.10252 213.442497 
L 195.313643 217.087409 
L 197.524766 213.335219 
L 199.735889 213.105601 
L 201.947012 209.601282 
L 204.106713 205.253424 
L 206.420679 201.005337 
L 208.786066 203.692256 
L 211.100032 200.158357 
L 213.311155 199.410776 
L 215.522278 202.938136 
L 217.733401 202.763112 
L 219.944524 200.555982 
L 222.104225 202.961006 
L 224.418191 209.050686 
L 226.680735 213.054607 
L 228.94328 212.299081 
L 231.257246 207.572482 
L 233.468368 214.459979 
L 235.679491 213.157929 
L 237.839193 220.719083 
L 240.050316 233.552666 
L 244.575404 234.785041 
L 246.837949 233.425135 
L 249.049072 231.748888 
L 251.260194 233.001386 
L 253.57416 226.849638 
L 255.785283 223.349958 
L 257.996406 227.199423 
L 260.156107 222.43688 
L 262.36723 223.380509 
L 264.784039 220.260075 
L 266.995162 216.327289 
L 269.206285 222.691655 
L 273.731374 223.644692 
L 275.891075 217.843727 
L 278.102198 216.712752 
L 280.261899 210.665016 
L 282.524444 207.339048 
L 284.735567 208.399849 
L 287.049532 207.17266 
L 289.260655 207.887295 
L 291.471778 216.829281 
L 293.682901 220.232655 
L 295.894024 214.633746 
L 298.053725 217.059753 
L 300.367691 207.602756 
L 302.681657 204.746745 
L 304.89278 203.392707 
L 307.206746 204.081345 
L 309.417868 204.01301 
L 311.628991 197.516785 
L 313.840114 195.135722 
L 315.999816 195.162591 
L 318.416624 189.612422 
L 320.679169 187.761937 
L 323.044556 183.611481 
L 325.255679 178.641885 
L 327.466802 177.821378 
L 329.677925 179.032284 
L 331.837626 176.074289 
L 334.048749 168.429297 
L 336.20845 165.569982 
L 338.573838 160.445925 
L 340.836382 158.404404 
L 343.047505 154.574443 
L 345.361471 150.976156 
L 347.572594 152.361739 
L 349.783717 145.989558 
L 351.994839 147.245858 
L 354.154541 140.599878 
L 356.365664 137.767603 
L 358.782472 128.816854 
L 360.993595 126.384771 
L 363.204718 128.592236 
L 365.518684 128.811524 
L 367.729807 141.65194 
L 369.889508 141.945972 
L 372.100631 126.737188 
L 374.260333 137.050033 
L 376.677141 137.879048 
L 378.939686 128.765737 
L 381.150809 127.320202 
L 383.31051 124.522668 
L 385.521633 116.081585 
L 387.835599 120.004415 
L 390.046722 129.171865 
L 392.206423 127.068225 
L 394.417546 120.283718 
L 396.834355 116.848379 
L 401.2566 100.452761 
L 403.467723 99.462097 
L 405.678846 96.601048 
L 407.992812 89.184439 
L 410.152513 89.771376 
L 412.363636 77.212562 
L 412.363636 77.212562 
" style="fill:none;stroke:#4c72b0;stroke-linecap:round;stroke-width:2.275;"/>
   </g>
   <g id="line2d_32">
    <path clip-path="url(#pfb27416631)" d="M 108 229.672017 
L 110.159701 226.896527 
L 112.473667 226.229814 
L 114.787633 224.050576 
L 116.998756 228.473579 
L 119.312722 229.646158 
L 121.523845 239.063802 
L 123.734968 236.350471 
L 125.94609 237.769081 
L 128.105792 233.056246 
L 130.316915 231.565322 
L 132.682302 237.099535 
L 134.944846 236.606848 
L 137.104548 232.446444 
L 139.315671 229.777733 
L 143.840759 226.999282 
L 148.211584 223.395354 
L 150.474128 220.857129 
L 152.839515 223.744817 
L 155.050638 224.254293 
L 157.261761 223.971295 
L 159.627148 225.326366 
L 161.838271 223.005248 
L 164.049394 222.724123 
L 166.209096 219.220534 
L 168.420218 220.462638 
L 170.785606 217.838131 
L 172.996729 222.463128 
L 175.207851 220.093441 
L 177.418974 218.267823 
L 179.630097 218.638503 
L 181.789799 218.660596 
L 184.103764 216.207464 
L 186.263466 214.317921 
L 188.577432 212.144948 
L 190.788555 211.41808 
L 193.10252 213.425932 
L 195.313643 216.695127 
L 197.524766 213.541288 
L 199.735889 212.10132 
L 201.947012 208.842416 
L 204.106713 204.597744 
L 206.420679 200.45898 
L 208.786066 202.936883 
L 211.100032 199.354591 
L 213.311155 198.246696 
L 215.522278 202.012165 
L 217.733401 202.345858 
L 219.944524 200.404994 
L 222.104225 202.376295 
L 224.418191 209.3061 
L 226.680735 213.16387 
L 228.94328 212.870945 
L 231.257246 208.714359 
L 233.468368 216.247685 
L 235.679491 213.777044 
L 237.839193 219.211315 
L 240.050316 232.937105 
L 242.210017 233.169565 
L 244.575404 235.361252 
L 246.837949 234.497121 
L 249.049072 230.375145 
L 251.260194 232.599794 
L 253.57416 226.191246 
L 255.785283 221.978701 
L 257.996406 225.870865 
L 260.156107 220.683864 
L 262.36723 221.17139 
L 264.784039 217.688701 
L 266.995162 213.484634 
L 269.206285 220.848675 
L 271.417408 220.928857 
L 273.731374 221.181075 
L 275.891075 215.181311 
L 278.102198 214.597024 
L 280.261899 208.452487 
L 282.524444 204.968316 
L 284.735567 205.499139 
L 287.049532 204.388635 
L 289.260655 205.308646 
L 291.471778 215.198714 
L 293.682901 218.060841 
L 295.894024 212.076134 
L 298.053725 214.901822 
L 300.367691 205.543985 
L 302.681657 201.631978 
L 304.89278 200.769067 
L 307.206746 202.530019 
L 309.417868 201.854911 
L 311.628991 195.204322 
L 313.840114 192.826819 
L 315.999816 193.855006 
L 318.416624 188.081577 
L 320.679169 185.754617 
L 323.044556 181.810234 
L 325.255679 176.34736 
L 327.466802 175.280955 
L 329.677925 176.845219 
L 331.837626 174.567159 
L 334.048749 166.331532 
L 336.20845 164.235278 
L 338.573838 160.527345 
L 340.836382 157.578267 
L 343.047505 154.078672 
L 345.361471 151.050203 
L 347.572594 152.871222 
L 349.783717 147.21508 
L 351.994839 148.12427 
L 354.154541 143.919083 
L 356.365664 141.771078 
L 358.782472 134.443033 
L 360.993595 132.231402 
L 363.204718 134.268685 
L 365.518684 134.161997 
L 367.729807 147.018248 
L 369.889508 145.641194 
L 372.100631 132.531179 
L 374.260333 143.159249 
L 376.677141 143.452156 
L 378.939686 133.649886 
L 381.150809 131.038786 
L 383.31051 127.512349 
L 385.521633 120.181905 
L 387.835599 123.868236 
L 390.046722 130.669845 
L 392.206423 125.105844 
L 394.417546 120.133943 
L 396.834355 116.462766 
L 399.045478 110.190456 
L 401.2566 102.416449 
L 403.467723 101.659699 
L 405.678846 99.914173 
L 407.992812 92.884987 
L 410.152513 91.937377 
L 412.363636 81.398125 
L 412.363636 81.398125 
" style="fill:none;stroke:#55a868;stroke-linecap:round;stroke-width:2.275;"/>
   </g>
   <g id="patch_3">
    <path d="M 108 247.156364 
L 108 69.12 
" style="fill:none;"/>
   </g>
   <g id="patch_4">
    <path d="M 412.363636 247.156364 
L 412.363636 69.12 
" style="fill:none;"/>
   </g>
   <g id="patch_5">
    <path d="M 108 247.156364 
L 412.363636 247.156364 
" style="fill:none;"/>
   </g>
   <g id="patch_6">
    <path d="M 108 69.12 
L 412.363636 69.12 
" style="fill:none;"/>
   </g>
   <g id="text_5">
    <!-- Wealth factor - eta=2 -->
    <defs>
     <path d="M 20.21875 0 
L 1.21875 71.578125 
L 10.9375 71.578125 
L 21.828125 24.65625 
Q 23.578125 17.28125 24.859375 10.015625 
Q 27.59375 21.484375 28.078125 23.25 
L 41.703125 71.578125 
L 53.125 71.578125 
L 63.375 35.359375 
Q 67.234375 21.875 68.953125 10.015625 
Q 70.3125 16.796875 72.515625 25.59375 
L 83.734375 71.578125 
L 93.265625 71.578125 
L 73.640625 0 
L 64.5 0 
L 49.421875 54.546875 
Q 47.515625 61.375 47.171875 62.9375 
Q 46.046875 58.015625 45.0625 54.546875 
L 29.890625 0 
z
" id="ArialMT-57"/>
     <path d="M 42.09375 16.703125 
L 51.171875 15.578125 
Q 49.03125 7.625 43.21875 3.21875 
Q 37.40625 -1.171875 28.375 -1.171875 
Q 17 -1.171875 10.328125 5.828125 
Q 3.65625 12.84375 3.65625 25.484375 
Q 3.65625 38.578125 10.390625 45.796875 
Q 17.140625 53.03125 27.875 53.03125 
Q 38.28125 53.03125 44.875 45.953125 
Q 51.46875 38.875 51.46875 26.03125 
Q 51.46875 25.25 51.421875 23.6875 
L 12.75 23.6875 
Q 13.234375 15.140625 17.578125 10.59375 
Q 21.921875 6.0625 28.421875 6.0625 
Q 33.25 6.0625 36.671875 8.59375 
Q 40.09375 11.140625 42.09375 16.703125 
z
M 13.234375 30.90625 
L 42.1875 30.90625 
Q 41.609375 37.453125 38.875 40.71875 
Q 34.671875 45.796875 27.984375 45.796875 
Q 21.921875 45.796875 17.796875 41.75 
Q 13.671875 37.703125 13.234375 30.90625 
z
" id="ArialMT-65"/>
     <path d="M 40.4375 6.390625 
Q 35.546875 2.25 31.03125 0.53125 
Q 26.515625 -1.171875 21.34375 -1.171875 
Q 12.796875 -1.171875 8.203125 3 
Q 3.609375 7.171875 3.609375 13.671875 
Q 3.609375 17.484375 5.34375 20.625 
Q 7.078125 23.78125 9.890625 25.6875 
Q 12.703125 27.59375 16.21875 28.5625 
Q 18.796875 29.25 24.03125 29.890625 
Q 34.671875 31.15625 39.703125 32.90625 
Q 39.75 34.71875 39.75 35.203125 
Q 39.75 40.578125 37.25 42.78125 
Q 33.890625 45.75 27.25 45.75 
Q 21.046875 45.75 18.09375 43.578125 
Q 15.140625 41.40625 13.71875 35.890625 
L 5.125 37.0625 
Q 6.296875 42.578125 8.984375 45.96875 
Q 11.671875 49.359375 16.75 51.1875 
Q 21.828125 53.03125 28.515625 53.03125 
Q 35.15625 53.03125 39.296875 51.46875 
Q 43.453125 49.90625 45.40625 47.53125 
Q 47.359375 45.171875 48.140625 41.546875 
Q 48.578125 39.3125 48.578125 33.453125 
L 48.578125 21.734375 
Q 48.578125 9.46875 49.140625 6.21875 
Q 49.703125 2.984375 51.375 0 
L 42.1875 0 
Q 40.828125 2.734375 40.4375 6.390625 
z
M 39.703125 26.03125 
Q 34.90625 24.078125 25.34375 22.703125 
Q 19.921875 21.921875 17.671875 20.9375 
Q 15.4375 19.96875 14.203125 18.09375 
Q 12.984375 16.21875 12.984375 13.921875 
Q 12.984375 10.40625 15.640625 8.0625 
Q 18.3125 5.71875 23.4375 5.71875 
Q 28.515625 5.71875 32.46875 7.9375 
Q 36.421875 10.15625 38.28125 14.015625 
Q 39.703125 17 39.703125 22.796875 
z
" id="ArialMT-61"/>
     <path d="M 6.390625 0 
L 6.390625 71.578125 
L 15.1875 71.578125 
L 15.1875 0 
z
" id="ArialMT-6c"/>
     <path d="M 25.78125 7.859375 
L 27.046875 0.09375 
Q 23.34375 -0.6875 20.40625 -0.6875 
Q 15.625 -0.6875 12.984375 0.828125 
Q 10.359375 2.34375 9.28125 4.8125 
Q 8.203125 7.28125 8.203125 15.1875 
L 8.203125 45.015625 
L 1.765625 45.015625 
L 1.765625 51.859375 
L 8.203125 51.859375 
L 8.203125 64.703125 
L 16.9375 69.96875 
L 16.9375 51.859375 
L 25.78125 51.859375 
L 25.78125 45.015625 
L 16.9375 45.015625 
L 16.9375 14.703125 
Q 16.9375 10.9375 17.40625 9.859375 
Q 17.875 8.796875 18.921875 8.15625 
Q 19.96875 7.515625 21.921875 7.515625 
Q 23.390625 7.515625 25.78125 7.859375 
z
" id="ArialMT-74"/>
     <path d="M 6.59375 0 
L 6.59375 71.578125 
L 15.375 71.578125 
L 15.375 45.90625 
Q 21.53125 53.03125 30.90625 53.03125 
Q 36.671875 53.03125 40.921875 50.75 
Q 45.171875 48.484375 47 44.484375 
Q 48.828125 40.484375 48.828125 32.859375 
L 48.828125 0 
L 40.046875 0 
L 40.046875 32.859375 
Q 40.046875 39.453125 37.1875 42.453125 
Q 34.328125 45.453125 29.109375 45.453125 
Q 25.203125 45.453125 21.75 43.421875 
Q 18.3125 41.40625 16.84375 37.9375 
Q 15.375 34.46875 15.375 28.375 
L 15.375 0 
z
" id="ArialMT-68"/>
     <path id="ArialMT-20"/>
     <path d="M 8.6875 0 
L 8.6875 45.015625 
L 0.921875 45.015625 
L 0.921875 51.859375 
L 8.6875 51.859375 
L 8.6875 57.375 
Q 8.6875 62.59375 9.625 65.140625 
Q 10.890625 68.5625 14.078125 70.671875 
Q 17.28125 72.796875 23.046875 72.796875 
Q 26.765625 72.796875 31.25 71.921875 
L 29.9375 64.265625 
Q 27.203125 64.75 24.75 64.75 
Q 20.75 64.75 19.09375 63.03125 
Q 17.4375 61.328125 17.4375 56.640625 
L 17.4375 51.859375 
L 27.546875 51.859375 
L 27.546875 45.015625 
L 17.4375 45.015625 
L 17.4375 0 
z
" id="ArialMT-66"/>
     <path d="M 40.4375 19 
L 49.078125 17.875 
Q 47.65625 8.9375 41.8125 3.875 
Q 35.984375 -1.171875 27.484375 -1.171875 
Q 16.84375 -1.171875 10.375 5.78125 
Q 3.90625 12.75 3.90625 25.734375 
Q 3.90625 34.125 6.6875 40.421875 
Q 9.46875 46.734375 15.15625 49.875 
Q 20.84375 53.03125 27.546875 53.03125 
Q 35.984375 53.03125 41.359375 48.75 
Q 46.734375 44.484375 48.25 36.625 
L 39.703125 35.296875 
Q 38.484375 40.53125 35.375 43.15625 
Q 32.28125 45.796875 27.875 45.796875 
Q 21.234375 45.796875 17.078125 41.03125 
Q 12.9375 36.28125 12.9375 25.984375 
Q 12.9375 15.53125 16.9375 10.796875 
Q 20.953125 6.0625 27.390625 6.0625 
Q 32.5625 6.0625 36.03125 9.234375 
Q 39.5 12.40625 40.4375 19 
z
" id="ArialMT-63"/>
     <path d="M 3.328125 25.921875 
Q 3.328125 40.328125 11.328125 47.265625 
Q 18.015625 53.03125 27.640625 53.03125 
Q 38.328125 53.03125 45.109375 46.015625 
Q 51.90625 39.015625 51.90625 26.65625 
Q 51.90625 16.65625 48.90625 10.90625 
Q 45.90625 5.171875 40.15625 2 
Q 34.421875 -1.171875 27.640625 -1.171875 
Q 16.75 -1.171875 10.03125 5.8125 
Q 3.328125 12.796875 3.328125 25.921875 
z
M 12.359375 25.921875 
Q 12.359375 15.96875 16.703125 11.015625 
Q 21.046875 6.0625 27.640625 6.0625 
Q 34.1875 6.0625 38.53125 11.03125 
Q 42.875 16.015625 42.875 26.21875 
Q 42.875 35.84375 38.5 40.796875 
Q 34.125 45.75 27.640625 45.75 
Q 21.046875 45.75 16.703125 40.8125 
Q 12.359375 35.890625 12.359375 25.921875 
z
" id="ArialMT-6f"/>
     <path d="M 6.5 0 
L 6.5 51.859375 
L 14.40625 51.859375 
L 14.40625 44 
Q 17.4375 49.515625 20 51.265625 
Q 22.5625 53.03125 25.640625 53.03125 
Q 30.078125 53.03125 34.671875 50.203125 
L 31.640625 42.046875 
Q 28.421875 43.953125 25.203125 43.953125 
Q 22.3125 43.953125 20.015625 42.21875 
Q 17.71875 40.484375 16.75 37.40625 
Q 15.28125 32.71875 15.28125 27.15625 
L 15.28125 0 
z
" id="ArialMT-72"/>
     <path d="M 3.171875 21.484375 
L 3.171875 30.328125 
L 30.171875 30.328125 
L 30.171875 21.484375 
z
" id="ArialMT-2d"/>
     <path d="M 52.828125 42.09375 
L 5.5625 42.09375 
L 5.5625 50.296875 
L 52.828125 50.296875 
z
M 52.828125 20.359375 
L 5.5625 20.359375 
L 5.5625 28.5625 
L 52.828125 28.5625 
z
" id="ArialMT-3d"/>
    </defs>
    <g style="fill:#262626;" transform="translate(187.568693 63.12)scale(0.156 -0.156)">
     <use xlink:href="#ArialMT-57"/>
     <use x="94.369141" xlink:href="#ArialMT-65"/>
     <use x="149.984375" xlink:href="#ArialMT-61"/>
     <use x="205.599609" xlink:href="#ArialMT-6c"/>
     <use x="227.816406" xlink:href="#ArialMT-74"/>
     <use x="255.599609" xlink:href="#ArialMT-68"/>
     <use x="311.214844" xlink:href="#ArialMT-20"/>
     <use x="338.998047" xlink:href="#ArialMT-66"/>
     <use x="366.78125" xlink:href="#ArialMT-61"/>
     <use x="422.396484" xlink:href="#ArialMT-63"/>
     <use x="472.396484" xlink:href="#ArialMT-74"/>
     <use x="500.179688" xlink:href="#ArialMT-6f"/>
     <use x="555.794922" xlink:href="#ArialMT-72"/>
     <use x="589.095703" xlink:href="#ArialMT-20"/>
     <use x="616.878906" xlink:href="#ArialMT-2d"/>
     <use x="650.179688" xlink:href="#ArialMT-20"/>
     <use x="677.962891" xlink:href="#ArialMT-65"/>
     <use x="733.578125" xlink:href="#ArialMT-74"/>
     <use x="761.361328" xlink:href="#ArialMT-61"/>
     <use x="816.976562" xlink:href="#ArialMT-3d"/>
     <use x="875.375" xlink:href="#ArialMT-32"/>
    </g>
   </g>
   <g id="legend_1">
    <g id="line2d_33">
     <path d="M 119.7 85.575156 
L 145.7 85.575156 
" style="fill:none;stroke:#4c72b0;stroke-linecap:round;stroke-width:2.275;"/>
    </g>
    <g id="line2d_34"/>
    <g id="text_6">
     <!-- EG -->
     <defs>
      <path d="M 7.90625 0 
L 7.90625 71.578125 
L 59.671875 71.578125 
L 59.671875 63.140625 
L 17.390625 63.140625 
L 17.390625 41.21875 
L 56.984375 41.21875 
L 56.984375 32.8125 
L 17.390625 32.8125 
L 17.390625 8.453125 
L 61.328125 8.453125 
L 61.328125 0 
z
" id="ArialMT-45"/>
      <path d="M 41.21875 28.078125 
L 41.21875 36.46875 
L 71.53125 36.53125 
L 71.53125 9.96875 
Q 64.546875 4.390625 57.125 1.578125 
Q 49.703125 -1.21875 41.890625 -1.21875 
Q 31.34375 -1.21875 22.71875 3.296875 
Q 14.109375 7.8125 9.71875 16.359375 
Q 5.328125 24.90625 5.328125 35.453125 
Q 5.328125 45.90625 9.6875 54.953125 
Q 14.0625 64.015625 22.265625 68.40625 
Q 30.46875 72.796875 41.15625 72.796875 
Q 48.921875 72.796875 55.1875 70.28125 
Q 61.46875 67.78125 65.03125 63.28125 
Q 68.609375 58.796875 70.453125 51.5625 
L 61.921875 49.21875 
Q 60.296875 54.6875 57.90625 57.8125 
Q 55.515625 60.9375 51.0625 62.8125 
Q 46.625 64.703125 41.21875 64.703125 
Q 34.71875 64.703125 29.984375 62.71875 
Q 25.25 60.75 22.34375 57.515625 
Q 19.4375 54.296875 17.828125 50.4375 
Q 15.09375 43.796875 15.09375 36.03125 
Q 15.09375 26.46875 18.390625 20.015625 
Q 21.6875 13.578125 27.984375 10.453125 
Q 34.28125 7.328125 41.359375 7.328125 
Q 47.515625 7.328125 53.375 9.6875 
Q 59.234375 12.0625 62.25 14.75 
L 62.25 28.078125 
z
" id="ArialMT-47"/>
     </defs>
     <g style="fill:#262626;" transform="translate(156.1 90.125156)scale(0.13 -0.13)">
      <use xlink:href="#ArialMT-45"/>
      <use x="66.699219" xlink:href="#ArialMT-47"/>
     </g>
    </g>
    <g id="line2d_35">
     <path d="M 119.7 103.964062 
L 145.7 103.964062 
" style="fill:none;stroke:#55a868;stroke-linecap:round;stroke-width:2.275;"/>
    </g>
    <g id="line2d_36"/>
    <g id="text_7">
     <!-- BP1EXP -->
     <defs>
      <path d="M 7.328125 0 
L 7.328125 71.578125 
L 34.1875 71.578125 
Q 42.390625 71.578125 47.34375 69.40625 
Q 52.296875 67.234375 55.09375 62.71875 
Q 57.90625 58.203125 57.90625 53.265625 
Q 57.90625 48.6875 55.421875 44.625 
Q 52.9375 40.578125 47.90625 38.09375 
Q 54.390625 36.1875 57.875 31.59375 
Q 61.375 27 61.375 20.75 
Q 61.375 15.71875 59.25 11.390625 
Q 57.125 7.078125 54 4.734375 
Q 50.875 2.390625 46.15625 1.1875 
Q 41.453125 0 34.625 0 
z
M 16.796875 41.5 
L 32.28125 41.5 
Q 38.578125 41.5 41.3125 42.328125 
Q 44.921875 43.40625 46.75 45.890625 
Q 48.578125 48.390625 48.578125 52.15625 
Q 48.578125 55.71875 46.875 58.421875 
Q 45.171875 61.140625 41.984375 62.140625 
Q 38.8125 63.140625 31.109375 63.140625 
L 16.796875 63.140625 
z
M 16.796875 8.453125 
L 34.625 8.453125 
Q 39.203125 8.453125 41.0625 8.796875 
Q 44.34375 9.375 46.53125 10.734375 
Q 48.734375 12.109375 50.140625 14.71875 
Q 51.5625 17.328125 51.5625 20.75 
Q 51.5625 24.75 49.515625 27.703125 
Q 47.46875 30.671875 43.828125 31.859375 
Q 40.1875 33.0625 33.34375 33.0625 
L 16.796875 33.0625 
z
" id="ArialMT-42"/>
      <path d="M 7.71875 0 
L 7.71875 71.578125 
L 34.71875 71.578125 
Q 41.84375 71.578125 45.609375 70.90625 
Q 50.875 70.015625 54.4375 67.546875 
Q 58.015625 65.09375 60.1875 60.640625 
Q 62.359375 56.203125 62.359375 50.875 
Q 62.359375 41.75 56.546875 35.421875 
Q 50.734375 29.109375 35.546875 29.109375 
L 17.1875 29.109375 
L 17.1875 0 
z
M 17.1875 37.546875 
L 35.6875 37.546875 
Q 44.875 37.546875 48.734375 40.96875 
Q 52.59375 44.390625 52.59375 50.59375 
Q 52.59375 55.078125 50.3125 58.265625 
Q 48.046875 61.46875 44.34375 62.5 
Q 41.9375 63.140625 35.5 63.140625 
L 17.1875 63.140625 
z
" id="ArialMT-50"/>
      <path d="M 0.4375 0 
L 28.125 37.3125 
L 3.71875 71.578125 
L 14.984375 71.578125 
L 27.984375 53.21875 
Q 32.03125 47.515625 33.734375 44.4375 
Q 36.140625 48.34375 39.40625 52.59375 
L 53.8125 71.578125 
L 64.109375 71.578125 
L 38.96875 37.84375 
L 66.0625 0 
L 54.34375 0 
L 36.328125 25.53125 
Q 34.8125 27.734375 33.203125 30.328125 
Q 30.8125 26.421875 29.78125 24.953125 
L 11.8125 0 
z
" id="ArialMT-58"/>
     </defs>
     <g style="fill:#262626;" transform="translate(156.1 108.514062)scale(0.13 -0.13)">
      <use xlink:href="#ArialMT-42"/>
      <use x="66.699219" xlink:href="#ArialMT-50"/>
      <use x="133.398438" xlink:href="#ArialMT-31"/>
      <use x="189.013672" xlink:href="#ArialMT-45"/>
      <use x="255.712891" xlink:href="#ArialMT-58"/>
      <use x="322.412109" xlink:href="#ArialMT-50"/>
     </g>
    </g>
   </g>
  </g>
  <g id="axes_2">
   <g id="patch_7">
    <path d="M 473.236364 247.156364 
L 777.6 247.156364 
L 777.6 69.12 
L 473.236364 69.12 
z
" style="fill:#eaeaf2;"/>
   </g>
   <g id="matplotlib.axis_3">
    <g id="xtick_15">
     <g id="line2d_37">
      <path clip-path="url(#pcfbd22f202)" d="M 497.250187 247.156364 
L 497.250187 69.12 
" style="fill:none;stroke:#ffffff;stroke-linecap:round;stroke-width:1.3;"/>
     </g>
     <g id="line2d_38"/>
    </g>
    <g id="xtick_16">
     <g id="line2d_39">
      <path clip-path="url(#pcfbd22f202)" d="M 534.839276 247.156364 
L 534.839276 69.12 
" style="fill:none;stroke:#ffffff;stroke-linecap:round;stroke-width:1.3;"/>
     </g>
     <g id="line2d_40"/>
    </g>
    <g id="xtick_17">
     <g id="line2d_41">
      <path clip-path="url(#pcfbd22f202)" d="M 572.376943 247.156364 
L 572.376943 69.12 
" style="fill:none;stroke:#ffffff;stroke-linecap:round;stroke-width:1.3;"/>
     </g>
     <g id="line2d_42"/>
    </g>
    <g id="xtick_18">
     <g id="line2d_43">
      <path clip-path="url(#pcfbd22f202)" d="M 609.966032 247.156364 
L 609.966032 69.12 
" style="fill:none;stroke:#ffffff;stroke-linecap:round;stroke-width:1.3;"/>
     </g>
     <g id="line2d_44"/>
    </g>
    <g id="xtick_19">
     <g id="line2d_45">
      <path clip-path="url(#pcfbd22f202)" d="M 647.5037 247.156364 
L 647.5037 69.12 
" style="fill:none;stroke:#ffffff;stroke-linecap:round;stroke-width:1.3;"/>
     </g>
     <g id="line2d_46"/>
    </g>
    <g id="xtick_20">
     <g id="line2d_47">
      <path clip-path="url(#pcfbd22f202)" d="M 685.092789 247.156364 
L 685.092789 69.12 
" style="fill:none;stroke:#ffffff;stroke-linecap:round;stroke-width:1.3;"/>
     </g>
     <g id="line2d_48"/>
    </g>
    <g id="xtick_21">
     <g id="line2d_49">
      <path clip-path="url(#pcfbd22f202)" d="M 722.630457 247.156364 
L 722.630457 69.12 
" style="fill:none;stroke:#ffffff;stroke-linecap:round;stroke-width:1.3;"/>
     </g>
     <g id="line2d_50"/>
    </g>
    <g id="xtick_22">
     <g id="line2d_51">
      <path clip-path="url(#pcfbd22f202)" d="M 760.219546 247.156364 
L 760.219546 69.12 
" style="fill:none;stroke:#ffffff;stroke-linecap:round;stroke-width:1.3;"/>
     </g>
     <g id="line2d_52"/>
    </g>
    <g id="xtick_23">
     <g id="line2d_53"/>
    </g>
    <g id="xtick_24">
     <g id="line2d_54"/>
    </g>
    <g id="xtick_25">
     <g id="line2d_55"/>
    </g>
    <g id="xtick_26">
     <g id="line2d_56"/>
    </g>
    <g id="xtick_27">
     <g id="line2d_57"/>
    </g>
    <g id="xtick_28">
     <g id="line2d_58"/>
    </g>
   </g>
   <g id="matplotlib.axis_4">
    <g id="ytick_5">
     <g id="line2d_59">
      <path clip-path="url(#pcfbd22f202)" d="M 473.236364 221.033881 
L 777.6 221.033881 
" style="fill:none;stroke:#ffffff;stroke-linecap:round;stroke-width:1.3;"/>
     </g>
     <g id="line2d_60"/>
     <g id="text_8">
      <!-- 0.1 -->
      <defs>
       <path d="M 4.15625 35.296875 
Q 4.15625 48 6.765625 55.734375 
Q 9.375 63.484375 14.515625 67.671875 
Q 19.671875 71.875 27.484375 71.875 
Q 33.25 71.875 37.59375 69.546875 
Q 41.9375 67.234375 44.765625 62.859375 
Q 47.609375 58.5 49.21875 52.21875 
Q 50.828125 45.953125 50.828125 35.296875 
Q 50.828125 22.703125 48.234375 14.96875 
Q 45.65625 7.234375 40.5 3 
Q 35.359375 -1.21875 27.484375 -1.21875 
Q 17.140625 -1.21875 11.234375 6.203125 
Q 4.15625 15.140625 4.15625 35.296875 
z
M 13.1875 35.296875 
Q 13.1875 17.671875 17.3125 11.828125 
Q 21.4375 6 27.484375 6 
Q 33.546875 6 37.671875 11.859375 
Q 41.796875 17.71875 41.796875 35.296875 
Q 41.796875 52.984375 37.671875 58.78125 
Q 33.546875 64.59375 27.390625 64.59375 
Q 21.34375 64.59375 17.71875 59.46875 
Q 13.1875 52.9375 13.1875 35.296875 
z
" id="ArialMT-30"/>
       <path d="M 9.078125 0 
L 9.078125 10.015625 
L 19.09375 10.015625 
L 19.09375 0 
z
" id="ArialMT-2e"/>
      </defs>
      <g style="fill:#262626;" transform="translate(446.066364 225.686459)scale(0.13 -0.13)">
       <use xlink:href="#ArialMT-30"/>
       <use x="55.615234" xlink:href="#ArialMT-2e"/>
       <use x="83.398438" xlink:href="#ArialMT-31"/>
      </g>
     </g>
    </g>
    <g id="ytick_6">
     <g id="line2d_61">
      <path clip-path="url(#pcfbd22f202)" d="M 473.236364 180.481471 
L 777.6 180.481471 
" style="fill:none;stroke:#ffffff;stroke-linecap:round;stroke-width:1.3;"/>
     </g>
     <g id="line2d_62"/>
     <g id="text_9">
      <!-- 0.2 -->
      <g style="fill:#262626;" transform="translate(446.066364 185.134049)scale(0.13 -0.13)">
       <use xlink:href="#ArialMT-30"/>
       <use x="55.615234" xlink:href="#ArialMT-2e"/>
       <use x="83.398438" xlink:href="#ArialMT-32"/>
      </g>
     </g>
    </g>
    <g id="ytick_7">
     <g id="line2d_63">
      <path clip-path="url(#pcfbd22f202)" d="M 473.236364 139.929061 
L 777.6 139.929061 
" style="fill:none;stroke:#ffffff;stroke-linecap:round;stroke-width:1.3;"/>
     </g>
     <g id="line2d_64"/>
     <g id="text_10">
      <!-- 0.3 -->
      <g style="fill:#262626;" transform="translate(446.066364 144.581639)scale(0.13 -0.13)">
       <use xlink:href="#ArialMT-30"/>
       <use x="55.615234" xlink:href="#ArialMT-2e"/>
       <use x="83.398438" xlink:href="#ArialMT-33"/>
      </g>
     </g>
    </g>
    <g id="ytick_8">
     <g id="line2d_65">
      <path clip-path="url(#pcfbd22f202)" d="M 473.236364 99.376651 
L 777.6 99.376651 
" style="fill:none;stroke:#ffffff;stroke-linecap:round;stroke-width:1.3;"/>
     </g>
     <g id="line2d_66"/>
     <g id="text_11">
      <!-- 0.4 -->
      <g style="fill:#262626;" transform="translate(446.066364 104.029229)scale(0.13 -0.13)">
       <use xlink:href="#ArialMT-30"/>
       <use x="55.615234" xlink:href="#ArialMT-2e"/>
       <use x="83.398438" xlink:href="#ArialMT-34"/>
      </g>
     </g>
    </g>
   </g>
   <g id="line2d_67">
    <path clip-path="url(#pcfbd22f202)" d="M 473.236364 239.063802 
L 475.396065 230.059933 
L 477.710031 225.836646 
L 480.023997 222.414784 
L 482.23512 211.155372 
L 484.549085 211.655236 
L 486.760208 206.714774 
L 488.971331 205.683591 
L 491.182454 205.027013 
L 493.342155 209.010238 
L 495.553278 205.083456 
L 497.918666 196.005226 
L 500.18121 195.752951 
L 502.340911 201.522074 
L 504.552034 204.561116 
L 506.917422 200.368247 
L 509.077123 201.077 
L 511.288246 198.788536 
L 513.447947 196.894532 
L 515.710492 198.290507 
L 518.075879 195.420896 
L 520.287002 197.137248 
L 522.498125 194.568251 
L 524.863512 190.746237 
L 527.074635 189.913759 
L 529.285758 188.533692 
L 531.445459 190.037311 
L 533.656582 193.05598 
L 536.021969 190.015097 
L 538.233092 191.609141 
L 540.444215 193.006275 
L 542.655338 191.713187 
L 544.866461 191.768117 
L 547.026162 190.691813 
L 549.340128 190.615274 
L 551.49983 188.916544 
L 553.813795 186.016316 
L 556.024918 187.850604 
L 558.338884 189.415827 
L 560.550007 188.97102 
L 562.76113 184.711809 
L 564.972253 187.961068 
L 567.183376 186.696848 
L 569.343077 187.794083 
L 571.657043 186.569665 
L 574.02243 186.487918 
L 576.336396 186.651472 
L 578.547519 189.041024 
L 580.758642 184.595881 
L 582.969765 182.771639 
L 585.180887 183.736934 
L 587.340589 183.774416 
L 589.654555 172.275475 
L 591.917099 172.257426 
L 594.179643 169.21717 
L 596.493609 169.225178 
L 598.704732 166.705902 
L 600.915855 166.427688 
L 603.075556 169.838304 
L 605.286679 144.067867 
L 607.446381 137.83466 
L 609.811768 132.81883 
L 612.074312 130.853342 
L 614.285435 138.684395 
L 616.496558 129.707273 
L 618.810524 131.623392 
L 621.021647 136.23383 
L 623.23277 127.989087 
L 625.392471 129.069717 
L 627.603594 130.376321 
L 630.020403 132.826935 
L 632.231526 141.02398 
L 634.442648 128.208337 
L 636.653771 128.179519 
L 638.967737 134.791702 
L 641.127439 136.173568 
L 643.338561 138.416198 
L 645.498263 146.863178 
L 647.760807 147.495226 
L 649.97193 137.903255 
L 652.285896 131.05608 
L 654.497019 128.995864 
L 656.708142 120.707291 
L 658.919265 121.433171 
L 661.130388 121.908178 
L 663.290089 128.001727 
L 665.604055 132.098671 
L 667.918021 122.969611 
L 670.129143 120.68555 
L 672.443109 117.324361 
L 674.654232 116.581781 
L 676.865355 120.152769 
L 679.076478 119.242947 
L 681.236179 113.076267 
L 683.652988 111.307159 
L 685.915532 115.686239 
L 688.28092 102.524974 
L 690.492043 107.609936 
L 692.703165 108.092782 
L 694.914288 106.292406 
L 697.07399 103.030668 
L 699.285113 104.348298 
L 701.444814 102.375132 
L 703.810201 102.080762 
L 706.072746 104.770494 
L 708.283869 100.77702 
L 710.597834 99.878572 
L 712.808957 93.652369 
L 715.02008 92.565347 
L 717.231203 91.312382 
L 719.390904 89.169899 
L 721.602027 87.979394 
L 726.229959 87.054682 
L 728.441082 87.736716 
L 730.755048 84.448007 
L 732.966171 84.854011 
L 735.125872 85.941216 
L 737.336995 84.96542 
L 739.496696 83.533916 
L 741.913505 82.827093 
L 744.176049 85.329791 
L 746.387172 87.132538 
L 748.546874 87.573597 
L 750.757997 87.844116 
L 753.071962 86.059797 
L 755.283085 86.738731 
L 757.442787 92.093179 
L 759.65391 88.077191 
L 762.070718 84.044942 
L 764.281841 82.701726 
L 766.492964 82.213943 
L 768.704087 83.465809 
L 770.91521 82.341117 
L 773.229176 77.212562 
L 775.388877 80.534425 
L 777.6 78.023872 
L 777.6 78.023872 
" style="fill:none;stroke:#4c72b0;stroke-linecap:round;stroke-width:2.275;"/>
   </g>
   <g id="line2d_68">
    <path clip-path="url(#pcfbd22f202)" d="M 473.236364 239.063802 
L 475.396065 228.379605 
L 477.710031 223.079858 
L 480.023997 220.416445 
L 482.23512 202.781881 
L 484.549085 201.155322 
L 486.760208 194.619038 
L 488.971331 196.342682 
L 491.182454 197.020888 
L 493.342155 203.382636 
L 495.553278 199.828808 
L 497.918666 194.839377 
L 500.18121 192.232117 
L 502.340911 199.824591 
L 504.552034 203.512241 
L 506.917422 196.074399 
L 509.077123 196.517266 
L 511.288246 191.880703 
L 513.447947 193.768568 
L 515.710492 193.24196 
L 518.075879 189.943719 
L 520.287002 192.727774 
L 522.498125 189.495922 
L 524.863512 184.379506 
L 527.074635 183.507886 
L 529.285758 181.589029 
L 531.445459 182.467979 
L 533.656582 185.335231 
L 536.021969 184.676455 
L 538.233092 188.306338 
L 540.444215 189.749819 
L 542.655338 187.247949 
L 544.866461 188.369364 
L 547.026162 185.199775 
L 549.340128 181.503996 
L 551.49983 179.350093 
L 553.813795 176.071439 
L 556.024918 174.838702 
L 558.338884 175.929557 
L 560.550007 175.940575 
L 562.76113 173.265969 
L 564.972253 177.518972 
L 567.183376 176.817007 
L 569.343077 175.155154 
L 571.657043 175.668609 
L 574.02243 176.914925 
L 576.336396 178.489748 
L 578.547519 178.612498 
L 582.969765 176.610895 
L 585.180887 176.085893 
L 587.340589 177.200059 
L 589.654555 169.388942 
L 591.917099 170.15743 
L 596.493609 160.909829 
L 598.704732 157.19567 
L 600.915855 165.801434 
L 603.075556 175.194634 
L 605.286679 153.454531 
L 607.446381 144.92384 
L 609.811768 130.828787 
L 612.074312 128.92775 
L 614.285435 145.42804 
L 616.496558 133.392803 
L 618.810524 137.761023 
L 621.021647 144.250651 
L 623.23277 136.330835 
L 625.392471 136.339689 
L 627.603594 138.531491 
L 630.020403 141.538714 
L 632.231526 147.483857 
L 634.442648 135.759803 
L 636.653771 136.774091 
L 638.967737 142.083441 
L 641.127439 145.677621 
L 643.338561 144.340296 
L 645.498263 147.957857 
L 647.760807 150.16561 
L 649.97193 145.620343 
L 652.285896 141.462252 
L 654.497019 140.960699 
L 656.708142 133.161022 
L 658.919265 134.222561 
L 661.130388 134.763123 
L 663.290089 136.081806 
L 665.604055 138.702029 
L 667.918021 137.249107 
L 670.129143 133.830241 
L 672.443109 128.463249 
L 674.654232 129.658056 
L 676.865355 132.767421 
L 679.076478 133.665554 
L 681.236179 129.122385 
L 683.652988 129.354827 
L 685.915532 136.373724 
L 688.28092 132.42884 
L 690.492043 139.195543 
L 692.703165 140.040369 
L 694.914288 137.439025 
L 697.07399 134.458627 
L 699.285113 135.245709 
L 701.444814 131.021458 
L 703.810201 131.810056 
L 706.072746 133.955983 
L 708.283869 132.133259 
L 710.597834 131.519461 
L 712.808957 126.447764 
L 715.02008 123.575139 
L 717.231203 120.909852 
L 719.390904 118.855807 
L 721.602027 119.104632 
L 724.018836 116.420987 
L 726.229959 116.377336 
L 728.441082 114.851963 
L 730.755048 110.244413 
L 732.966171 112.730687 
L 735.125872 116.634552 
L 737.336995 111.613237 
L 739.496696 112.716296 
L 741.913505 116.17575 
L 744.176049 117.885508 
L 746.387172 119.112751 
L 748.546874 117.081921 
L 750.757997 116.878203 
L 753.071962 118.08735 
L 755.283085 121.576978 
L 757.442787 128.663494 
L 759.65391 125.136237 
L 762.070718 120.549044 
L 764.281841 120.244856 
L 766.492964 119.691525 
L 768.704087 119.666279 
L 770.91521 117.099417 
L 773.229176 113.913818 
L 775.388877 116.500461 
L 777.6 114.014962 
L 777.6 114.014962 
" style="fill:none;stroke:#55a868;stroke-linecap:round;stroke-width:2.275;"/>
   </g>
   <g id="patch_8">
    <path d="M 473.236364 247.156364 
L 473.236364 69.12 
" style="fill:none;"/>
   </g>
   <g id="patch_9">
    <path d="M 777.6 247.156364 
L 777.6 69.12 
" style="fill:none;"/>
   </g>
   <g id="patch_10">
    <path d="M 473.236364 247.156364 
L 777.6 247.156364 
" style="fill:none;"/>
   </g>
   <g id="patch_11">
    <path d="M 473.236364 69.12 
L 777.6 69.12 
" style="fill:none;"/>
   </g>
   <g id="text_12">
    <!-- Internal regret - eta=2 -->
    <defs>
     <path d="M 9.328125 0 
L 9.328125 71.578125 
L 18.796875 71.578125 
L 18.796875 0 
z
" id="ArialMT-49"/>
     <path d="M 6.59375 0 
L 6.59375 51.859375 
L 14.5 51.859375 
L 14.5 44.484375 
Q 20.21875 53.03125 31 53.03125 
Q 35.6875 53.03125 39.625 51.34375 
Q 43.5625 49.65625 45.515625 46.921875 
Q 47.46875 44.1875 48.25 40.4375 
Q 48.734375 37.984375 48.734375 31.890625 
L 48.734375 0 
L 39.9375 0 
L 39.9375 31.546875 
Q 39.9375 36.921875 38.90625 39.578125 
Q 37.890625 42.234375 35.28125 43.8125 
Q 32.671875 45.40625 29.15625 45.40625 
Q 23.53125 45.40625 19.453125 41.84375 
Q 15.375 38.28125 15.375 28.328125 
L 15.375 0 
z
" id="ArialMT-6e"/>
     <path d="M 4.984375 -4.296875 
L 13.53125 -5.5625 
Q 14.0625 -9.515625 16.5 -11.328125 
Q 19.78125 -13.765625 25.4375 -13.765625 
Q 31.546875 -13.765625 34.859375 -11.328125 
Q 38.1875 -8.890625 39.359375 -4.5 
Q 40.046875 -1.8125 39.984375 6.78125 
Q 34.234375 0 25.640625 0 
Q 14.9375 0 9.078125 7.71875 
Q 3.21875 15.4375 3.21875 26.21875 
Q 3.21875 33.640625 5.90625 39.90625 
Q 8.59375 46.1875 13.6875 49.609375 
Q 18.796875 53.03125 25.6875 53.03125 
Q 34.859375 53.03125 40.828125 45.609375 
L 40.828125 51.859375 
L 48.921875 51.859375 
L 48.921875 7.03125 
Q 48.921875 -5.078125 46.453125 -10.125 
Q 44 -15.1875 38.640625 -18.109375 
Q 33.296875 -21.046875 25.484375 -21.046875 
Q 16.21875 -21.046875 10.5 -16.875 
Q 4.78125 -12.703125 4.984375 -4.296875 
z
M 12.25 26.859375 
Q 12.25 16.65625 16.296875 11.96875 
Q 20.359375 7.28125 26.46875 7.28125 
Q 32.515625 7.28125 36.609375 11.9375 
Q 40.71875 16.609375 40.71875 26.5625 
Q 40.71875 36.078125 36.5 40.90625 
Q 32.28125 45.75 26.3125 45.75 
Q 20.453125 45.75 16.34375 40.984375 
Q 12.25 36.234375 12.25 26.859375 
z
" id="ArialMT-67"/>
    </defs>
    <g style="fill:#262626;" transform="translate(550.196932 63.12)scale(0.156 -0.156)">
     <use xlink:href="#ArialMT-49"/>
     <use x="27.783203" xlink:href="#ArialMT-6e"/>
     <use x="83.398438" xlink:href="#ArialMT-74"/>
     <use x="111.181641" xlink:href="#ArialMT-65"/>
     <use x="166.796875" xlink:href="#ArialMT-72"/>
     <use x="200.097656" xlink:href="#ArialMT-6e"/>
     <use x="255.712891" xlink:href="#ArialMT-61"/>
     <use x="311.328125" xlink:href="#ArialMT-6c"/>
     <use x="333.544922" xlink:href="#ArialMT-20"/>
     <use x="361.328125" xlink:href="#ArialMT-72"/>
     <use x="394.628906" xlink:href="#ArialMT-65"/>
     <use x="450.244141" xlink:href="#ArialMT-67"/>
     <use x="505.859375" xlink:href="#ArialMT-72"/>
     <use x="539.160156" xlink:href="#ArialMT-65"/>
     <use x="594.775391" xlink:href="#ArialMT-74"/>
     <use x="622.558594" xlink:href="#ArialMT-20"/>
     <use x="650.341797" xlink:href="#ArialMT-2d"/>
     <use x="683.642578" xlink:href="#ArialMT-20"/>
     <use x="711.425781" xlink:href="#ArialMT-65"/>
     <use x="767.041016" xlink:href="#ArialMT-74"/>
     <use x="794.824219" xlink:href="#ArialMT-61"/>
     <use x="850.439453" xlink:href="#ArialMT-3d"/>
     <use x="908.837891" xlink:href="#ArialMT-32"/>
    </g>
   </g>
   <g id="legend_2">
    <g id="line2d_69">
     <path d="M 484.936364 85.575156 
L 510.936364 85.575156 
" style="fill:none;stroke:#4c72b0;stroke-linecap:round;stroke-width:2.275;"/>
    </g>
    <g id="line2d_70"/>
    <g id="text_13">
     <!-- EG -->
     <g style="fill:#262626;" transform="translate(521.336364 90.125156)scale(0.13 -0.13)">
      <use xlink:href="#ArialMT-45"/>
      <use x="66.699219" xlink:href="#ArialMT-47"/>
     </g>
    </g>
    <g id="line2d_71">
     <path d="M 484.936364 103.964062 
L 510.936364 103.964062 
" style="fill:none;stroke:#55a868;stroke-linecap:round;stroke-width:2.275;"/>
    </g>
    <g id="line2d_72"/>
    <g id="text_14">
     <!-- BP1EXP -->
     <g style="fill:#262626;" transform="translate(521.336364 108.514062)scale(0.13 -0.13)">
      <use xlink:href="#ArialMT-42"/>
      <use x="66.699219" xlink:href="#ArialMT-50"/>
      <use x="133.398438" xlink:href="#ArialMT-31"/>
      <use x="189.013672" xlink:href="#ArialMT-45"/>
      <use x="255.712891" xlink:href="#ArialMT-58"/>
      <use x="322.412109" xlink:href="#ArialMT-50"/>
     </g>
    </g>
   </g>
  </g>
  <g id="axes_3">
   <g id="patch_12">
    <path d="M 108 460.8 
L 412.363636 460.8 
L 412.363636 282.763636 
L 108 282.763636 
z
" style="fill:#eaeaf2;"/>
   </g>
   <g id="matplotlib.axis_5">
    <g id="xtick_29">
     <g id="line2d_73">
      <path clip-path="url(#pdb960dfac0)" d="M 132.013823 460.8 
L 132.013823 282.763636 
" style="fill:none;stroke:#ffffff;stroke-linecap:round;stroke-width:1.3;"/>
     </g>
     <g id="line2d_74"/>
     <g id="text_15">
      <!-- 2003 -->
      <g style="fill:#262626;" transform="translate(105.6792 492.416939)rotate(-30)scale(0.13 -0.13)">
       <use xlink:href="#ArialMT-32"/>
       <use x="55.615234" xlink:href="#ArialMT-30"/>
       <use x="111.230469" xlink:href="#ArialMT-30"/>
       <use x="166.845703" xlink:href="#ArialMT-33"/>
      </g>
     </g>
    </g>
    <g id="xtick_30">
     <g id="line2d_75">
      <path clip-path="url(#pdb960dfac0)" d="M 169.602912 460.8 
L 169.602912 282.763636 
" style="fill:none;stroke:#ffffff;stroke-linecap:round;stroke-width:1.3;"/>
     </g>
     <g id="line2d_76"/>
     <g id="text_16">
      <!-- 2005 -->
      <defs>
       <path d="M 4.15625 18.75 
L 13.375 19.53125 
Q 14.40625 12.796875 18.140625 9.390625 
Q 21.875 6 27.15625 6 
Q 33.5 6 37.890625 10.78125 
Q 42.28125 15.578125 42.28125 23.484375 
Q 42.28125 31 38.0625 35.34375 
Q 33.84375 39.703125 27 39.703125 
Q 22.75 39.703125 19.328125 37.765625 
Q 15.921875 35.84375 13.96875 32.765625 
L 5.71875 33.84375 
L 12.640625 70.609375 
L 48.25 70.609375 
L 48.25 62.203125 
L 19.671875 62.203125 
L 15.828125 42.96875 
Q 22.265625 47.46875 29.34375 47.46875 
Q 38.71875 47.46875 45.15625 40.96875 
Q 51.609375 34.46875 51.609375 24.265625 
Q 51.609375 14.546875 45.953125 7.46875 
Q 39.0625 -1.21875 27.15625 -1.21875 
Q 17.390625 -1.21875 11.203125 4.25 
Q 5.03125 9.71875 4.15625 18.75 
z
" id="ArialMT-35"/>
      </defs>
      <g style="fill:#262626;" transform="translate(143.268289 492.416939)rotate(-30)scale(0.13 -0.13)">
       <use xlink:href="#ArialMT-32"/>
       <use x="55.615234" xlink:href="#ArialMT-30"/>
       <use x="111.230469" xlink:href="#ArialMT-30"/>
       <use x="166.845703" xlink:href="#ArialMT-35"/>
      </g>
     </g>
    </g>
    <g id="xtick_31">
     <g id="line2d_77">
      <path clip-path="url(#pdb960dfac0)" d="M 207.14058 460.8 
L 207.14058 282.763636 
" style="fill:none;stroke:#ffffff;stroke-linecap:round;stroke-width:1.3;"/>
     </g>
     <g id="line2d_78"/>
     <g id="text_17">
      <!-- 2007 -->
      <defs>
       <path d="M 4.734375 62.203125 
L 4.734375 70.65625 
L 51.078125 70.65625 
L 51.078125 63.8125 
Q 44.234375 56.546875 37.515625 44.484375 
Q 30.8125 32.421875 27.15625 19.671875 
Q 24.515625 10.6875 23.78125 0 
L 14.75 0 
Q 14.890625 8.453125 18.0625 20.40625 
Q 21.234375 32.375 27.171875 43.484375 
Q 33.109375 54.59375 39.796875 62.203125 
z
" id="ArialMT-37"/>
      </defs>
      <g style="fill:#262626;" transform="translate(180.805956 492.416939)rotate(-30)scale(0.13 -0.13)">
       <use xlink:href="#ArialMT-32"/>
       <use x="55.615234" xlink:href="#ArialMT-30"/>
       <use x="111.230469" xlink:href="#ArialMT-30"/>
       <use x="166.845703" xlink:href="#ArialMT-37"/>
      </g>
     </g>
    </g>
    <g id="xtick_32">
     <g id="line2d_79">
      <path clip-path="url(#pdb960dfac0)" d="M 244.729669 460.8 
L 244.729669 282.763636 
" style="fill:none;stroke:#ffffff;stroke-linecap:round;stroke-width:1.3;"/>
     </g>
     <g id="line2d_80"/>
     <g id="text_18">
      <!-- 2009 -->
      <defs>
       <path d="M 5.46875 16.546875 
L 13.921875 17.328125 
Q 14.984375 11.375 18.015625 8.6875 
Q 21.046875 6 25.78125 6 
Q 29.828125 6 32.875 7.859375 
Q 35.9375 9.71875 37.890625 12.8125 
Q 39.84375 15.921875 41.15625 21.1875 
Q 42.484375 26.46875 42.484375 31.9375 
Q 42.484375 32.515625 42.4375 33.6875 
Q 39.796875 29.5 35.234375 26.875 
Q 30.671875 24.265625 25.34375 24.265625 
Q 16.453125 24.265625 10.296875 30.703125 
Q 4.15625 37.15625 4.15625 47.703125 
Q 4.15625 58.59375 10.578125 65.234375 
Q 17 71.875 26.65625 71.875 
Q 33.640625 71.875 39.421875 68.109375 
Q 45.21875 64.359375 48.21875 57.390625 
Q 51.21875 50.4375 51.21875 37.25 
Q 51.21875 23.53125 48.234375 15.40625 
Q 45.265625 7.28125 39.375 3.03125 
Q 33.5 -1.21875 25.59375 -1.21875 
Q 17.1875 -1.21875 11.859375 3.4375 
Q 6.546875 8.109375 5.46875 16.546875 
z
M 41.453125 48.140625 
Q 41.453125 55.71875 37.421875 60.15625 
Q 33.40625 64.59375 27.734375 64.59375 
Q 21.875 64.59375 17.53125 59.8125 
Q 13.1875 55.03125 13.1875 47.40625 
Q 13.1875 40.578125 17.3125 36.296875 
Q 21.4375 32.03125 27.484375 32.03125 
Q 33.59375 32.03125 37.515625 36.296875 
Q 41.453125 40.578125 41.453125 48.140625 
z
" id="ArialMT-39"/>
      </defs>
      <g style="fill:#262626;" transform="translate(218.395045 492.416939)rotate(-30)scale(0.13 -0.13)">
       <use xlink:href="#ArialMT-32"/>
       <use x="55.615234" xlink:href="#ArialMT-30"/>
       <use x="111.230469" xlink:href="#ArialMT-30"/>
       <use x="166.845703" xlink:href="#ArialMT-39"/>
      </g>
     </g>
    </g>
    <g id="xtick_33">
     <g id="line2d_81">
      <path clip-path="url(#pdb960dfac0)" d="M 282.267336 460.8 
L 282.267336 282.763636 
" style="fill:none;stroke:#ffffff;stroke-linecap:round;stroke-width:1.3;"/>
     </g>
     <g id="line2d_82"/>
     <g id="text_19">
      <!-- 2011 -->
      <g style="fill:#262626;" transform="translate(255.945027 492.40983)rotate(-30)scale(0.13 -0.13)">
       <use xlink:href="#ArialMT-32"/>
       <use x="55.615234" xlink:href="#ArialMT-30"/>
       <use x="111.230469" xlink:href="#ArialMT-31"/>
       <use x="166.736328" xlink:href="#ArialMT-31"/>
      </g>
     </g>
    </g>
    <g id="xtick_34">
     <g id="line2d_83">
      <path clip-path="url(#pdb960dfac0)" d="M 319.856425 460.8 
L 319.856425 282.763636 
" style="fill:none;stroke:#ffffff;stroke-linecap:round;stroke-width:1.3;"/>
     </g>
     <g id="line2d_84"/>
     <g id="text_20">
      <!-- 2013 -->
      <g style="fill:#262626;" transform="translate(293.521802 492.416939)rotate(-30)scale(0.13 -0.13)">
       <use xlink:href="#ArialMT-32"/>
       <use x="55.615234" xlink:href="#ArialMT-30"/>
       <use x="111.230469" xlink:href="#ArialMT-31"/>
       <use x="166.845703" xlink:href="#ArialMT-33"/>
      </g>
     </g>
    </g>
    <g id="xtick_35">
     <g id="line2d_85">
      <path clip-path="url(#pdb960dfac0)" d="M 357.394093 460.8 
L 357.394093 282.763636 
" style="fill:none;stroke:#ffffff;stroke-linecap:round;stroke-width:1.3;"/>
     </g>
     <g id="line2d_86"/>
     <g id="text_21">
      <!-- 2015 -->
      <g style="fill:#262626;" transform="translate(331.05947 492.416939)rotate(-30)scale(0.13 -0.13)">
       <use xlink:href="#ArialMT-32"/>
       <use x="55.615234" xlink:href="#ArialMT-30"/>
       <use x="111.230469" xlink:href="#ArialMT-31"/>
       <use x="166.845703" xlink:href="#ArialMT-35"/>
      </g>
     </g>
    </g>
    <g id="xtick_36">
     <g id="line2d_87">
      <path clip-path="url(#pdb960dfac0)" d="M 394.983182 460.8 
L 394.983182 282.763636 
" style="fill:none;stroke:#ffffff;stroke-linecap:round;stroke-width:1.3;"/>
     </g>
     <g id="line2d_88"/>
     <g id="text_22">
      <!-- 2017 -->
      <g style="fill:#262626;" transform="translate(368.648559 492.416939)rotate(-30)scale(0.13 -0.13)">
       <use xlink:href="#ArialMT-32"/>
       <use x="55.615234" xlink:href="#ArialMT-30"/>
       <use x="111.230469" xlink:href="#ArialMT-31"/>
       <use x="166.845703" xlink:href="#ArialMT-37"/>
      </g>
     </g>
    </g>
    <g id="xtick_37">
     <g id="line2d_89"/>
    </g>
    <g id="xtick_38">
     <g id="line2d_90"/>
    </g>
    <g id="xtick_39">
     <g id="line2d_91"/>
    </g>
    <g id="xtick_40">
     <g id="line2d_92"/>
    </g>
    <g id="xtick_41">
     <g id="line2d_93"/>
    </g>
    <g id="xtick_42">
     <g id="line2d_94"/>
    </g>
    <g id="text_23">
     <!-- Date -->
     <defs>
      <path d="M 7.71875 0 
L 7.71875 71.578125 
L 32.375 71.578125 
Q 40.71875 71.578125 45.125 70.5625 
Q 51.265625 69.140625 55.609375 65.4375 
Q 61.28125 60.640625 64.078125 53.1875 
Q 66.890625 45.75 66.890625 36.1875 
Q 66.890625 28.03125 64.984375 21.734375 
Q 63.09375 15.4375 60.109375 11.296875 
Q 57.125 7.171875 53.578125 4.796875 
Q 50.046875 2.4375 45.046875 1.21875 
Q 40.046875 0 33.546875 0 
z
M 17.1875 8.453125 
L 32.46875 8.453125 
Q 39.546875 8.453125 43.578125 9.765625 
Q 47.609375 11.078125 50 13.484375 
Q 53.375 16.84375 55.25 22.53125 
Q 57.125 28.21875 57.125 36.328125 
Q 57.125 47.5625 53.4375 53.59375 
Q 49.75 59.625 44.484375 61.671875 
Q 40.671875 63.140625 32.234375 63.140625 
L 17.1875 63.140625 
z
" id="ArialMT-44"/>
     </defs>
     <g style="fill:#262626;" transform="translate(245.079678 508.890204)scale(0.143 -0.143)">
      <use xlink:href="#ArialMT-44"/>
      <use x="72.216797" xlink:href="#ArialMT-61"/>
      <use x="127.832031" xlink:href="#ArialMT-74"/>
      <use x="155.615234" xlink:href="#ArialMT-65"/>
     </g>
    </g>
   </g>
   <g id="matplotlib.axis_6">
    <g id="ytick_9">
     <g id="line2d_95">
      <path clip-path="url(#pdb960dfac0)" d="M 108 447.448801 
L 412.363636 447.448801 
" style="fill:none;stroke:#ffffff;stroke-linecap:round;stroke-width:1.3;"/>
     </g>
     <g id="line2d_96"/>
     <g id="text_24">
      <!-- 1 -->
      <g style="fill:#262626;" transform="translate(91.670781 452.101379)scale(0.13 -0.13)">
       <use xlink:href="#ArialMT-31"/>
      </g>
     </g>
    </g>
    <g id="ytick_10">
     <g id="line2d_97">
      <path clip-path="url(#pdb960dfac0)" d="M 108 401.857289 
L 412.363636 401.857289 
" style="fill:none;stroke:#ffffff;stroke-linecap:round;stroke-width:1.3;"/>
     </g>
     <g id="line2d_98"/>
     <g id="text_25">
      <!-- 2 -->
      <g style="fill:#262626;" transform="translate(91.670781 406.509867)scale(0.13 -0.13)">
       <use xlink:href="#ArialMT-32"/>
      </g>
     </g>
    </g>
    <g id="ytick_11">
     <g id="line2d_99">
      <path clip-path="url(#pdb960dfac0)" d="M 108 356.265777 
L 412.363636 356.265777 
" style="fill:none;stroke:#ffffff;stroke-linecap:round;stroke-width:1.3;"/>
     </g>
     <g id="line2d_100"/>
     <g id="text_26">
      <!-- 3 -->
      <g style="fill:#262626;" transform="translate(91.670781 360.918355)scale(0.13 -0.13)">
       <use xlink:href="#ArialMT-33"/>
      </g>
     </g>
    </g>
    <g id="ytick_12">
     <g id="line2d_101">
      <path clip-path="url(#pdb960dfac0)" d="M 108 310.674264 
L 412.363636 310.674264 
" style="fill:none;stroke:#ffffff;stroke-linecap:round;stroke-width:1.3;"/>
     </g>
     <g id="line2d_102"/>
     <g id="text_27">
      <!-- 4 -->
      <g style="fill:#262626;" transform="translate(91.670781 315.326843)scale(0.13 -0.13)">
       <use xlink:href="#ArialMT-34"/>
      </g>
     </g>
    </g>
   </g>
   <g id="line2d_103">
    <path clip-path="url(#pdb960dfac0)" d="M 108 443.177833 
L 110.159701 440.612358 
L 112.473667 440.052573 
L 114.787633 437.902934 
L 116.998756 442.564925 
L 119.312722 443.577985 
L 121.523845 452.672761 
L 123.734968 450.236683 
L 125.94609 451.489648 
L 128.105792 446.059101 
L 130.316915 444.949182 
L 132.682302 450.318456 
L 134.944846 450.05545 
L 137.104548 445.188734 
L 139.315671 442.042405 
L 141.681058 441.066004 
L 143.840759 439.73347 
L 146.051882 438.116619 
L 148.211584 436.329744 
L 150.474128 433.711013 
L 152.839515 436.831691 
L 157.261761 436.838878 
L 159.627148 438.517024 
L 161.838271 436.23854 
L 164.049394 436.245346 
L 166.209096 432.938731 
L 168.420218 433.777217 
L 170.785606 431.40584 
L 172.996729 435.358372 
L 175.207851 432.806583 
L 177.418974 431.098882 
L 181.789799 431.660594 
L 184.103764 429.611174 
L 186.263466 428.166768 
L 188.577432 426.27777 
L 190.788555 425.644489 
L 193.10252 427.153539 
L 195.313643 430.018097 
L 197.524766 427.453292 
L 199.735889 425.145345 
L 201.947012 422.133553 
L 204.106713 418.169064 
L 206.420679 414.181813 
L 208.786066 416.461217 
L 211.100032 412.821774 
L 213.311155 411.449147 
L 215.522278 415.160395 
L 217.733401 415.809058 
L 219.944524 414.072259 
L 222.104225 415.686391 
L 224.418191 422.848117 
L 226.680735 426.529047 
L 228.94328 426.660762 
L 231.257246 422.991366 
L 233.468368 430.667837 
L 235.679491 426.754397 
L 237.839193 430.36165 
L 240.050316 444.38268 
L 242.210017 444.307386 
L 244.575404 447.906576 
L 246.837949 447.405071 
L 249.049072 440.819113 
L 251.260194 444.050171 
L 253.57416 437.371357 
L 255.785283 432.29752 
L 257.996406 436.327638 
L 260.156107 430.96396 
L 262.36723 431.011939 
L 264.784039 426.891352 
L 266.995162 422.147449 
L 269.206285 430.81696 
L 271.417408 430.49469 
L 273.731374 430.324004 
L 275.891075 423.953651 
L 278.102198 423.933777 
L 280.261899 417.281777 
L 282.524444 413.842942 
L 284.735567 414.202662 
L 287.049532 413.287032 
L 289.260655 414.395537 
L 291.471778 425.590562 
L 293.682901 428.171019 
L 295.894024 421.692319 
L 298.053725 424.705205 
L 300.367691 414.930565 
L 302.681657 409.921718 
L 304.89278 409.722004 
L 307.206746 412.846264 
L 309.417868 411.580552 
L 311.628991 404.472628 
L 313.840114 401.950839 
L 315.999816 404.143942 
L 318.416624 397.862835 
L 323.044556 391.023817 
L 325.255679 384.776666 
L 327.466802 383.47325 
L 329.677925 385.457316 
L 331.837626 384.037953 
L 334.048749 375.171925 
L 336.20845 373.840557 
L 338.573838 370.856803 
L 340.836382 367.280407 
L 343.047505 364.327554 
L 345.361471 362.008426 
L 347.572594 364.29056 
L 349.783717 359.515778 
L 351.994839 360.380375 
L 354.154541 358.517329 
L 356.365664 356.979872 
L 358.782472 351.294926 
L 360.993595 349.07664 
L 363.204718 351.111205 
L 365.518684 351.055145 
L 367.729807 363.347802 
L 369.889508 359.650927 
L 372.100631 349.01896 
L 374.260333 359.518857 
L 376.677141 358.997435 
L 378.939686 347.785361 
L 381.150809 343.521252 
L 383.31051 339.634045 
L 385.521633 332.431266 
L 387.835599 335.627527 
L 390.046722 339.810307 
L 392.206423 330.204302 
L 394.417546 326.87862 
L 396.834355 323.511833 
L 399.045478 318.681574 
L 401.2566 311.238366 
L 403.467723 310.335313 
L 405.678846 309.785596 
L 407.992812 303.517306 
L 410.152513 301.281251 
L 412.363636 292.150247 
L 412.363636 292.150247 
" style="fill:none;stroke:#4c72b0;stroke-linecap:round;stroke-width:2.275;"/>
   </g>
   <g id="line2d_104">
    <path clip-path="url(#pdb960dfac0)" d="M 108 443.177833 
L 110.159701 440.616502 
L 112.473667 440.061864 
L 114.787633 437.906834 
L 116.998756 442.596474 
L 119.312722 443.603979 
L 121.523845 452.707438 
L 123.734968 450.27151 
L 125.94609 451.518082 
L 128.105792 446.031769 
L 130.316915 444.937308 
L 132.682302 450.30654 
L 134.944846 450.054752 
L 137.104548 445.145005 
L 139.315671 441.965787 
L 141.681058 441.009946 
L 143.840759 439.675599 
L 146.051882 438.064946 
L 148.211584 436.267421 
L 150.474128 433.637598 
L 152.839515 436.780699 
L 157.261761 436.778064 
L 159.627148 438.479921 
L 161.838271 436.198838 
L 164.049394 436.220133 
L 166.209096 432.913735 
L 168.420218 433.732885 
L 170.785606 431.367731 
L 172.996729 435.294903 
L 175.207851 432.730247 
L 177.418974 431.025881 
L 181.789799 431.598371 
L 184.103764 429.567804 
L 186.263466 428.141794 
L 188.577432 426.263123 
L 190.788555 425.636242 
L 193.10252 427.12933 
L 195.313643 429.978149 
L 197.524766 427.437135 
L 199.735889 425.077405 
L 201.947012 422.069011 
L 204.106713 418.111609 
L 206.420679 414.11766 
L 208.786066 416.395485 
L 211.100032 412.73375 
L 213.311155 411.34518 
L 215.522278 415.058174 
L 217.733401 415.723547 
L 219.944524 413.991938 
L 222.104225 415.594858 
L 224.418191 422.779501 
L 226.680735 426.466655 
L 228.94328 426.620117 
L 231.257246 422.967045 
L 233.468368 430.6552 
L 235.679491 426.637586 
L 237.839193 430.17338 
L 240.050316 444.240338 
L 242.210017 444.150413 
L 244.575404 447.841644 
L 246.837949 447.358758 
L 249.049072 440.614604 
L 251.260194 443.918361 
L 253.57416 437.197895 
L 255.785283 432.052538 
L 257.996406 436.106852 
L 260.156107 430.72154 
L 262.36723 430.752364 
L 264.784039 426.562809 
L 266.995162 421.7542 
L 269.206285 430.537728 
L 271.417408 430.184455 
L 273.731374 429.989077 
L 275.891075 423.57277 
L 278.102198 423.590793 
L 280.261899 416.873988 
L 282.524444 413.432218 
L 284.735567 413.789862 
L 287.049532 412.878072 
L 289.260655 413.997426 
L 291.471778 425.327068 
L 293.682901 427.917018 
L 295.894024 421.365611 
L 298.053725 424.394259 
L 300.367691 414.537898 
L 302.681657 409.430925 
L 304.89278 409.26545 
L 307.206746 412.474604 
L 309.417868 411.177203 
L 311.628991 403.999766 
L 313.840114 401.428231 
L 315.999816 403.704217 
L 318.416624 397.346408 
L 323.044556 390.38744 
L 325.255679 384.030287 
L 327.466802 382.698014 
L 329.677925 384.732314 
L 331.837626 383.330771 
L 334.048749 374.40707 
L 336.20845 373.088889 
L 338.573838 370.148472 
L 340.836382 366.547937 
L 343.047505 363.604536 
L 345.361471 361.300741 
L 347.572594 363.622141 
L 349.783717 358.815391 
L 351.994839 359.62143 
L 354.154541 357.820493 
L 356.365664 356.325098 
L 358.782472 350.615061 
L 360.993595 348.414255 
L 363.204718 350.448205 
L 365.518684 350.393206 
L 367.729807 362.718497 
L 369.889508 358.914883 
L 372.100631 348.301939 
L 374.260333 358.871841 
L 376.677141 358.372234 
L 378.939686 347.041891 
L 381.150809 342.676818 
L 383.31051 338.806091 
L 385.521633 331.582796 
L 387.835599 334.741754 
L 390.046722 338.775217 
L 392.206423 328.849588 
L 396.834355 322.267 
L 399.045478 317.454334 
L 401.2566 309.966203 
L 403.467723 309.043701 
L 405.678846 308.535481 
L 407.992812 302.252976 
L 410.152513 299.943184 
L 412.363636 290.856198 
L 412.363636 290.856198 
" style="fill:none;stroke:#55a868;stroke-linecap:round;stroke-width:2.275;"/>
   </g>
   <g id="patch_13">
    <path d="M 108 460.8 
L 108 282.763636 
" style="fill:none;"/>
   </g>
   <g id="patch_14">
    <path d="M 412.363636 460.8 
L 412.363636 282.763636 
" style="fill:none;"/>
   </g>
   <g id="patch_15">
    <path d="M 108 460.8 
L 412.363636 460.8 
" style="fill:none;"/>
   </g>
   <g id="patch_16">
    <path d="M 108 282.763636 
L 412.363636 282.763636 
" style="fill:none;"/>
   </g>
   <g id="text_28">
    <!-- Wealth factor - optimal eta -->
    <defs>
     <path d="M 6.59375 -19.875 
L 6.59375 51.859375 
L 14.59375 51.859375 
L 14.59375 45.125 
Q 17.4375 49.078125 21 51.046875 
Q 24.5625 53.03125 29.640625 53.03125 
Q 36.28125 53.03125 41.359375 49.609375 
Q 46.4375 46.1875 49.015625 39.953125 
Q 51.609375 33.734375 51.609375 26.3125 
Q 51.609375 18.359375 48.75 11.984375 
Q 45.90625 5.609375 40.453125 2.21875 
Q 35.015625 -1.171875 29 -1.171875 
Q 24.609375 -1.171875 21.109375 0.6875 
Q 17.625 2.546875 15.375 5.375 
L 15.375 -19.875 
z
M 14.546875 25.640625 
Q 14.546875 15.625 18.59375 10.84375 
Q 22.65625 6.0625 28.421875 6.0625 
Q 34.28125 6.0625 38.453125 11.015625 
Q 42.625 15.96875 42.625 26.375 
Q 42.625 36.28125 38.546875 41.203125 
Q 34.46875 46.140625 28.8125 46.140625 
Q 23.1875 46.140625 18.859375 40.890625 
Q 14.546875 35.640625 14.546875 25.640625 
z
" id="ArialMT-70"/>
     <path d="M 6.640625 61.46875 
L 6.640625 71.578125 
L 15.4375 71.578125 
L 15.4375 61.46875 
z
M 6.640625 0 
L 6.640625 51.859375 
L 15.4375 51.859375 
L 15.4375 0 
z
" id="ArialMT-69"/>
     <path d="M 6.59375 0 
L 6.59375 51.859375 
L 14.453125 51.859375 
L 14.453125 44.578125 
Q 16.890625 48.390625 20.9375 50.703125 
Q 25 53.03125 30.171875 53.03125 
Q 35.9375 53.03125 39.625 50.640625 
Q 43.3125 48.25 44.828125 43.953125 
Q 50.984375 53.03125 60.84375 53.03125 
Q 68.5625 53.03125 72.703125 48.75 
Q 76.859375 44.484375 76.859375 35.59375 
L 76.859375 0 
L 68.109375 0 
L 68.109375 32.671875 
Q 68.109375 37.9375 67.25 40.25 
Q 66.40625 42.578125 64.15625 43.984375 
Q 61.921875 45.40625 58.890625 45.40625 
Q 53.421875 45.40625 49.796875 41.765625 
Q 46.1875 38.140625 46.1875 30.125 
L 46.1875 0 
L 37.40625 0 
L 37.40625 33.6875 
Q 37.40625 39.546875 35.25 42.46875 
Q 33.109375 45.40625 28.21875 45.40625 
Q 24.515625 45.40625 21.359375 43.453125 
Q 18.21875 41.5 16.796875 37.734375 
Q 15.375 33.984375 15.375 26.90625 
L 15.375 0 
z
" id="ArialMT-6d"/>
    </defs>
    <g style="fill:#262626;" transform="translate(169.152162 276.763636)scale(0.156 -0.156)">
     <use xlink:href="#ArialMT-57"/>
     <use x="94.369141" xlink:href="#ArialMT-65"/>
     <use x="149.984375" xlink:href="#ArialMT-61"/>
     <use x="205.599609" xlink:href="#ArialMT-6c"/>
     <use x="227.816406" xlink:href="#ArialMT-74"/>
     <use x="255.599609" xlink:href="#ArialMT-68"/>
     <use x="311.214844" xlink:href="#ArialMT-20"/>
     <use x="338.998047" xlink:href="#ArialMT-66"/>
     <use x="366.78125" xlink:href="#ArialMT-61"/>
     <use x="422.396484" xlink:href="#ArialMT-63"/>
     <use x="472.396484" xlink:href="#ArialMT-74"/>
     <use x="500.179688" xlink:href="#ArialMT-6f"/>
     <use x="555.794922" xlink:href="#ArialMT-72"/>
     <use x="589.095703" xlink:href="#ArialMT-20"/>
     <use x="616.878906" xlink:href="#ArialMT-2d"/>
     <use x="650.179688" xlink:href="#ArialMT-20"/>
     <use x="677.962891" xlink:href="#ArialMT-6f"/>
     <use x="733.578125" xlink:href="#ArialMT-70"/>
     <use x="789.193359" xlink:href="#ArialMT-74"/>
     <use x="816.976562" xlink:href="#ArialMT-69"/>
     <use x="839.193359" xlink:href="#ArialMT-6d"/>
     <use x="922.494141" xlink:href="#ArialMT-61"/>
     <use x="978.109375" xlink:href="#ArialMT-6c"/>
     <use x="1000.326172" xlink:href="#ArialMT-20"/>
     <use x="1028.109375" xlink:href="#ArialMT-65"/>
     <use x="1083.724609" xlink:href="#ArialMT-74"/>
     <use x="1111.507812" xlink:href="#ArialMT-61"/>
    </g>
   </g>
   <g id="legend_3">
    <g id="line2d_105">
     <path d="M 119.7 299.218793 
L 145.7 299.218793 
" style="fill:none;stroke:#4c72b0;stroke-linecap:round;stroke-width:2.275;"/>
    </g>
    <g id="line2d_106"/>
    <g id="text_29">
     <!-- EG -->
     <g style="fill:#262626;" transform="translate(156.1 303.768793)scale(0.13 -0.13)">
      <use xlink:href="#ArialMT-45"/>
      <use x="66.699219" xlink:href="#ArialMT-47"/>
     </g>
    </g>
    <g id="line2d_107">
     <path d="M 119.7 317.607699 
L 145.7 317.607699 
" style="fill:none;stroke:#55a868;stroke-linecap:round;stroke-width:2.275;"/>
    </g>
    <g id="line2d_108"/>
    <g id="text_30">
     <!-- BP1EXP -->
     <g style="fill:#262626;" transform="translate(156.1 322.157699)scale(0.13 -0.13)">
      <use xlink:href="#ArialMT-42"/>
      <use x="66.699219" xlink:href="#ArialMT-50"/>
      <use x="133.398438" xlink:href="#ArialMT-31"/>
      <use x="189.013672" xlink:href="#ArialMT-45"/>
      <use x="255.712891" xlink:href="#ArialMT-58"/>
      <use x="322.412109" xlink:href="#ArialMT-50"/>
     </g>
    </g>
   </g>
  </g>
  <g id="axes_4">
   <g id="patch_17">
    <path d="M 473.236364 460.8 
L 777.6 460.8 
L 777.6 282.763636 
L 473.236364 282.763636 
z
" style="fill:#eaeaf2;"/>
   </g>
   <g id="matplotlib.axis_7">
    <g id="xtick_43">
     <g id="line2d_109">
      <path clip-path="url(#p1e52e3e798)" d="M 497.250187 460.8 
L 497.250187 282.763636 
" style="fill:none;stroke:#ffffff;stroke-linecap:round;stroke-width:1.3;"/>
     </g>
     <g id="line2d_110"/>
     <g id="text_31">
      <!-- 2003 -->
      <g style="fill:#262626;" transform="translate(470.915563 492.416939)rotate(-30)scale(0.13 -0.13)">
       <use xlink:href="#ArialMT-32"/>
       <use x="55.615234" xlink:href="#ArialMT-30"/>
       <use x="111.230469" xlink:href="#ArialMT-30"/>
       <use x="166.845703" xlink:href="#ArialMT-33"/>
      </g>
     </g>
    </g>
    <g id="xtick_44">
     <g id="line2d_111">
      <path clip-path="url(#p1e52e3e798)" d="M 534.839276 460.8 
L 534.839276 282.763636 
" style="fill:none;stroke:#ffffff;stroke-linecap:round;stroke-width:1.3;"/>
     </g>
     <g id="line2d_112"/>
     <g id="text_32">
      <!-- 2005 -->
      <g style="fill:#262626;" transform="translate(508.504652 492.416939)rotate(-30)scale(0.13 -0.13)">
       <use xlink:href="#ArialMT-32"/>
       <use x="55.615234" xlink:href="#ArialMT-30"/>
       <use x="111.230469" xlink:href="#ArialMT-30"/>
       <use x="166.845703" xlink:href="#ArialMT-35"/>
      </g>
     </g>
    </g>
    <g id="xtick_45">
     <g id="line2d_113">
      <path clip-path="url(#p1e52e3e798)" d="M 572.376943 460.8 
L 572.376943 282.763636 
" style="fill:none;stroke:#ffffff;stroke-linecap:round;stroke-width:1.3;"/>
     </g>
     <g id="line2d_114"/>
     <g id="text_33">
      <!-- 2007 -->
      <g style="fill:#262626;" transform="translate(546.04232 492.416939)rotate(-30)scale(0.13 -0.13)">
       <use xlink:href="#ArialMT-32"/>
       <use x="55.615234" xlink:href="#ArialMT-30"/>
       <use x="111.230469" xlink:href="#ArialMT-30"/>
       <use x="166.845703" xlink:href="#ArialMT-37"/>
      </g>
     </g>
    </g>
    <g id="xtick_46">
     <g id="line2d_115">
      <path clip-path="url(#p1e52e3e798)" d="M 609.966032 460.8 
L 609.966032 282.763636 
" style="fill:none;stroke:#ffffff;stroke-linecap:round;stroke-width:1.3;"/>
     </g>
     <g id="line2d_116"/>
     <g id="text_34">
      <!-- 2009 -->
      <g style="fill:#262626;" transform="translate(583.631409 492.416939)rotate(-30)scale(0.13 -0.13)">
       <use xlink:href="#ArialMT-32"/>
       <use x="55.615234" xlink:href="#ArialMT-30"/>
       <use x="111.230469" xlink:href="#ArialMT-30"/>
       <use x="166.845703" xlink:href="#ArialMT-39"/>
      </g>
     </g>
    </g>
    <g id="xtick_47">
     <g id="line2d_117">
      <path clip-path="url(#p1e52e3e798)" d="M 647.5037 460.8 
L 647.5037 282.763636 
" style="fill:none;stroke:#ffffff;stroke-linecap:round;stroke-width:1.3;"/>
     </g>
     <g id="line2d_118"/>
     <g id="text_35">
      <!-- 2011 -->
      <g style="fill:#262626;" transform="translate(621.18139 492.40983)rotate(-30)scale(0.13 -0.13)">
       <use xlink:href="#ArialMT-32"/>
       <use x="55.615234" xlink:href="#ArialMT-30"/>
       <use x="111.230469" xlink:href="#ArialMT-31"/>
       <use x="166.736328" xlink:href="#ArialMT-31"/>
      </g>
     </g>
    </g>
    <g id="xtick_48">
     <g id="line2d_119">
      <path clip-path="url(#p1e52e3e798)" d="M 685.092789 460.8 
L 685.092789 282.763636 
" style="fill:none;stroke:#ffffff;stroke-linecap:round;stroke-width:1.3;"/>
     </g>
     <g id="line2d_120"/>
     <g id="text_36">
      <!-- 2013 -->
      <g style="fill:#262626;" transform="translate(658.758166 492.416939)rotate(-30)scale(0.13 -0.13)">
       <use xlink:href="#ArialMT-32"/>
       <use x="55.615234" xlink:href="#ArialMT-30"/>
       <use x="111.230469" xlink:href="#ArialMT-31"/>
       <use x="166.845703" xlink:href="#ArialMT-33"/>
      </g>
     </g>
    </g>
    <g id="xtick_49">
     <g id="line2d_121">
      <path clip-path="url(#p1e52e3e798)" d="M 722.630457 460.8 
L 722.630457 282.763636 
" style="fill:none;stroke:#ffffff;stroke-linecap:round;stroke-width:1.3;"/>
     </g>
     <g id="line2d_122"/>
     <g id="text_37">
      <!-- 2015 -->
      <g style="fill:#262626;" transform="translate(696.295833 492.416939)rotate(-30)scale(0.13 -0.13)">
       <use xlink:href="#ArialMT-32"/>
       <use x="55.615234" xlink:href="#ArialMT-30"/>
       <use x="111.230469" xlink:href="#ArialMT-31"/>
       <use x="166.845703" xlink:href="#ArialMT-35"/>
      </g>
     </g>
    </g>
    <g id="xtick_50">
     <g id="line2d_123">
      <path clip-path="url(#p1e52e3e798)" d="M 760.219546 460.8 
L 760.219546 282.763636 
" style="fill:none;stroke:#ffffff;stroke-linecap:round;stroke-width:1.3;"/>
     </g>
     <g id="line2d_124"/>
     <g id="text_38">
      <!-- 2017 -->
      <g style="fill:#262626;" transform="translate(733.884922 492.416939)rotate(-30)scale(0.13 -0.13)">
       <use xlink:href="#ArialMT-32"/>
       <use x="55.615234" xlink:href="#ArialMT-30"/>
       <use x="111.230469" xlink:href="#ArialMT-31"/>
       <use x="166.845703" xlink:href="#ArialMT-37"/>
      </g>
     </g>
    </g>
    <g id="xtick_51">
     <g id="line2d_125"/>
    </g>
    <g id="xtick_52">
     <g id="line2d_126"/>
    </g>
    <g id="xtick_53">
     <g id="line2d_127"/>
    </g>
    <g id="xtick_54">
     <g id="line2d_128"/>
    </g>
    <g id="xtick_55">
     <g id="line2d_129"/>
    </g>
    <g id="xtick_56">
     <g id="line2d_130"/>
    </g>
    <g id="text_39">
     <!-- Date -->
     <g style="fill:#262626;" transform="translate(610.316041 508.890204)scale(0.143 -0.143)">
      <use xlink:href="#ArialMT-44"/>
      <use x="72.216797" xlink:href="#ArialMT-61"/>
      <use x="127.832031" xlink:href="#ArialMT-74"/>
      <use x="155.615234" xlink:href="#ArialMT-65"/>
     </g>
    </g>
   </g>
   <g id="matplotlib.axis_8">
    <g id="ytick_13">
     <g id="line2d_131">
      <path clip-path="url(#p1e52e3e798)" d="M 473.236364 431.03282 
L 777.6 431.03282 
" style="fill:none;stroke:#ffffff;stroke-linecap:round;stroke-width:1.3;"/>
     </g>
     <g id="line2d_132"/>
     <g id="text_40">
      <!-- 0.1 -->
      <g style="fill:#262626;" transform="translate(446.066364 435.685398)scale(0.13 -0.13)">
       <use xlink:href="#ArialMT-30"/>
       <use x="55.615234" xlink:href="#ArialMT-2e"/>
       <use x="83.398438" xlink:href="#ArialMT-31"/>
      </g>
     </g>
    </g>
    <g id="ytick_14">
     <g id="line2d_133">
      <path clip-path="url(#p1e52e3e798)" d="M 473.236364 382.282855 
L 777.6 382.282855 
" style="fill:none;stroke:#ffffff;stroke-linecap:round;stroke-width:1.3;"/>
     </g>
     <g id="line2d_134"/>
     <g id="text_41">
      <!-- 0.2 -->
      <g style="fill:#262626;" transform="translate(446.066364 386.935434)scale(0.13 -0.13)">
       <use xlink:href="#ArialMT-30"/>
       <use x="55.615234" xlink:href="#ArialMT-2e"/>
       <use x="83.398438" xlink:href="#ArialMT-32"/>
      </g>
     </g>
    </g>
    <g id="ytick_15">
     <g id="line2d_135">
      <path clip-path="url(#p1e52e3e798)" d="M 473.236364 333.532891 
L 777.6 333.532891 
" style="fill:none;stroke:#ffffff;stroke-linecap:round;stroke-width:1.3;"/>
     </g>
     <g id="line2d_136"/>
     <g id="text_42">
      <!-- 0.3 -->
      <g style="fill:#262626;" transform="translate(446.066364 338.185469)scale(0.13 -0.13)">
       <use xlink:href="#ArialMT-30"/>
       <use x="55.615234" xlink:href="#ArialMT-2e"/>
       <use x="83.398438" xlink:href="#ArialMT-33"/>
      </g>
     </g>
    </g>
    <g id="ytick_16">
     <g id="line2d_137">
      <path clip-path="url(#p1e52e3e798)" d="M 473.236364 284.782926 
L 777.6 284.782926 
" style="fill:none;stroke:#ffffff;stroke-linecap:round;stroke-width:1.3;"/>
     </g>
     <g id="line2d_138"/>
     <g id="text_43">
      <!-- 0.4 -->
      <g style="fill:#262626;" transform="translate(446.066364 289.435505)scale(0.13 -0.13)">
       <use xlink:href="#ArialMT-30"/>
       <use x="55.615234" xlink:href="#ArialMT-2e"/>
       <use x="83.398438" xlink:href="#ArialMT-34"/>
      </g>
     </g>
    </g>
   </g>
   <g id="line2d_139">
    <path clip-path="url(#p1e52e3e798)" d="M 473.236364 452.707438 
L 475.396065 438.674243 
L 477.710031 431.399156 
L 480.023997 428.704695 
L 482.23512 400.456368 
L 484.549085 397.884284 
L 486.760208 386.258556 
L 488.971331 389.013268 
L 491.182454 388.048556 
L 493.342155 403.907068 
L 495.553278 397.452934 
L 497.918666 396.937668 
L 500.18121 388.663007 
L 502.340911 400.771912 
L 504.552034 407.588107 
L 506.917422 395.302239 
L 509.077123 394.978822 
L 511.288246 388.165008 
L 513.447947 391.717863 
L 515.710492 390.612264 
L 518.075879 384.601681 
L 520.287002 387.3365 
L 522.498125 383.467839 
L 524.863512 376.888565 
L 527.074635 375.301275 
L 529.285758 371.156722 
L 531.445459 369.446131 
L 533.656582 373.463817 
L 536.021969 373.457404 
L 538.233092 381.696246 
L 540.444215 380.9869 
L 542.655338 376.26839 
L 544.866461 378.243483 
L 547.026162 372.460333 
L 549.340128 367.61537 
L 551.49983 363.532308 
L 553.813795 360.667362 
L 556.024918 358.341103 
L 558.338884 360.566209 
L 560.550007 360.994903 
L 562.76113 354.80314 
L 564.972253 364.518113 
L 567.183376 362.301812 
L 569.343077 358.358017 
L 571.657043 359.616789 
L 574.02243 361.586542 
L 576.336396 365.19606 
L 578.547519 367.693045 
L 582.969765 363.741515 
L 585.180887 361.637765 
L 587.340589 364.630174 
L 589.654555 359.829805 
L 591.917099 360.347796 
L 594.179643 352.898758 
L 596.493609 344.09941 
L 598.704732 337.67222 
L 600.915855 355.77873 
L 603.075556 368.545269 
L 605.286679 347.220654 
L 607.446381 336.190229 
L 609.811768 310.581571 
L 612.074312 310.554177 
L 614.285435 333.113737 
L 616.496558 321.540342 
L 618.810524 322.76032 
L 621.021647 329.248683 
L 623.23277 326.5494 
L 625.392471 323.175649 
L 627.603594 326.773864 
L 630.020403 333.483372 
L 632.231526 335.542261 
L 634.442648 328.52805 
L 636.653771 333.926565 
L 638.967737 335.999533 
L 641.127439 337.174051 
L 643.338561 333.469522 
L 645.498263 333.407082 
L 647.760807 330.866435 
L 649.97193 333.119384 
L 652.285896 332.904855 
L 654.497019 334.464292 
L 656.708142 324.669342 
L 658.919265 317.012221 
L 661.130388 327.192054 
L 663.290089 319.747715 
L 665.604055 327.208958 
L 667.918021 333.812544 
L 670.129143 329.915656 
L 672.443109 317.247412 
L 674.654232 319.392291 
L 676.865355 324.973386 
L 679.076478 331.152561 
L 681.236179 325.351364 
L 683.652988 329.775541 
L 685.915532 326.747551 
L 688.28092 326.009994 
L 690.492043 331.404405 
L 692.703165 335.070715 
L 697.07399 332.461522 
L 699.285113 329.029805 
L 701.444814 327.995764 
L 703.810201 321.322848 
L 706.072746 323.251776 
L 708.283869 323.385934 
L 710.597834 322.606056 
L 712.808957 320.728165 
L 715.02008 320.79384 
L 717.231203 319.54902 
L 719.390904 313.095274 
L 721.602027 305.009416 
L 724.018836 307.637506 
L 726.229959 304.487721 
L 728.441082 306.654544 
L 730.755048 300.086765 
L 732.966171 301.18001 
L 735.125872 304.251323 
L 739.496696 294.049594 
L 741.913505 293.302978 
L 744.176049 297.380926 
L 746.387172 300.15177 
L 748.546874 295.875348 
L 750.757997 297.269633 
L 753.071962 298.442931 
L 755.283085 307.609255 
L 757.442787 325.803144 
L 759.65391 312.69045 
L 762.070718 309.454791 
L 764.281841 307.369262 
L 766.492964 307.583746 
L 768.704087 307.559112 
L 770.91521 303.069366 
L 773.229176 301.14432 
L 775.388877 303.599679 
L 777.6 299.336262 
L 777.6 299.336262 
" style="fill:none;stroke:#4c72b0;stroke-linecap:round;stroke-width:2.275;"/>
   </g>
   <g id="line2d_140">
    <path clip-path="url(#p1e52e3e798)" d="M 473.236364 452.707438 
L 475.396065 438.607624 
L 477.710031 431.276437 
L 480.023997 428.617595 
L 482.23512 399.923 
L 484.549085 397.300746 
L 486.760208 385.424788 
L 488.971331 388.22711 
L 491.182454 387.080166 
L 493.342155 403.607192 
L 495.553278 397.000948 
L 497.918666 396.632247 
L 500.18121 388.154834 
L 502.340911 400.469695 
L 504.552034 407.414843 
L 506.917422 394.946762 
L 509.077123 394.522581 
L 511.288246 387.68556 
L 513.447947 391.307429 
L 515.710492 390.164315 
L 518.075879 383.852823 
L 520.287002 386.618869 
L 522.498125 382.670743 
L 524.863512 376.190488 
L 527.074635 374.562844 
L 529.285758 370.305655 
L 531.445459 368.565776 
L 533.656582 372.45976 
L 536.021969 372.466477 
L 538.233092 380.853438 
L 540.444215 380.181131 
L 542.655338 375.359484 
L 544.866461 377.377374 
L 547.026162 371.455174 
L 549.340128 366.470885 
L 551.49983 362.282415 
L 556.024918 357.127638 
L 558.338884 359.400434 
L 560.550007 360.062733 
L 562.76113 353.405373 
L 564.972253 363.702136 
L 567.183376 361.248132 
L 569.343077 357.239108 
L 571.657043 358.538296 
L 574.02243 360.541388 
L 576.336396 364.02656 
L 578.547519 367.00653 
L 582.969765 362.941141 
L 585.180887 360.733976 
L 587.340589 363.60305 
L 589.654555 358.57788 
L 591.917099 359.555378 
L 594.179643 352.019133 
L 596.493609 343.018933 
L 598.704732 336.240107 
L 600.915855 354.703512 
L 603.075556 367.781985 
L 605.286679 346.598475 
L 607.446381 335.389543 
L 609.811768 308.668512 
L 612.074312 309.31161 
L 614.285435 331.504878 
L 616.496558 320.117957 
L 618.810524 320.72163 
L 621.021647 327.473933 
L 623.23277 325.821361 
L 625.392471 322.235903 
L 627.603594 324.898335 
L 630.020403 333.027681 
L 632.231526 334.042389 
L 634.442648 326.797727 
L 636.653771 332.421276 
L 638.967737 334.717964 
L 641.127439 335.473515 
L 643.338561 331.643907 
L 645.498263 331.793692 
L 647.760807 329.136448 
L 649.97193 331.351583 
L 652.285896 331.13525 
L 654.497019 332.784564 
L 656.708142 323.40026 
L 658.919265 315.469743 
L 661.130388 326.039269 
L 663.290089 318.70803 
L 665.604055 326.176537 
L 667.918021 333.098249 
L 670.129143 329.63659 
L 672.443109 316.458994 
L 674.654232 318.685105 
L 679.076478 330.758809 
L 681.236179 324.899155 
L 683.652988 328.671695 
L 685.915532 325.597693 
L 688.28092 324.909647 
L 690.492043 330.462932 
L 692.703165 334.123187 
L 694.914288 332.345391 
L 697.07399 331.20856 
L 699.285113 326.804728 
L 701.444814 325.818265 
L 703.810201 318.821663 
L 706.072746 320.706053 
L 708.283869 320.847788 
L 712.808957 318.394701 
L 715.02008 318.423532 
L 717.231203 317.677572 
L 719.390904 311.450569 
L 721.602027 303.047185 
L 724.018836 305.905522 
L 726.229959 302.665885 
L 728.441082 304.933614 
L 730.755048 298.171234 
L 732.966171 299.323682 
L 735.125872 302.533879 
L 739.496696 291.892131 
L 741.913505 290.856198 
L 744.176049 295.426403 
L 746.387172 298.202784 
L 748.546874 293.724187 
L 750.757997 295.422315 
L 753.071962 296.4564 
L 755.283085 306.134908 
L 757.442787 322.786242 
L 759.65391 309.286751 
L 762.070718 307.767896 
L 764.281841 305.640459 
L 766.492964 305.944977 
L 768.704087 304.2864 
L 770.91521 300.463752 
L 773.229176 300.429217 
L 775.388877 301.885891 
L 777.6 298.627781 
L 777.6 298.627781 
" style="fill:none;stroke:#55a868;stroke-linecap:round;stroke-width:2.275;"/>
   </g>
   <g id="patch_18">
    <path d="M 473.236364 460.8 
L 473.236364 282.763636 
" style="fill:none;"/>
   </g>
   <g id="patch_19">
    <path d="M 777.6 460.8 
L 777.6 282.763636 
" style="fill:none;"/>
   </g>
   <g id="patch_20">
    <path d="M 473.236364 460.8 
L 777.6 460.8 
" style="fill:none;"/>
   </g>
   <g id="patch_21">
    <path d="M 473.236364 282.763636 
L 777.6 282.763636 
" style="fill:none;"/>
   </g>
   <g id="text_44">
    <!-- Internal regret - optimal eta -->
    <g style="fill:#262626;" transform="translate(531.780401 276.763636)scale(0.156 -0.156)">
     <use xlink:href="#ArialMT-49"/>
     <use x="27.783203" xlink:href="#ArialMT-6e"/>
     <use x="83.398438" xlink:href="#ArialMT-74"/>
     <use x="111.181641" xlink:href="#ArialMT-65"/>
     <use x="166.796875" xlink:href="#ArialMT-72"/>
     <use x="200.097656" xlink:href="#ArialMT-6e"/>
     <use x="255.712891" xlink:href="#ArialMT-61"/>
     <use x="311.328125" xlink:href="#ArialMT-6c"/>
     <use x="333.544922" xlink:href="#ArialMT-20"/>
     <use x="361.328125" xlink:href="#ArialMT-72"/>
     <use x="394.628906" xlink:href="#ArialMT-65"/>
     <use x="450.244141" xlink:href="#ArialMT-67"/>
     <use x="505.859375" xlink:href="#ArialMT-72"/>
     <use x="539.160156" xlink:href="#ArialMT-65"/>
     <use x="594.775391" xlink:href="#ArialMT-74"/>
     <use x="622.558594" xlink:href="#ArialMT-20"/>
     <use x="650.341797" xlink:href="#ArialMT-2d"/>
     <use x="683.642578" xlink:href="#ArialMT-20"/>
     <use x="711.425781" xlink:href="#ArialMT-6f"/>
     <use x="767.041016" xlink:href="#ArialMT-70"/>
     <use x="822.65625" xlink:href="#ArialMT-74"/>
     <use x="850.439453" xlink:href="#ArialMT-69"/>
     <use x="872.65625" xlink:href="#ArialMT-6d"/>
     <use x="955.957031" xlink:href="#ArialMT-61"/>
     <use x="1011.572266" xlink:href="#ArialMT-6c"/>
     <use x="1033.789062" xlink:href="#ArialMT-20"/>
     <use x="1061.572266" xlink:href="#ArialMT-65"/>
     <use x="1117.1875" xlink:href="#ArialMT-74"/>
     <use x="1144.970703" xlink:href="#ArialMT-61"/>
    </g>
   </g>
   <g id="legend_4">
    <g id="line2d_141">
     <path d="M 484.936364 299.218793 
L 510.936364 299.218793 
" style="fill:none;stroke:#4c72b0;stroke-linecap:round;stroke-width:2.275;"/>
    </g>
    <g id="line2d_142"/>
    <g id="text_45">
     <!-- EG -->
     <g style="fill:#262626;" transform="translate(521.336364 303.768793)scale(0.13 -0.13)">
      <use xlink:href="#ArialMT-45"/>
      <use x="66.699219" xlink:href="#ArialMT-47"/>
     </g>
    </g>
    <g id="line2d_143">
     <path d="M 484.936364 317.607699 
L 510.936364 317.607699 
" style="fill:none;stroke:#55a868;stroke-linecap:round;stroke-width:2.275;"/>
    </g>
    <g id="line2d_144"/>
    <g id="text_46">
     <!-- BP1EXP -->
     <g style="fill:#262626;" transform="translate(521.336364 322.157699)scale(0.13 -0.13)">
      <use xlink:href="#ArialMT-42"/>
      <use x="66.699219" xlink:href="#ArialMT-50"/>
      <use x="133.398438" xlink:href="#ArialMT-31"/>
      <use x="189.013672" xlink:href="#ArialMT-45"/>
      <use x="255.712891" xlink:href="#ArialMT-58"/>
      <use x="322.412109" xlink:href="#ArialMT-50"/>
     </g>
    </g>
   </g>
  </g>
  <g id="text_47">
   <!-- EG vs BP1EXP comparison - averaged over 5 choices of 5 stocks -->
   <defs>
    <path d="M 21 0 
L 1.265625 51.859375 
L 10.546875 51.859375 
L 21.6875 20.796875 
Q 23.484375 15.765625 25 10.359375 
Q 26.171875 14.453125 28.265625 20.21875 
L 39.796875 51.859375 
L 48.828125 51.859375 
L 29.203125 0 
z
" id="ArialMT-76"/>
    <path d="M 3.078125 15.484375 
L 11.765625 16.84375 
Q 12.5 11.625 15.84375 8.84375 
Q 19.1875 6.0625 25.203125 6.0625 
Q 31.25 6.0625 34.171875 8.515625 
Q 37.109375 10.984375 37.109375 14.3125 
Q 37.109375 17.28125 34.515625 19 
Q 32.71875 20.171875 25.53125 21.96875 
Q 15.875 24.421875 12.140625 26.203125 
Q 8.40625 27.984375 6.46875 31.125 
Q 4.546875 34.28125 4.546875 38.09375 
Q 4.546875 41.546875 6.125 44.5 
Q 7.71875 47.46875 10.453125 49.421875 
Q 12.5 50.921875 16.03125 51.96875 
Q 19.578125 53.03125 23.640625 53.03125 
Q 29.734375 53.03125 34.34375 51.265625 
Q 38.96875 49.515625 41.15625 46.5 
Q 43.359375 43.5 44.1875 38.484375 
L 35.59375 37.3125 
Q 35.015625 41.3125 32.203125 43.546875 
Q 29.390625 45.796875 24.265625 45.796875 
Q 18.21875 45.796875 15.625 43.796875 
Q 13.03125 41.796875 13.03125 39.109375 
Q 13.03125 37.40625 14.109375 36.03125 
Q 15.1875 34.625 17.484375 33.6875 
Q 18.796875 33.203125 25.25 31.453125 
Q 34.578125 28.953125 38.25 27.359375 
Q 41.9375 25.78125 44.03125 22.75 
Q 46.140625 19.734375 46.140625 15.234375 
Q 46.140625 10.84375 43.578125 6.953125 
Q 41.015625 3.078125 36.171875 0.953125 
Q 31.34375 -1.171875 25.25 -1.171875 
Q 15.140625 -1.171875 9.84375 3.03125 
Q 4.546875 7.234375 3.078125 15.484375 
z
" id="ArialMT-73"/>
    <path d="M 40.234375 0 
L 40.234375 6.546875 
Q 35.296875 -1.171875 25.734375 -1.171875 
Q 19.53125 -1.171875 14.328125 2.25 
Q 9.125 5.671875 6.265625 11.796875 
Q 3.421875 17.921875 3.421875 25.875 
Q 3.421875 33.640625 6 39.96875 
Q 8.59375 46.296875 13.765625 49.65625 
Q 18.953125 53.03125 25.34375 53.03125 
Q 30.03125 53.03125 33.6875 51.046875 
Q 37.359375 49.078125 39.65625 45.90625 
L 39.65625 71.578125 
L 48.390625 71.578125 
L 48.390625 0 
z
M 12.453125 25.875 
Q 12.453125 15.921875 16.640625 10.984375 
Q 20.84375 6.0625 26.5625 6.0625 
Q 32.328125 6.0625 36.34375 10.765625 
Q 40.375 15.484375 40.375 25.140625 
Q 40.375 35.796875 36.265625 40.765625 
Q 32.171875 45.75 26.171875 45.75 
Q 20.3125 45.75 16.375 40.96875 
Q 12.453125 36.1875 12.453125 25.875 
z
" id="ArialMT-64"/>
    <path d="M 6.640625 0 
L 6.640625 71.578125 
L 15.4375 71.578125 
L 15.4375 30.765625 
L 36.234375 51.859375 
L 47.609375 51.859375 
L 27.78125 32.625 
L 49.609375 0 
L 38.765625 0 
L 21.625 26.515625 
L 15.4375 20.5625 
L 15.4375 0 
z
" id="ArialMT-6b"/>
   </defs>
   <g style="fill:#262626;" transform="translate(169.392656 24.623438)scale(0.18 -0.18)">
    <use xlink:href="#ArialMT-45"/>
    <use x="66.699219" xlink:href="#ArialMT-47"/>
    <use x="144.482422" xlink:href="#ArialMT-20"/>
    <use x="172.265625" xlink:href="#ArialMT-76"/>
    <use x="222.265625" xlink:href="#ArialMT-73"/>
    <use x="272.265625" xlink:href="#ArialMT-20"/>
    <use x="300.048828" xlink:href="#ArialMT-42"/>
    <use x="366.748047" xlink:href="#ArialMT-50"/>
    <use x="433.447266" xlink:href="#ArialMT-31"/>
    <use x="489.0625" xlink:href="#ArialMT-45"/>
    <use x="555.761719" xlink:href="#ArialMT-58"/>
    <use x="622.460938" xlink:href="#ArialMT-50"/>
    <use x="689.144531" xlink:href="#ArialMT-20"/>
    <use x="716.927734" xlink:href="#ArialMT-63"/>
    <use x="766.927734" xlink:href="#ArialMT-6f"/>
    <use x="822.542969" xlink:href="#ArialMT-6d"/>
    <use x="905.84375" xlink:href="#ArialMT-70"/>
    <use x="961.458984" xlink:href="#ArialMT-61"/>
    <use x="1017.074219" xlink:href="#ArialMT-72"/>
    <use x="1050.375" xlink:href="#ArialMT-69"/>
    <use x="1072.591797" xlink:href="#ArialMT-73"/>
    <use x="1122.591797" xlink:href="#ArialMT-6f"/>
    <use x="1178.207031" xlink:href="#ArialMT-6e"/>
    <use x="1233.822266" xlink:href="#ArialMT-20"/>
    <use x="1261.605469" xlink:href="#ArialMT-2d"/>
    <use x="1294.90625" xlink:href="#ArialMT-20"/>
    <use x="1322.689453" xlink:href="#ArialMT-61"/>
    <use x="1378.304688" xlink:href="#ArialMT-76"/>
    <use x="1428.304688" xlink:href="#ArialMT-65"/>
    <use x="1483.919922" xlink:href="#ArialMT-72"/>
    <use x="1517.220703" xlink:href="#ArialMT-61"/>
    <use x="1572.835938" xlink:href="#ArialMT-67"/>
    <use x="1628.451172" xlink:href="#ArialMT-65"/>
    <use x="1684.066406" xlink:href="#ArialMT-64"/>
    <use x="1739.681641" xlink:href="#ArialMT-20"/>
    <use x="1767.464844" xlink:href="#ArialMT-6f"/>
    <use x="1823.080078" xlink:href="#ArialMT-76"/>
    <use x="1873.080078" xlink:href="#ArialMT-65"/>
    <use x="1928.695312" xlink:href="#ArialMT-72"/>
    <use x="1961.996094" xlink:href="#ArialMT-20"/>
    <use x="1989.779297" xlink:href="#ArialMT-35"/>
    <use x="2045.394531" xlink:href="#ArialMT-20"/>
    <use x="2073.177734" xlink:href="#ArialMT-63"/>
    <use x="2123.177734" xlink:href="#ArialMT-68"/>
    <use x="2178.792969" xlink:href="#ArialMT-6f"/>
    <use x="2234.408203" xlink:href="#ArialMT-69"/>
    <use x="2256.625" xlink:href="#ArialMT-63"/>
    <use x="2306.625" xlink:href="#ArialMT-65"/>
    <use x="2362.240234" xlink:href="#ArialMT-73"/>
    <use x="2412.240234" xlink:href="#ArialMT-20"/>
    <use x="2440.023438" xlink:href="#ArialMT-6f"/>
    <use x="2495.638672" xlink:href="#ArialMT-66"/>
    <use x="2523.421875" xlink:href="#ArialMT-20"/>
    <use x="2551.205078" xlink:href="#ArialMT-35"/>
    <use x="2606.820312" xlink:href="#ArialMT-20"/>
    <use x="2634.603516" xlink:href="#ArialMT-73"/>
    <use x="2684.603516" xlink:href="#ArialMT-74"/>
    <use x="2712.386719" xlink:href="#ArialMT-6f"/>
    <use x="2768.001953" xlink:href="#ArialMT-63"/>
    <use x="2818.001953" xlink:href="#ArialMT-6b"/>
    <use x="2868.001953" xlink:href="#ArialMT-73"/>
   </g>
  </g>
 </g>
 <defs>
  <clipPath id="pfb27416631">
   <rect height="178.036364" width="304.363636" x="108" y="69.12"/>
  </clipPath>
  <clipPath id="pcfbd22f202">
   <rect height="178.036364" width="304.363636" x="473.236364" y="69.12"/>
  </clipPath>
  <clipPath id="pdb960dfac0">
   <rect height="178.036364" width="304.363636" x="108" y="282.763636"/>
  </clipPath>
  <clipPath id="p1e52e3e798">
   <rect height="178.036364" width="304.363636" x="473.236364" y="282.763636"/>
  </clipPath>
 </defs>
</svg>
