<?xml version="1.0" encoding="utf-8" standalone="no"?>
<!DOCTYPE svg PUBLIC "-//W3C//DTD SVG 1.1//EN"
  "http://www.w3.org/Graphics/SVG/1.1/DTD/svg11.dtd">
<!-- Created with matplotlib (http://matplotlib.org/) -->
<svg height="468pt" version="1.1" viewBox="0 0 720 468" width="720pt" xmlns="http://www.w3.org/2000/svg" xmlns:xlink="http://www.w3.org/1999/xlink">
 <defs>
  <style type="text/css">
*{stroke-linecap:butt;stroke-linejoin:round;}
  </style>
 </defs>
 <g id="figure_1">
  <g id="patch_1">
   <path d="M 0 468 
L 720 468 
L 720 0 
L 0 0 
z
" style="fill:#ffffff;"/>
  </g>
  <g id="axes_1">
   <g id="patch_2">
    <path d="M 90 374.4 
L 648 374.4 
L 648 56.16 
L 90 56.16 
z
" style="fill:#ffffff;"/>
   </g>
   <g id="matplotlib.axis_1">
    <g id="xtick_1">
     <g id="line2d_1">
      <defs>
       <path d="M 0 0 
L 0 3.5 
" id="m674a342e4a" style="stroke:#000000;stroke-width:1.3;"/>
      </defs>
      <g>
       <use style="stroke:#000000;stroke-width:1.3;" x="134.025342" xlink:href="#m674a342e4a" y="374.4"/>
      </g>
     </g>
     <g id="text_1">
      <!-- 2003 -->
      <defs>
       <path d="M 19.1875 8.296875 
L 53.609375 8.296875 
L 53.609375 0 
L 7.328125 0 
L 7.328125 8.296875 
Q 12.9375 14.109375 22.625 23.890625 
Q 32.328125 33.6875 34.8125 36.53125 
Q 39.546875 41.84375 41.421875 45.53125 
Q 43.3125 49.21875 43.3125 52.78125 
Q 43.3125 58.59375 39.234375 62.25 
Q 35.15625 65.921875 28.609375 65.921875 
Q 23.96875 65.921875 18.8125 64.3125 
Q 13.671875 62.703125 7.8125 59.421875 
L 7.8125 69.390625 
Q 13.765625 71.78125 18.9375 73 
Q 24.125 74.21875 28.421875 74.21875 
Q 39.75 74.21875 46.484375 68.546875 
Q 53.21875 62.890625 53.21875 53.421875 
Q 53.21875 48.921875 51.53125 44.890625 
Q 49.859375 40.875 45.40625 35.40625 
Q 44.1875 33.984375 37.640625 27.21875 
Q 31.109375 20.453125 19.1875 8.296875 
z
" id="DejaVuSans-32"/>
       <path d="M 31.78125 66.40625 
Q 24.171875 66.40625 20.328125 58.90625 
Q 16.5 51.421875 16.5 36.375 
Q 16.5 21.390625 20.328125 13.890625 
Q 24.171875 6.390625 31.78125 6.390625 
Q 39.453125 6.390625 43.28125 13.890625 
Q 47.125 21.390625 47.125 36.375 
Q 47.125 51.421875 43.28125 58.90625 
Q 39.453125 66.40625 31.78125 66.40625 
z
M 31.78125 74.21875 
Q 44.046875 74.21875 50.515625 64.515625 
Q 56.984375 54.828125 56.984375 36.375 
Q 56.984375 17.96875 50.515625 8.265625 
Q 44.046875 -1.421875 31.78125 -1.421875 
Q 19.53125 -1.421875 13.0625 8.265625 
Q 6.59375 17.96875 6.59375 36.375 
Q 6.59375 54.828125 13.0625 64.515625 
Q 19.53125 74.21875 31.78125 74.21875 
z
" id="DejaVuSans-30"/>
       <path d="M 40.578125 39.3125 
Q 47.65625 37.796875 51.625 33 
Q 55.609375 28.21875 55.609375 21.1875 
Q 55.609375 10.40625 48.1875 4.484375 
Q 40.765625 -1.421875 27.09375 -1.421875 
Q 22.515625 -1.421875 17.65625 -0.515625 
Q 12.796875 0.390625 7.625 2.203125 
L 7.625 11.71875 
Q 11.71875 9.328125 16.59375 8.109375 
Q 21.484375 6.890625 26.8125 6.890625 
Q 36.078125 6.890625 40.9375 10.546875 
Q 45.796875 14.203125 45.796875 21.1875 
Q 45.796875 27.640625 41.28125 31.265625 
Q 36.765625 34.90625 28.71875 34.90625 
L 20.21875 34.90625 
L 20.21875 43.015625 
L 29.109375 43.015625 
Q 36.375 43.015625 40.234375 45.921875 
Q 44.09375 48.828125 44.09375 54.296875 
Q 44.09375 59.90625 40.109375 62.90625 
Q 36.140625 65.921875 28.71875 65.921875 
Q 24.65625 65.921875 20.015625 65.03125 
Q 15.375 64.15625 9.8125 62.3125 
L 9.8125 71.09375 
Q 15.4375 72.65625 20.34375 73.4375 
Q 25.25 74.21875 29.59375 74.21875 
Q 40.828125 74.21875 47.359375 69.109375 
Q 53.90625 64.015625 53.90625 55.328125 
Q 53.90625 49.265625 50.4375 45.09375 
Q 46.96875 40.921875 40.578125 39.3125 
z
" id="DejaVuSans-33"/>
      </defs>
      <g transform="translate(104.021095 412.097072)rotate(-30)scale(0.13 -0.13)">
       <use xlink:href="#DejaVuSans-32"/>
       <use x="63.623047" xlink:href="#DejaVuSans-30"/>
       <use x="127.246094" xlink:href="#DejaVuSans-30"/>
       <use x="190.869141" xlink:href="#DejaVuSans-33"/>
      </g>
     </g>
    </g>
    <g id="xtick_2">
     <g id="line2d_2">
      <g>
       <use style="stroke:#000000;stroke-width:1.3;" x="202.938672" xlink:href="#m674a342e4a" y="374.4"/>
      </g>
     </g>
     <g id="text_2">
      <!-- 2005 -->
      <defs>
       <path d="M 10.796875 72.90625 
L 49.515625 72.90625 
L 49.515625 64.59375 
L 19.828125 64.59375 
L 19.828125 46.734375 
Q 21.96875 47.46875 24.109375 47.828125 
Q 26.265625 48.1875 28.421875 48.1875 
Q 40.625 48.1875 47.75 41.5 
Q 54.890625 34.8125 54.890625 23.390625 
Q 54.890625 11.625 47.5625 5.09375 
Q 40.234375 -1.421875 26.90625 -1.421875 
Q 22.3125 -1.421875 17.546875 -0.640625 
Q 12.796875 0.140625 7.71875 1.703125 
L 7.71875 11.625 
Q 12.109375 9.234375 16.796875 8.0625 
Q 21.484375 6.890625 26.703125 6.890625 
Q 35.15625 6.890625 40.078125 11.328125 
Q 45.015625 15.765625 45.015625 23.390625 
Q 45.015625 31 40.078125 35.4375 
Q 35.15625 39.890625 26.703125 39.890625 
Q 22.75 39.890625 18.8125 39.015625 
Q 14.890625 38.140625 10.796875 36.28125 
z
" id="DejaVuSans-35"/>
      </defs>
      <g transform="translate(172.934425 412.097072)rotate(-30)scale(0.13 -0.13)">
       <use xlink:href="#DejaVuSans-32"/>
       <use x="63.623047" xlink:href="#DejaVuSans-30"/>
       <use x="127.246094" xlink:href="#DejaVuSans-30"/>
       <use x="190.869141" xlink:href="#DejaVuSans-35"/>
      </g>
     </g>
    </g>
    <g id="xtick_3">
     <g id="line2d_3">
      <g>
       <use style="stroke:#000000;stroke-width:1.3;" x="271.757729" xlink:href="#m674a342e4a" y="374.4"/>
      </g>
     </g>
     <g id="text_3">
      <!-- 2007 -->
      <defs>
       <path d="M 8.203125 72.90625 
L 55.078125 72.90625 
L 55.078125 68.703125 
L 28.609375 0 
L 18.3125 0 
L 43.21875 64.59375 
L 8.203125 64.59375 
z
" id="DejaVuSans-37"/>
      </defs>
      <g transform="translate(241.753482 412.097072)rotate(-30)scale(0.13 -0.13)">
       <use xlink:href="#DejaVuSans-32"/>
       <use x="63.623047" xlink:href="#DejaVuSans-30"/>
       <use x="127.246094" xlink:href="#DejaVuSans-30"/>
       <use x="190.869141" xlink:href="#DejaVuSans-37"/>
      </g>
     </g>
    </g>
    <g id="xtick_4">
     <g id="line2d_4">
      <g>
       <use style="stroke:#000000;stroke-width:1.3;" x="340.671059" xlink:href="#m674a342e4a" y="374.4"/>
      </g>
     </g>
     <g id="text_4">
      <!-- 2009 -->
      <defs>
       <path d="M 10.984375 1.515625 
L 10.984375 10.5 
Q 14.703125 8.734375 18.5 7.8125 
Q 22.3125 6.890625 25.984375 6.890625 
Q 35.75 6.890625 40.890625 13.453125 
Q 46.046875 20.015625 46.78125 33.40625 
Q 43.953125 29.203125 39.59375 26.953125 
Q 35.25 24.703125 29.984375 24.703125 
Q 19.046875 24.703125 12.671875 31.3125 
Q 6.296875 37.9375 6.296875 49.421875 
Q 6.296875 60.640625 12.9375 67.421875 
Q 19.578125 74.21875 30.609375 74.21875 
Q 43.265625 74.21875 49.921875 64.515625 
Q 56.59375 54.828125 56.59375 36.375 
Q 56.59375 19.140625 48.40625 8.859375 
Q 40.234375 -1.421875 26.421875 -1.421875 
Q 22.703125 -1.421875 18.890625 -0.6875 
Q 15.09375 0.046875 10.984375 1.515625 
z
M 30.609375 32.421875 
Q 37.25 32.421875 41.125 36.953125 
Q 45.015625 41.5 45.015625 49.421875 
Q 45.015625 57.28125 41.125 61.84375 
Q 37.25 66.40625 30.609375 66.40625 
Q 23.96875 66.40625 20.09375 61.84375 
Q 16.21875 57.28125 16.21875 49.421875 
Q 16.21875 41.5 20.09375 36.953125 
Q 23.96875 32.421875 30.609375 32.421875 
z
" id="DejaVuSans-39"/>
      </defs>
      <g transform="translate(310.666812 412.097072)rotate(-30)scale(0.13 -0.13)">
       <use xlink:href="#DejaVuSans-32"/>
       <use x="63.623047" xlink:href="#DejaVuSans-30"/>
       <use x="127.246094" xlink:href="#DejaVuSans-30"/>
       <use x="190.869141" xlink:href="#DejaVuSans-39"/>
      </g>
     </g>
    </g>
    <g id="xtick_5">
     <g id="line2d_5">
      <g>
       <use style="stroke:#000000;stroke-width:1.3;" x="409.490117" xlink:href="#m674a342e4a" y="374.4"/>
      </g>
     </g>
     <g id="text_5">
      <!-- 2011 -->
      <defs>
       <path d="M 12.40625 8.296875 
L 28.515625 8.296875 
L 28.515625 63.921875 
L 10.984375 60.40625 
L 10.984375 69.390625 
L 28.421875 72.90625 
L 38.28125 72.90625 
L 38.28125 8.296875 
L 54.390625 8.296875 
L 54.390625 0 
L 12.40625 0 
z
" id="DejaVuSans-31"/>
      </defs>
      <g transform="translate(379.485869 412.097072)rotate(-30)scale(0.13 -0.13)">
       <use xlink:href="#DejaVuSans-32"/>
       <use x="63.623047" xlink:href="#DejaVuSans-30"/>
       <use x="127.246094" xlink:href="#DejaVuSans-31"/>
       <use x="190.869141" xlink:href="#DejaVuSans-31"/>
      </g>
     </g>
    </g>
    <g id="xtick_6">
     <g id="line2d_6">
      <g>
       <use style="stroke:#000000;stroke-width:1.3;" x="478.403447" xlink:href="#m674a342e4a" y="374.4"/>
      </g>
     </g>
     <g id="text_6">
      <!-- 2013 -->
      <g transform="translate(448.399199 412.097072)rotate(-30)scale(0.13 -0.13)">
       <use xlink:href="#DejaVuSans-32"/>
       <use x="63.623047" xlink:href="#DejaVuSans-30"/>
       <use x="127.246094" xlink:href="#DejaVuSans-31"/>
       <use x="190.869141" xlink:href="#DejaVuSans-33"/>
      </g>
     </g>
    </g>
    <g id="xtick_7">
     <g id="line2d_7">
      <g>
       <use style="stroke:#000000;stroke-width:1.3;" x="547.222504" xlink:href="#m674a342e4a" y="374.4"/>
      </g>
     </g>
     <g id="text_7">
      <!-- 2015 -->
      <g transform="translate(517.218256 412.097072)rotate(-30)scale(0.13 -0.13)">
       <use xlink:href="#DejaVuSans-32"/>
       <use x="63.623047" xlink:href="#DejaVuSans-30"/>
       <use x="127.246094" xlink:href="#DejaVuSans-31"/>
       <use x="190.869141" xlink:href="#DejaVuSans-35"/>
      </g>
     </g>
    </g>
    <g id="xtick_8">
     <g id="line2d_8">
      <g>
       <use style="stroke:#000000;stroke-width:1.3;" x="616.135834" xlink:href="#m674a342e4a" y="374.4"/>
      </g>
     </g>
     <g id="text_8">
      <!-- 2017 -->
      <g transform="translate(586.131586 412.097072)rotate(-30)scale(0.13 -0.13)">
       <use xlink:href="#DejaVuSans-32"/>
       <use x="63.623047" xlink:href="#DejaVuSans-30"/>
       <use x="127.246094" xlink:href="#DejaVuSans-31"/>
       <use x="190.869141" xlink:href="#DejaVuSans-37"/>
      </g>
     </g>
    </g>
    <g id="text_9">
     <!-- Date -->
     <defs>
      <path d="M 19.671875 64.796875 
L 19.671875 8.109375 
L 31.59375 8.109375 
Q 46.6875 8.109375 53.6875 14.9375 
Q 60.6875 21.78125 60.6875 36.53125 
Q 60.6875 51.171875 53.6875 57.984375 
Q 46.6875 64.796875 31.59375 64.796875 
z
M 9.8125 72.90625 
L 30.078125 72.90625 
Q 51.265625 72.90625 61.171875 64.09375 
Q 71.09375 55.28125 71.09375 36.53125 
Q 71.09375 17.671875 61.125 8.828125 
Q 51.171875 0 30.078125 0 
L 9.8125 0 
z
" id="DejaVuSans-44"/>
      <path d="M 34.28125 27.484375 
Q 23.390625 27.484375 19.1875 25 
Q 14.984375 22.515625 14.984375 16.5 
Q 14.984375 11.71875 18.140625 8.90625 
Q 21.296875 6.109375 26.703125 6.109375 
Q 34.1875 6.109375 38.703125 11.40625 
Q 43.21875 16.703125 43.21875 25.484375 
L 43.21875 27.484375 
z
M 52.203125 31.203125 
L 52.203125 0 
L 43.21875 0 
L 43.21875 8.296875 
Q 40.140625 3.328125 35.546875 0.953125 
Q 30.953125 -1.421875 24.3125 -1.421875 
Q 15.921875 -1.421875 10.953125 3.296875 
Q 6 8.015625 6 15.921875 
Q 6 25.140625 12.171875 29.828125 
Q 18.359375 34.515625 30.609375 34.515625 
L 43.21875 34.515625 
L 43.21875 35.40625 
Q 43.21875 41.609375 39.140625 45 
Q 35.0625 48.390625 27.6875 48.390625 
Q 23 48.390625 18.546875 47.265625 
Q 14.109375 46.140625 10.015625 43.890625 
L 10.015625 52.203125 
Q 14.9375 54.109375 19.578125 55.046875 
Q 24.21875 56 28.609375 56 
Q 40.484375 56 46.34375 49.84375 
Q 52.203125 43.703125 52.203125 31.203125 
z
" id="DejaVuSans-61"/>
      <path d="M 18.3125 70.21875 
L 18.3125 54.6875 
L 36.8125 54.6875 
L 36.8125 47.703125 
L 18.3125 47.703125 
L 18.3125 18.015625 
Q 18.3125 11.328125 20.140625 9.421875 
Q 21.96875 7.515625 27.59375 7.515625 
L 36.8125 7.515625 
L 36.8125 0 
L 27.59375 0 
Q 17.1875 0 13.234375 3.875 
Q 9.28125 7.765625 9.28125 18.015625 
L 9.28125 47.703125 
L 2.6875 47.703125 
L 2.6875 54.6875 
L 9.28125 54.6875 
L 9.28125 70.21875 
z
" id="DejaVuSans-74"/>
      <path d="M 56.203125 29.59375 
L 56.203125 25.203125 
L 14.890625 25.203125 
Q 15.484375 15.921875 20.484375 11.0625 
Q 25.484375 6.203125 34.421875 6.203125 
Q 39.59375 6.203125 44.453125 7.46875 
Q 49.3125 8.734375 54.109375 11.28125 
L 54.109375 2.78125 
Q 49.265625 0.734375 44.1875 -0.34375 
Q 39.109375 -1.421875 33.890625 -1.421875 
Q 20.796875 -1.421875 13.15625 6.1875 
Q 5.515625 13.8125 5.515625 26.8125 
Q 5.515625 40.234375 12.765625 48.109375 
Q 20.015625 56 32.328125 56 
Q 43.359375 56 49.78125 48.890625 
Q 56.203125 41.796875 56.203125 29.59375 
z
M 47.21875 32.234375 
Q 47.125 39.59375 43.09375 43.984375 
Q 39.0625 48.390625 32.421875 48.390625 
Q 24.90625 48.390625 20.390625 44.140625 
Q 15.875 39.890625 15.1875 32.171875 
z
" id="DejaVuSans-65"/>
     </defs>
     <g transform="translate(351.910383 429.304218)scale(0.143 -0.143)">
      <use xlink:href="#DejaVuSans-44"/>
      <use x="77.001953" xlink:href="#DejaVuSans-61"/>
      <use x="138.28125" xlink:href="#DejaVuSans-74"/>
      <use x="177.490234" xlink:href="#DejaVuSans-65"/>
     </g>
    </g>
   </g>
   <g id="matplotlib.axis_2">
    <g id="ytick_1">
     <g id="line2d_9">
      <defs>
       <path d="M 0 0 
L -3.5 0 
" id="meb51788841" style="stroke:#000000;stroke-width:1.3;"/>
      </defs>
      <g>
       <use style="stroke:#000000;stroke-width:1.3;" x="90" xlink:href="#meb51788841" y="362.296184"/>
      </g>
     </g>
     <g id="text_10">
      <!-- 0.0 -->
      <defs>
       <path d="M 10.6875 12.40625 
L 21 12.40625 
L 21 0 
L 10.6875 0 
z
" id="DejaVuSans-2e"/>
      </defs>
      <g transform="translate(56.725938 367.235169)scale(0.13 -0.13)">
       <use xlink:href="#DejaVuSans-30"/>
       <use x="63.623047" xlink:href="#DejaVuSans-2e"/>
       <use x="95.410156" xlink:href="#DejaVuSans-30"/>
      </g>
     </g>
    </g>
    <g id="ytick_2">
     <g id="line2d_10">
      <g>
       <use style="stroke:#000000;stroke-width:1.3;" x="90" xlink:href="#meb51788841" y="303.681323"/>
      </g>
     </g>
     <g id="text_11">
      <!-- 0.1 -->
      <g transform="translate(56.725938 308.620308)scale(0.13 -0.13)">
       <use xlink:href="#DejaVuSans-30"/>
       <use x="63.623047" xlink:href="#DejaVuSans-2e"/>
       <use x="95.410156" xlink:href="#DejaVuSans-31"/>
      </g>
     </g>
    </g>
    <g id="ytick_3">
     <g id="line2d_11">
      <g>
       <use style="stroke:#000000;stroke-width:1.3;" x="90" xlink:href="#meb51788841" y="245.066463"/>
      </g>
     </g>
     <g id="text_12">
      <!-- 0.2 -->
      <g transform="translate(56.725938 250.005447)scale(0.13 -0.13)">
       <use xlink:href="#DejaVuSans-30"/>
       <use x="63.623047" xlink:href="#DejaVuSans-2e"/>
       <use x="95.410156" xlink:href="#DejaVuSans-32"/>
      </g>
     </g>
    </g>
    <g id="ytick_4">
     <g id="line2d_12">
      <g>
       <use style="stroke:#000000;stroke-width:1.3;" x="90" xlink:href="#meb51788841" y="186.451602"/>
      </g>
     </g>
     <g id="text_13">
      <!-- 0.3 -->
      <g transform="translate(56.725938 191.390586)scale(0.13 -0.13)">
       <use xlink:href="#DejaVuSans-30"/>
       <use x="63.623047" xlink:href="#DejaVuSans-2e"/>
       <use x="95.410156" xlink:href="#DejaVuSans-33"/>
      </g>
     </g>
    </g>
    <g id="ytick_5">
     <g id="line2d_13">
      <g>
       <use style="stroke:#000000;stroke-width:1.3;" x="90" xlink:href="#meb51788841" y="127.836741"/>
      </g>
     </g>
     <g id="text_14">
      <!-- 0.4 -->
      <defs>
       <path d="M 37.796875 64.3125 
L 12.890625 25.390625 
L 37.796875 25.390625 
z
M 35.203125 72.90625 
L 47.609375 72.90625 
L 47.609375 25.390625 
L 58.015625 25.390625 
L 58.015625 17.1875 
L 47.609375 17.1875 
L 47.609375 0 
L 37.796875 0 
L 37.796875 17.1875 
L 4.890625 17.1875 
L 4.890625 26.703125 
z
" id="DejaVuSans-34"/>
      </defs>
      <g transform="translate(56.725938 132.775725)scale(0.13 -0.13)">
       <use xlink:href="#DejaVuSans-30"/>
       <use x="63.623047" xlink:href="#DejaVuSans-2e"/>
       <use x="95.410156" xlink:href="#DejaVuSans-34"/>
      </g>
     </g>
    </g>
    <g id="ytick_6">
     <g id="line2d_14">
      <g>
       <use style="stroke:#000000;stroke-width:1.3;" x="90" xlink:href="#meb51788841" y="69.22188"/>
      </g>
     </g>
     <g id="text_15">
      <!-- 0.5 -->
      <g transform="translate(56.725938 74.160865)scale(0.13 -0.13)">
       <use xlink:href="#DejaVuSans-30"/>
       <use x="63.623047" xlink:href="#DejaVuSans-2e"/>
       <use x="95.410156" xlink:href="#DejaVuSans-35"/>
      </g>
     </g>
    </g>
    <g id="text_16">
     <!-- weight -->
     <defs>
      <path d="M 4.203125 54.6875 
L 13.1875 54.6875 
L 24.421875 12.015625 
L 35.59375 54.6875 
L 46.1875 54.6875 
L 57.421875 12.015625 
L 68.609375 54.6875 
L 77.59375 54.6875 
L 63.28125 0 
L 52.6875 0 
L 40.921875 44.828125 
L 29.109375 0 
L 18.5 0 
z
" id="DejaVuSans-77"/>
      <path d="M 9.421875 54.6875 
L 18.40625 54.6875 
L 18.40625 0 
L 9.421875 0 
z
M 9.421875 75.984375 
L 18.40625 75.984375 
L 18.40625 64.59375 
L 9.421875 64.59375 
z
" id="DejaVuSans-69"/>
      <path d="M 45.40625 27.984375 
Q 45.40625 37.75 41.375 43.109375 
Q 37.359375 48.484375 30.078125 48.484375 
Q 22.859375 48.484375 18.828125 43.109375 
Q 14.796875 37.75 14.796875 27.984375 
Q 14.796875 18.265625 18.828125 12.890625 
Q 22.859375 7.515625 30.078125 7.515625 
Q 37.359375 7.515625 41.375 12.890625 
Q 45.40625 18.265625 45.40625 27.984375 
z
M 54.390625 6.78125 
Q 54.390625 -7.171875 48.1875 -13.984375 
Q 42 -20.796875 29.203125 -20.796875 
Q 24.46875 -20.796875 20.265625 -20.09375 
Q 16.0625 -19.390625 12.109375 -17.921875 
L 12.109375 -9.1875 
Q 16.0625 -11.328125 19.921875 -12.34375 
Q 23.78125 -13.375 27.78125 -13.375 
Q 36.625 -13.375 41.015625 -8.765625 
Q 45.40625 -4.15625 45.40625 5.171875 
L 45.40625 9.625 
Q 42.625 4.78125 38.28125 2.390625 
Q 33.9375 0 27.875 0 
Q 17.828125 0 11.671875 7.65625 
Q 5.515625 15.328125 5.515625 27.984375 
Q 5.515625 40.671875 11.671875 48.328125 
Q 17.828125 56 27.875 56 
Q 33.9375 56 38.28125 53.609375 
Q 42.625 51.21875 45.40625 46.390625 
L 45.40625 54.6875 
L 54.390625 54.6875 
z
" id="DejaVuSans-67"/>
      <path d="M 54.890625 33.015625 
L 54.890625 0 
L 45.90625 0 
L 45.90625 32.71875 
Q 45.90625 40.484375 42.875 44.328125 
Q 39.84375 48.1875 33.796875 48.1875 
Q 26.515625 48.1875 22.3125 43.546875 
Q 18.109375 38.921875 18.109375 30.90625 
L 18.109375 0 
L 9.078125 0 
L 9.078125 75.984375 
L 18.109375 75.984375 
L 18.109375 46.1875 
Q 21.34375 51.125 25.703125 53.5625 
Q 30.078125 56 35.796875 56 
Q 45.21875 56 50.046875 50.171875 
Q 54.890625 44.34375 54.890625 33.015625 
z
" id="DejaVuSans-68"/>
     </defs>
     <g transform="translate(49.751984 239.386672)rotate(-90)scale(0.143 -0.143)">
      <use xlink:href="#DejaVuSans-77"/>
      <use x="81.787109" xlink:href="#DejaVuSans-65"/>
      <use x="143.310547" xlink:href="#DejaVuSans-69"/>
      <use x="171.09375" xlink:href="#DejaVuSans-67"/>
      <use x="234.570312" xlink:href="#DejaVuSans-68"/>
      <use x="297.949219" xlink:href="#DejaVuSans-74"/>
     </g>
    </g>
   </g>
   <g id="line2d_15">
    <path clip-path="url(#p1ef4014c13)" d="M 90 245.066463 
L 93.959453 223.870129 
L 98.201723 229.95293 
L 102.443994 246.466033 
L 106.497719 249.426938 
L 110.73999 253.784741 
L 114.793715 252.113482 
L 118.84744 255.958196 
L 122.901166 240.721844 
L 126.860618 234.94696 
L 130.914344 256.317102 
L 135.250887 261.965279 
L 139.398885 273.456705 
L 143.358338 274.54096 
L 147.412063 276.318659 
L 151.748606 283.984191 
L 155.708059 279.007452 
L 159.761784 286.625795 
L 163.721237 295.283198 
L 167.869235 291.062748 
L 172.205778 288.996955 
L 176.259503 287.789064 
L 180.313229 289.831634 
L 184.649772 291.671494 
L 188.703497 293.075714 
L 192.757223 292.123081 
L 196.716675 303.761429 
L 200.7704 300.155468 
L 205.106944 299.043195 
L 209.160669 300.899929 
L 213.214394 312.006468 
L 217.26812 314.938336 
L 221.321845 312.474082 
L 225.281298 314.571743 
L 229.523568 311.734832 
L 233.483021 311.757849 
L 237.725291 309.771253 
L 241.779017 315.797465 
L 246.021287 320.03038 
L 250.075013 318.967239 
L 254.128738 319.990821 
L 258.182463 314.721526 
L 262.236189 317.442804 
L 266.195641 314.806306 
L 270.437912 310.64893 
L 274.774455 314.616377 
L 279.016726 317.230128 
L 283.070451 317.873193 
L 287.124176 318.706551 
L 291.177902 322.126209 
L 295.231627 323.578596 
L 299.19108 326.006421 
L 303.43335 330.116699 
L 307.581348 325.121482 
L 311.729346 331.571615 
L 315.971617 335.425803 
L 320.025342 339.961169 
L 324.079067 342.398022 
L 328.03852 346.082471 
L 332.092245 354.963002 
L 336.051698 356.788952 
L 340.388241 357.701375 
L 344.536239 359.234715 
L 348.589965 359.17555 
L 352.64369 356.567975 
L 356.88596 358.114022 
L 360.939686 359.934545 
L 364.993411 347.306216 
L 368.952864 348.927985 
L 373.006589 351.989803 
L 377.437405 353.672048 
L 381.49113 348.851482 
L 385.544856 347.787668 
L 389.598581 348.580638 
L 393.840851 348.213683 
L 397.800304 348.472492 
L 401.854029 347.42344 
L 405.813482 347.697004 
L 409.96148 340.905273 
L 414.015205 347.740994 
L 418.257476 349.242529 
L 422.311201 350.431216 
L 426.364927 350.672639 
L 430.418652 351.507211 
L 434.472377 351.825952 
L 442.6741 351.980607 
L 446.916371 351.579778 
L 450.970096 351.77791 
L 455.212367 349.193564 
L 459.266092 349.964548 
L 463.319818 348.712 
L 467.373543 348.063906 
L 471.332995 347.148432 
L 475.763811 348.155311 
L 479.911809 348.446857 
L 484.248353 347.853754 
L 488.302078 348.286601 
L 492.355803 346.856166 
L 496.409529 346.889578 
L 500.368981 346.290168 
L 504.422707 346.113287 
L 508.382159 347.726964 
L 512.718702 347.814935 
L 520.920426 348.535683 
L 525.162696 348.116837 
L 529.216422 347.525433 
L 533.270147 347.797941 
L 537.323872 347.391064 
L 541.283325 349.067234 
L 545.33705 349.037591 
L 549.767866 350.687276 
L 553.821591 349.030151 
L 557.875317 348.999217 
L 562.117587 348.118292 
L 566.171313 347.441194 
L 570.130765 347.772101 
L 574.184491 349.119935 
L 578.143943 348.938609 
L 582.574759 348.906735 
L 586.722757 350.397904 
L 590.776483 350.44955 
L 594.735935 349.072107 
L 598.78966 349.98877 
L 603.031931 349.337512 
L 607.085656 349.200914 
L 611.045109 348.557684 
L 615.098834 347.720055 
L 619.52965 348.393917 
L 623.583376 349.474416 
L 627.637101 349.362566 
L 631.690826 348.962973 
L 635.744551 349.172551 
L 639.986822 349.692718 
L 643.946275 348.934717 
L 648 350.865959 
L 648 350.865959 
" style="fill:none;stroke:#1f77b4;stroke-linecap:square;stroke-width:2.275;"/>
   </g>
   <g id="line2d_16">
    <path clip-path="url(#p1ef4014c13)" d="M 90 245.066463 
L 93.959453 239.482819 
L 98.201723 249.953216 
L 102.443994 251.176985 
L 106.497719 246.555127 
L 110.73999 230.128459 
L 114.793715 217.92956 
L 118.84744 214.61953 
L 122.901166 203.337458 
L 126.860618 201.026497 
L 130.914344 232.509763 
L 135.250887 233.582869 
L 139.398885 236.972776 
L 143.358338 238.62467 
L 147.412063 237.129361 
L 151.748606 249.450219 
L 155.708059 256.196018 
L 159.761784 260.570528 
L 163.721237 268.512723 
L 167.869235 263.772827 
L 172.205778 271.286757 
L 176.259503 265.063176 
L 180.313229 257.979034 
L 184.649772 264.926982 
L 188.703497 266.420154 
L 192.757223 261.747451 
L 196.716675 263.928793 
L 200.7704 266.313118 
L 205.106944 263.214798 
L 209.160669 267.554333 
L 213.214394 265.563416 
L 217.26812 272.398167 
L 221.321845 278.324269 
L 225.281298 278.623722 
L 229.523568 276.560556 
L 233.483021 284.863263 
L 237.725291 285.409113 
L 241.779017 291.726189 
L 246.021287 297.238072 
L 250.075013 289.694683 
L 254.128738 282.641286 
L 258.182463 273.068433 
L 262.236189 282.221265 
L 270.437912 279.187788 
L 274.774455 284.12863 
L 283.070451 284.162685 
L 287.124176 289.739286 
L 291.177902 290.107389 
L 295.231627 285.484987 
L 299.19108 291.35997 
L 303.43335 292.467464 
L 307.581348 289.904525 
L 311.729346 288.181518 
L 315.971617 290.58271 
L 320.025342 294.567827 
L 324.079067 277.486912 
L 328.03852 270.557428 
L 336.051698 217.946632 
L 340.388241 227.118466 
L 344.536239 232.347056 
L 348.589965 255.366078 
L 352.64369 255.762063 
L 356.88596 250.748915 
L 360.939686 259.178685 
L 364.993411 260.942092 
L 368.952864 257.062488 
L 373.006589 261.262226 
L 377.437405 260.393466 
L 381.49113 267.310262 
L 385.544856 274.003946 
L 389.598581 258.765146 
L 393.840851 261.668225 
L 397.800304 263.488199 
L 401.854029 274.15236 
L 405.813482 275.104621 
L 409.96148 278.225601 
L 414.015205 283.559931 
L 418.257476 273.158734 
L 422.311201 268.279759 
L 426.364927 267.838475 
L 430.418652 257.825903 
L 434.472377 254.649702 
L 438.43183 267.243906 
L 442.6741 263.02292 
L 446.916371 271.140271 
L 450.970096 274.189243 
L 455.212367 277.18775 
L 459.266092 275.300285 
L 463.319818 270.342115 
L 467.373543 269.615029 
L 471.332995 267.970703 
L 475.763811 257.71878 
L 479.911809 260.909742 
L 484.248353 258.242034 
L 488.302078 259.01731 
L 492.355803 265.672162 
L 496.409529 261.544725 
L 500.368981 266.585586 
L 504.422707 273.94404 
L 512.718702 283.169601 
L 516.8667 284.963818 
L 520.920426 283.624555 
L 525.162696 278.766115 
L 529.216422 281.042794 
L 533.270147 282.2951 
L 537.323872 285.079234 
L 541.283325 288.509278 
L 545.33705 287.680718 
L 549.767866 289.28567 
L 553.821591 294.053754 
L 557.875317 294.039691 
L 562.117587 295.019884 
L 566.171313 293.897047 
L 570.130765 286.576948 
L 574.184491 290.278232 
L 578.143943 294.565696 
L 582.574759 284.525333 
L 586.722757 281.95985 
L 590.776483 282.24895 
L 594.735935 280.586128 
L 598.78966 274.27797 
L 603.031931 277.78829 
L 607.085656 281.922138 
L 611.045109 279.897785 
L 615.098834 287.728165 
L 619.52965 290.111174 
L 623.583376 291.206794 
L 627.637101 294.80205 
L 631.690826 290.911491 
L 635.744551 298.331988 
L 639.986822 294.619464 
L 643.946275 302.251637 
L 648 300.632796 
L 648 300.632796 
" style="fill:none;stroke:#ff7f0e;stroke-linecap:square;stroke-width:2.275;"/>
   </g>
   <g id="line2d_17">
    <path clip-path="url(#p1ef4014c13)" d="M 90 245.066463 
L 93.959453 264.17382 
L 98.201723 259.821791 
L 102.443994 270.837327 
L 106.497719 276.225587 
L 110.73999 284.046205 
L 114.793715 307.722674 
L 118.84744 309.542581 
L 122.901166 325.553373 
L 126.860618 334.016994 
L 130.914344 247.707746 
L 135.250887 243.918218 
L 139.398885 228.08853 
L 143.358338 208.92274 
L 147.412063 211.59594 
L 151.748606 178.915211 
L 155.708059 186.367597 
L 159.761784 170.758352 
L 163.721237 149.421649 
L 167.869235 177.90773 
L 172.205778 154.491849 
L 176.259503 178.813728 
L 180.313229 167.676868 
L 184.649772 164.956456 
L 188.703497 167.296107 
L 192.757223 182.693801 
L 196.716675 180.996684 
L 200.7704 190.323533 
L 205.106944 187.259565 
L 209.160669 192.400287 
L 213.214394 166.241144 
L 217.26812 142.533889 
L 221.321845 134.144844 
L 225.281298 110.618967 
L 229.523568 119.67129 
L 233.483021 108.041629 
L 237.725291 111.077873 
L 241.779017 91.127576 
L 246.021287 76.38749 
L 250.075013 93.166671 
L 254.128738 101.260496 
L 258.182463 128.062876 
L 262.236189 94.398886 
L 266.195641 123.870544 
L 270.437912 135.84775 
L 274.774455 125.221019 
L 279.016726 119.793564 
L 283.070451 119.259359 
L 287.124176 107.884011 
L 291.177902 123.358072 
L 295.231627 117.692396 
L 299.19108 132.433966 
L 303.43335 138.052156 
L 307.581348 134.057502 
L 311.729346 123.640846 
L 315.971617 121.730433 
L 320.025342 108.775902 
L 324.079067 127.635578 
L 328.03852 118.377401 
L 332.092245 157.5869 
L 336.051698 176.817307 
L 340.388241 177.520941 
L 344.536239 123.226779 
L 348.589965 88.935289 
L 352.64369 116.312087 
L 356.88596 107.97566 
L 360.939686 111.136615 
L 364.993411 139.062346 
L 368.952864 150.500665 
L 373.006589 124.64522 
L 377.437405 125.17254 
L 381.49113 133.920033 
L 385.544856 131.711358 
L 389.598581 149.150271 
L 393.840851 137.242156 
L 397.800304 146.140887 
L 401.854029 143.935721 
L 405.813482 151.447176 
L 409.96148 145.857635 
L 414.015205 130.254327 
L 418.257476 137.615555 
L 422.311201 141.494266 
L 426.364927 161.698923 
L 430.418652 173.651395 
L 434.472377 194.881209 
L 438.43183 179.650065 
L 442.6741 193.665563 
L 446.916371 208.662737 
L 450.970096 204.647865 
L 455.212367 203.726386 
L 459.266092 207.119631 
L 463.319818 217.959466 
L 467.373543 214.333366 
L 471.332995 200.212173 
L 479.911809 220.666147 
L 484.248353 223.85725 
L 488.302078 224.770452 
L 492.355803 204.852845 
L 496.409529 211.883405 
L 500.368981 214.463486 
L 504.422707 219.146899 
L 508.382159 211.549775 
L 512.718702 210.982156 
L 516.8667 199.243688 
L 520.920426 191.086119 
L 525.162696 191.049174 
L 529.216422 186.575631 
L 533.270147 197.177964 
L 537.323872 196.036553 
L 541.283325 210.862555 
L 545.33705 209.113446 
L 549.767866 189.750522 
L 553.821591 196.459239 
L 557.875317 204.216442 
L 562.117587 213.072396 
L 566.171313 230.114701 
L 570.130765 235.836203 
L 574.184491 244.931586 
L 578.143943 239.378646 
L 582.574759 239.789304 
L 586.722757 233.959455 
L 590.776483 221.934577 
L 594.735935 227.608651 
L 598.78966 219.077737 
L 603.031931 209.084608 
L 607.085656 203.649882 
L 611.045109 199.968092 
L 615.098834 197.632364 
L 619.52965 188.726966 
L 623.583376 193.483668 
L 627.637101 178.762619 
L 631.690826 175.838652 
L 635.744551 183.602112 
L 643.946275 175.104269 
L 648 176.189288 
L 648 176.189288 
" style="fill:none;stroke:#2ca02c;stroke-linecap:square;stroke-width:2.275;"/>
   </g>
   <g id="line2d_18">
    <path clip-path="url(#p1ef4014c13)" d="M 90 245.066463 
L 93.959453 262.279711 
L 98.201723 253.433595 
L 102.443994 236.226872 
L 106.497719 233.160269 
L 110.73999 225.297033 
L 114.793715 219.201399 
L 118.84744 230.37359 
L 122.901166 226.223698 
L 126.860618 226.198276 
L 130.914344 237.466769 
L 135.250887 236.058637 
L 139.398885 248.373598 
L 143.358338 273.958219 
L 147.412063 262.193306 
L 151.748606 261.998805 
L 155.708059 252.128571 
L 159.761784 264.631187 
L 163.721237 256.353597 
L 167.869235 244.501558 
L 172.205778 258.440765 
L 176.259503 258.517559 
L 180.313229 256.329709 
L 188.703497 246.743749 
L 192.757223 244.232271 
L 196.716675 236.691695 
L 200.7704 233.608433 
L 205.106944 240.005469 
L 209.160669 224.565173 
L 213.214394 232.922881 
L 217.26812 240.319147 
L 221.321845 246.614482 
L 225.281298 256.454964 
L 229.523568 257.277008 
L 233.483021 256.263869 
L 237.725291 254.828398 
L 241.779017 252.851542 
L 246.021287 251.758146 
L 250.075013 243.461969 
L 254.128738 245.875865 
L 258.182463 237.323703 
L 262.236189 258.162554 
L 266.195641 242.442421 
L 270.437912 239.616988 
L 274.774455 242.4286 
L 279.016726 249.299867 
L 283.070451 242.326533 
L 287.124176 242.969791 
L 291.177902 230.045519 
L 295.231627 235.924551 
L 299.19108 222.053833 
L 303.43335 215.114897 
L 307.581348 223.076411 
L 311.729346 233.779375 
L 315.971617 232.75773 
L 320.025342 232.952327 
L 324.079067 236.939423 
L 328.03852 257.76806 
L 336.051698 291.218845 
L 340.388241 297.52127 
L 344.536239 322.823457 
L 348.589965 326.475615 
L 352.64369 301.384309 
L 356.88596 314.568386 
L 360.939686 289.721867 
L 364.993411 262.417936 
L 368.952864 269.692589 
L 373.006589 273.757586 
L 377.437405 271.019329 
L 381.49113 268.241925 
L 385.544856 268.078026 
L 389.598581 275.395252 
L 393.840851 280.959749 
L 397.800304 278.014175 
L 401.854029 273.456936 
L 405.813482 272.862687 
L 409.96148 267.322295 
L 414.015205 262.808136 
L 418.257476 257.005133 
L 422.311201 271.974319 
L 426.364927 269.62241 
L 430.418652 282.523716 
L 434.472377 281.503025 
L 438.43183 280.316208 
L 442.6741 281.974709 
L 446.916371 252.699401 
L 450.970096 253.404709 
L 459.266092 258.877347 
L 463.319818 243.974802 
L 467.373543 245.627664 
L 471.332995 253.516696 
L 475.763811 260.894378 
L 479.911809 251.173089 
L 484.248353 249.074845 
L 488.302078 253.859396 
L 492.355803 266.649828 
L 496.409529 264.80302 
L 500.368981 264.374942 
L 504.422707 269.537134 
L 508.382159 268.019775 
L 512.718702 252.757957 
L 516.8667 252.162946 
L 520.920426 250.920683 
L 525.162696 251.397097 
L 529.216422 256.485388 
L 533.270147 257.867019 
L 537.323872 260.801428 
L 541.283325 255.787142 
L 545.33705 262.176879 
L 549.767866 260.422359 
L 553.821591 256.875135 
L 557.875317 257.20642 
L 562.117587 254.147285 
L 566.171313 260.739914 
L 570.130765 268.606958 
L 574.184491 270.377107 
L 578.143943 269.729293 
L 582.574759 271.4791 
L 586.722757 282.267416 
L 590.776483 279.874249 
L 594.735935 274.372462 
L 598.78966 278.300596 
L 603.031931 274.8585 
L 607.085656 274.899379 
L 611.045109 269.477801 
L 615.098834 257.077402 
L 619.52965 260.180286 
L 623.583376 266.942253 
L 627.637101 266.907066 
L 631.690826 265.764025 
L 635.744551 265.565811 
L 639.986822 258.409838 
L 643.946275 254.860677 
L 648 262.495419 
L 648 262.495419 
" style="fill:none;stroke:#d62728;stroke-linecap:square;stroke-width:2.275;"/>
   </g>
   <g id="line2d_19">
    <path clip-path="url(#p1ef4014c13)" d="M 90 245.066463 
L 93.959453 235.525834 
L 98.201723 232.170781 
L 102.443994 220.625098 
L 106.497719 219.964391 
L 110.73999 232.075876 
L 114.793715 228.365198 
L 118.84744 214.838416 
L 122.901166 229.49594 
L 126.860618 229.143587 
L 130.914344 251.330933 
L 135.250887 249.80731 
L 139.398885 238.440704 
L 143.358338 229.285724 
L 147.412063 238.095047 
L 151.748606 250.983887 
L 155.708059 251.632676 
L 159.761784 242.746451 
L 163.721237 255.761146 
L 167.869235 248.087451 
L 172.205778 252.115988 
L 176.259503 235.148787 
L 180.313229 253.515069 
L 184.649772 252.467896 
L 188.703497 251.79659 
L 192.757223 244.535709 
L 196.716675 239.953712 
L 200.7704 234.931761 
L 205.106944 235.809287 
L 209.160669 239.91259 
L 213.214394 248.598404 
L 217.26812 255.142775 
L 221.321845 253.774636 
L 225.281298 265.062917 
L 229.523568 260.088628 
L 233.483021 264.405702 
L 237.725291 264.245676 
L 241.779017 273.82954 
L 246.021287 279.918226 
L 250.075013 280.041752 
L 254.128738 275.563845 
L 258.182463 272.155775 
L 262.236189 273.106806 
L 266.195641 263.407973 
L 270.437912 260.030858 
L 274.774455 258.937687 
L 279.016726 254.915584 
L 283.070451 261.710542 
L 287.124176 266.032674 
L 291.177902 259.695125 
L 295.231627 262.651784 
L 299.19108 253.478123 
L 303.43335 249.581098 
L 307.581348 253.172394 
L 311.729346 248.15896 
L 315.971617 244.835638 
L 320.025342 249.075089 
L 324.079067 240.872378 
L 328.03852 232.546953 
L 332.092245 194.194046 
L 336.051698 182.560578 
L 340.388241 165.470262 
L 344.536239 187.700306 
L 348.589965 195.379781 
L 352.64369 195.30588 
L 356.88596 193.92533 
L 360.939686 205.360601 
L 364.993411 215.603723 
L 368.952864 199.148585 
L 373.006589 213.677478 
L 377.437405 215.074931 
L 381.49113 207.00861 
L 385.544856 203.751315 
L 389.598581 193.441007 
L 393.840851 197.248501 
L 397.800304 189.216561 
L 401.854029 186.363856 
L 405.813482 178.220825 
L 409.96148 193.02151 
L 414.015205 200.968926 
L 418.257476 208.310363 
L 422.311201 193.152753 
L 426.364927 175.499866 
L 430.418652 159.824089 
L 434.472377 142.472426 
L 438.43183 146.240745 
L 442.6741 134.688514 
L 446.916371 141.250127 
L 450.970096 141.312587 
L 455.212367 139.011351 
L 459.266092 134.070502 
L 463.319818 144.34393 
L 467.373543 147.692349 
L 471.332995 156.48431 
L 475.763811 147.80266 
L 479.911809 144.136479 
L 484.248353 146.30443 
L 488.302078 139.398554 
L 492.355803 141.301313 
L 496.409529 140.211586 
L 500.368981 133.618132 
L 504.422707 116.590954 
L 508.382159 119.652948 
L 512.718702 130.607665 
L 516.8667 140.782171 
L 520.920426 151.165275 
L 525.162696 156.003089 
L 529.216422 153.703067 
L 533.270147 140.194289 
L 537.323872 136.024034 
L 541.283325 121.106105 
L 545.33705 117.32368 
L 549.767866 135.186486 
L 553.821591 128.914034 
L 557.875317 120.870544 
L 562.117587 114.974457 
L 566.171313 93.139457 
L 570.130765 86.540102 
L 574.184491 70.625455 
L 578.143943 72.720069 
L 582.574759 80.631841 
L 586.722757 76.747689 
L 590.776483 90.824988 
L 594.735935 93.692965 
L 603.031931 114.263403 
L 607.085656 115.660001 
L 611.045109 127.430951 
L 615.098834 135.174328 
L 619.52965 137.919971 
L 623.583376 124.225182 
L 627.637101 135.498012 
L 631.690826 143.855173 
L 635.744551 128.659851 
L 639.986822 143.43033 
L 643.946275 144.181013 
L 648 135.148852 
L 648 135.148852 
" style="fill:none;stroke:#9467bd;stroke-linecap:square;stroke-width:2.275;"/>
   </g>
   <g id="patch_3">
    <path d="M 90 374.4 
L 90 56.16 
" style="fill:none;stroke:#000000;stroke-linecap:square;stroke-linejoin:miter;stroke-width:0.8;"/>
   </g>
   <g id="patch_4">
    <path d="M 648 374.4 
L 648 56.16 
" style="fill:none;stroke:#000000;stroke-linecap:square;stroke-linejoin:miter;stroke-width:0.8;"/>
   </g>
   <g id="patch_5">
    <path d="M 90 374.4 
L 648 374.4 
" style="fill:none;stroke:#000000;stroke-linecap:square;stroke-linejoin:miter;stroke-width:0.8;"/>
   </g>
   <g id="patch_6">
    <path d="M 90 56.16 
L 648 56.16 
" style="fill:none;stroke:#000000;stroke-linecap:square;stroke-linejoin:miter;stroke-width:0.8;"/>
   </g>
   <g id="text_17">
    <!-- EG weights example - monthly rebalancing -->
    <defs>
     <path d="M 9.8125 72.90625 
L 55.90625 72.90625 
L 55.90625 64.59375 
L 19.671875 64.59375 
L 19.671875 43.015625 
L 54.390625 43.015625 
L 54.390625 34.71875 
L 19.671875 34.71875 
L 19.671875 8.296875 
L 56.78125 8.296875 
L 56.78125 0 
L 9.8125 0 
z
" id="DejaVuSans-45"/>
     <path d="M 59.515625 10.40625 
L 59.515625 29.984375 
L 43.40625 29.984375 
L 43.40625 38.09375 
L 69.28125 38.09375 
L 69.28125 6.78125 
Q 63.578125 2.734375 56.6875 0.65625 
Q 49.8125 -1.421875 42 -1.421875 
Q 24.90625 -1.421875 15.25 8.5625 
Q 5.609375 18.5625 5.609375 36.375 
Q 5.609375 54.25 15.25 64.234375 
Q 24.90625 74.21875 42 74.21875 
Q 49.125 74.21875 55.546875 72.453125 
Q 61.96875 70.703125 67.390625 67.28125 
L 67.390625 56.78125 
Q 61.921875 61.421875 55.765625 63.765625 
Q 49.609375 66.109375 42.828125 66.109375 
Q 29.4375 66.109375 22.71875 58.640625 
Q 16.015625 51.171875 16.015625 36.375 
Q 16.015625 21.625 22.71875 14.15625 
Q 29.4375 6.6875 42.828125 6.6875 
Q 48.046875 6.6875 52.140625 7.59375 
Q 56.25 8.5 59.515625 10.40625 
z
" id="DejaVuSans-47"/>
     <path id="DejaVuSans-20"/>
     <path d="M 44.28125 53.078125 
L 44.28125 44.578125 
Q 40.484375 46.53125 36.375 47.5 
Q 32.28125 48.484375 27.875 48.484375 
Q 21.1875 48.484375 17.84375 46.4375 
Q 14.5 44.390625 14.5 40.28125 
Q 14.5 37.15625 16.890625 35.375 
Q 19.28125 33.59375 26.515625 31.984375 
L 29.59375 31.296875 
Q 39.15625 29.25 43.1875 25.515625 
Q 47.21875 21.78125 47.21875 15.09375 
Q 47.21875 7.46875 41.1875 3.015625 
Q 35.15625 -1.421875 24.609375 -1.421875 
Q 20.21875 -1.421875 15.453125 -0.5625 
Q 10.6875 0.296875 5.421875 2 
L 5.421875 11.28125 
Q 10.40625 8.6875 15.234375 7.390625 
Q 20.0625 6.109375 24.8125 6.109375 
Q 31.15625 6.109375 34.5625 8.28125 
Q 37.984375 10.453125 37.984375 14.40625 
Q 37.984375 18.0625 35.515625 20.015625 
Q 33.0625 21.96875 24.703125 23.78125 
L 21.578125 24.515625 
Q 13.234375 26.265625 9.515625 29.90625 
Q 5.8125 33.546875 5.8125 39.890625 
Q 5.8125 47.609375 11.28125 51.796875 
Q 16.75 56 26.8125 56 
Q 31.78125 56 36.171875 55.265625 
Q 40.578125 54.546875 44.28125 53.078125 
z
" id="DejaVuSans-73"/>
     <path d="M 54.890625 54.6875 
L 35.109375 28.078125 
L 55.90625 0 
L 45.3125 0 
L 29.390625 21.484375 
L 13.484375 0 
L 2.875 0 
L 24.125 28.609375 
L 4.6875 54.6875 
L 15.28125 54.6875 
L 29.78125 35.203125 
L 44.28125 54.6875 
z
" id="DejaVuSans-78"/>
     <path d="M 52 44.1875 
Q 55.375 50.25 60.0625 53.125 
Q 64.75 56 71.09375 56 
Q 79.640625 56 84.28125 50.015625 
Q 88.921875 44.046875 88.921875 33.015625 
L 88.921875 0 
L 79.890625 0 
L 79.890625 32.71875 
Q 79.890625 40.578125 77.09375 44.375 
Q 74.3125 48.1875 68.609375 48.1875 
Q 61.625 48.1875 57.5625 43.546875 
Q 53.515625 38.921875 53.515625 30.90625 
L 53.515625 0 
L 44.484375 0 
L 44.484375 32.71875 
Q 44.484375 40.625 41.703125 44.40625 
Q 38.921875 48.1875 33.109375 48.1875 
Q 26.21875 48.1875 22.15625 43.53125 
Q 18.109375 38.875 18.109375 30.90625 
L 18.109375 0 
L 9.078125 0 
L 9.078125 54.6875 
L 18.109375 54.6875 
L 18.109375 46.1875 
Q 21.1875 51.21875 25.484375 53.609375 
Q 29.78125 56 35.6875 56 
Q 41.65625 56 45.828125 52.96875 
Q 50 49.953125 52 44.1875 
z
" id="DejaVuSans-6d"/>
     <path d="M 18.109375 8.203125 
L 18.109375 -20.796875 
L 9.078125 -20.796875 
L 9.078125 54.6875 
L 18.109375 54.6875 
L 18.109375 46.390625 
Q 20.953125 51.265625 25.265625 53.625 
Q 29.59375 56 35.59375 56 
Q 45.5625 56 51.78125 48.09375 
Q 58.015625 40.1875 58.015625 27.296875 
Q 58.015625 14.40625 51.78125 6.484375 
Q 45.5625 -1.421875 35.59375 -1.421875 
Q 29.59375 -1.421875 25.265625 0.953125 
Q 20.953125 3.328125 18.109375 8.203125 
z
M 48.6875 27.296875 
Q 48.6875 37.203125 44.609375 42.84375 
Q 40.53125 48.484375 33.40625 48.484375 
Q 26.265625 48.484375 22.1875 42.84375 
Q 18.109375 37.203125 18.109375 27.296875 
Q 18.109375 17.390625 22.1875 11.75 
Q 26.265625 6.109375 33.40625 6.109375 
Q 40.53125 6.109375 44.609375 11.75 
Q 48.6875 17.390625 48.6875 27.296875 
z
" id="DejaVuSans-70"/>
     <path d="M 9.421875 75.984375 
L 18.40625 75.984375 
L 18.40625 0 
L 9.421875 0 
z
" id="DejaVuSans-6c"/>
     <path d="M 4.890625 31.390625 
L 31.203125 31.390625 
L 31.203125 23.390625 
L 4.890625 23.390625 
z
" id="DejaVuSans-2d"/>
     <path d="M 30.609375 48.390625 
Q 23.390625 48.390625 19.1875 42.75 
Q 14.984375 37.109375 14.984375 27.296875 
Q 14.984375 17.484375 19.15625 11.84375 
Q 23.34375 6.203125 30.609375 6.203125 
Q 37.796875 6.203125 41.984375 11.859375 
Q 46.1875 17.53125 46.1875 27.296875 
Q 46.1875 37.015625 41.984375 42.703125 
Q 37.796875 48.390625 30.609375 48.390625 
z
M 30.609375 56 
Q 42.328125 56 49.015625 48.375 
Q 55.71875 40.765625 55.71875 27.296875 
Q 55.71875 13.875 49.015625 6.21875 
Q 42.328125 -1.421875 30.609375 -1.421875 
Q 18.84375 -1.421875 12.171875 6.21875 
Q 5.515625 13.875 5.515625 27.296875 
Q 5.515625 40.765625 12.171875 48.375 
Q 18.84375 56 30.609375 56 
z
" id="DejaVuSans-6f"/>
     <path d="M 54.890625 33.015625 
L 54.890625 0 
L 45.90625 0 
L 45.90625 32.71875 
Q 45.90625 40.484375 42.875 44.328125 
Q 39.84375 48.1875 33.796875 48.1875 
Q 26.515625 48.1875 22.3125 43.546875 
Q 18.109375 38.921875 18.109375 30.90625 
L 18.109375 0 
L 9.078125 0 
L 9.078125 54.6875 
L 18.109375 54.6875 
L 18.109375 46.1875 
Q 21.34375 51.125 25.703125 53.5625 
Q 30.078125 56 35.796875 56 
Q 45.21875 56 50.046875 50.171875 
Q 54.890625 44.34375 54.890625 33.015625 
z
" id="DejaVuSans-6e"/>
     <path d="M 32.171875 -5.078125 
Q 28.375 -14.84375 24.75 -17.8125 
Q 21.140625 -20.796875 15.09375 -20.796875 
L 7.90625 -20.796875 
L 7.90625 -13.28125 
L 13.1875 -13.28125 
Q 16.890625 -13.28125 18.9375 -11.515625 
Q 21 -9.765625 23.484375 -3.21875 
L 25.09375 0.875 
L 2.984375 54.6875 
L 12.5 54.6875 
L 29.59375 11.921875 
L 46.6875 54.6875 
L 56.203125 54.6875 
z
" id="DejaVuSans-79"/>
     <path d="M 41.109375 46.296875 
Q 39.59375 47.171875 37.8125 47.578125 
Q 36.03125 48 33.890625 48 
Q 26.265625 48 22.1875 43.046875 
Q 18.109375 38.09375 18.109375 28.8125 
L 18.109375 0 
L 9.078125 0 
L 9.078125 54.6875 
L 18.109375 54.6875 
L 18.109375 46.1875 
Q 20.953125 51.171875 25.484375 53.578125 
Q 30.03125 56 36.53125 56 
Q 37.453125 56 38.578125 55.875 
Q 39.703125 55.765625 41.0625 55.515625 
z
" id="DejaVuSans-72"/>
     <path d="M 48.6875 27.296875 
Q 48.6875 37.203125 44.609375 42.84375 
Q 40.53125 48.484375 33.40625 48.484375 
Q 26.265625 48.484375 22.1875 42.84375 
Q 18.109375 37.203125 18.109375 27.296875 
Q 18.109375 17.390625 22.1875 11.75 
Q 26.265625 6.109375 33.40625 6.109375 
Q 40.53125 6.109375 44.609375 11.75 
Q 48.6875 17.390625 48.6875 27.296875 
z
M 18.109375 46.390625 
Q 20.953125 51.265625 25.265625 53.625 
Q 29.59375 56 35.59375 56 
Q 45.5625 56 51.78125 48.09375 
Q 58.015625 40.1875 58.015625 27.296875 
Q 58.015625 14.40625 51.78125 6.484375 
Q 45.5625 -1.421875 35.59375 -1.421875 
Q 29.59375 -1.421875 25.265625 0.953125 
Q 20.953125 3.328125 18.109375 8.203125 
L 18.109375 0 
L 9.078125 0 
L 9.078125 75.984375 
L 18.109375 75.984375 
z
" id="DejaVuSans-62"/>
     <path d="M 48.78125 52.59375 
L 48.78125 44.1875 
Q 44.96875 46.296875 41.140625 47.34375 
Q 37.3125 48.390625 33.40625 48.390625 
Q 24.65625 48.390625 19.8125 42.84375 
Q 14.984375 37.3125 14.984375 27.296875 
Q 14.984375 17.28125 19.8125 11.734375 
Q 24.65625 6.203125 33.40625 6.203125 
Q 37.3125 6.203125 41.140625 7.25 
Q 44.96875 8.296875 48.78125 10.40625 
L 48.78125 2.09375 
Q 45.015625 0.34375 40.984375 -0.53125 
Q 36.96875 -1.421875 32.421875 -1.421875 
Q 20.0625 -1.421875 12.78125 6.34375 
Q 5.515625 14.109375 5.515625 27.296875 
Q 5.515625 40.671875 12.859375 48.328125 
Q 20.21875 56 33.015625 56 
Q 37.15625 56 41.109375 55.140625 
Q 45.0625 54.296875 48.78125 52.59375 
z
" id="DejaVuSans-63"/>
    </defs>
    <g transform="translate(200.672344 50.16)scale(0.156 -0.156)">
     <use xlink:href="#DejaVuSans-45"/>
     <use x="63.183594" xlink:href="#DejaVuSans-47"/>
     <use x="140.673828" xlink:href="#DejaVuSans-20"/>
     <use x="172.460938" xlink:href="#DejaVuSans-77"/>
     <use x="254.248047" xlink:href="#DejaVuSans-65"/>
     <use x="315.771484" xlink:href="#DejaVuSans-69"/>
     <use x="343.554688" xlink:href="#DejaVuSans-67"/>
     <use x="407.03125" xlink:href="#DejaVuSans-68"/>
     <use x="470.410156" xlink:href="#DejaVuSans-74"/>
     <use x="509.619141" xlink:href="#DejaVuSans-73"/>
     <use x="561.71875" xlink:href="#DejaVuSans-20"/>
     <use x="593.505859" xlink:href="#DejaVuSans-65"/>
     <use x="655.013672" xlink:href="#DejaVuSans-78"/>
     <use x="714.193359" xlink:href="#DejaVuSans-61"/>
     <use x="775.472656" xlink:href="#DejaVuSans-6d"/>
     <use x="872.884766" xlink:href="#DejaVuSans-70"/>
     <use x="936.361328" xlink:href="#DejaVuSans-6c"/>
     <use x="964.144531" xlink:href="#DejaVuSans-65"/>
     <use x="1025.667969" xlink:href="#DejaVuSans-20"/>
     <use x="1057.455078" xlink:href="#DejaVuSans-2d"/>
     <use x="1093.539062" xlink:href="#DejaVuSans-20"/>
     <use x="1125.326172" xlink:href="#DejaVuSans-6d"/>
     <use x="1222.738281" xlink:href="#DejaVuSans-6f"/>
     <use x="1283.919922" xlink:href="#DejaVuSans-6e"/>
     <use x="1347.298828" xlink:href="#DejaVuSans-74"/>
     <use x="1386.507812" xlink:href="#DejaVuSans-68"/>
     <use x="1449.886719" xlink:href="#DejaVuSans-6c"/>
     <use x="1477.669922" xlink:href="#DejaVuSans-79"/>
     <use x="1536.849609" xlink:href="#DejaVuSans-20"/>
     <use x="1568.636719" xlink:href="#DejaVuSans-72"/>
     <use x="1609.71875" xlink:href="#DejaVuSans-65"/>
     <use x="1671.242188" xlink:href="#DejaVuSans-62"/>
     <use x="1734.71875" xlink:href="#DejaVuSans-61"/>
     <use x="1795.998047" xlink:href="#DejaVuSans-6c"/>
     <use x="1823.78125" xlink:href="#DejaVuSans-61"/>
     <use x="1885.060547" xlink:href="#DejaVuSans-6e"/>
     <use x="1948.439453" xlink:href="#DejaVuSans-63"/>
     <use x="2003.419922" xlink:href="#DejaVuSans-69"/>
     <use x="2031.203125" xlink:href="#DejaVuSans-6e"/>
     <use x="2094.582031" xlink:href="#DejaVuSans-67"/>
    </g>
   </g>
   <g id="legend_1">
    <g id="patch_7">
     <path d="M 99.1 161.967813 
L 164.459531 161.967813 
Q 167.059531 161.967813 167.059531 159.367813 
L 167.059531 65.26 
Q 167.059531 62.66 164.459531 62.66 
L 99.1 62.66 
Q 96.5 62.66 96.5 65.26 
L 96.5 159.367813 
Q 96.5 161.967813 99.1 161.967813 
z
" style="fill:#ffffff;opacity:0.8;stroke:#cccccc;stroke-linejoin:miter;stroke-width:0.39;"/>
    </g>
    <g id="line2d_20">
     <path d="M 101.7 73.187969 
L 127.7 73.187969 
" style="fill:none;stroke:#1f77b4;stroke-linecap:square;stroke-width:2.275;"/>
    </g>
    <g id="line2d_21"/>
    <g id="text_18">
     <!-- aig -->
     <g transform="translate(138.1 77.737969)scale(0.13 -0.13)">
      <use xlink:href="#DejaVuSans-61"/>
      <use x="61.279297" xlink:href="#DejaVuSans-69"/>
      <use x="89.0625" xlink:href="#DejaVuSans-67"/>
     </g>
    </g>
    <g id="line2d_22">
     <path d="M 101.7 92.269531 
L 127.7 92.269531 
" style="fill:none;stroke:#ff7f0e;stroke-linecap:square;stroke-width:2.275;"/>
    </g>
    <g id="line2d_23"/>
    <g id="text_19">
     <!-- k -->
     <defs>
      <path d="M 9.078125 75.984375 
L 18.109375 75.984375 
L 18.109375 31.109375 
L 44.921875 54.6875 
L 56.390625 54.6875 
L 27.390625 29.109375 
L 57.625 0 
L 45.90625 0 
L 18.109375 26.703125 
L 18.109375 0 
L 9.078125 0 
z
" id="DejaVuSans-6b"/>
     </defs>
     <g transform="translate(138.1 96.819531)scale(0.13 -0.13)">
      <use xlink:href="#DejaVuSans-6b"/>
     </g>
    </g>
    <g id="line2d_24">
     <path d="M 101.7 111.351094 
L 127.7 111.351094 
" style="fill:none;stroke:#2ca02c;stroke-linecap:square;stroke-width:2.275;"/>
    </g>
    <g id="line2d_25"/>
    <g id="text_20">
     <!-- glw -->
     <g transform="translate(138.1 115.901094)scale(0.13 -0.13)">
      <use xlink:href="#DejaVuSans-67"/>
      <use x="63.476562" xlink:href="#DejaVuSans-6c"/>
      <use x="91.259766" xlink:href="#DejaVuSans-77"/>
     </g>
    </g>
    <g id="line2d_26">
     <path d="M 101.7 130.432656 
L 127.7 130.432656 
" style="fill:none;stroke:#d62728;stroke-linecap:square;stroke-width:2.275;"/>
    </g>
    <g id="line2d_27"/>
    <g id="text_21">
     <!-- txt -->
     <g transform="translate(138.1 134.982656)scale(0.13 -0.13)">
      <use xlink:href="#DejaVuSans-74"/>
      <use x="39.208984" xlink:href="#DejaVuSans-78"/>
      <use x="98.388672" xlink:href="#DejaVuSans-74"/>
     </g>
    </g>
    <g id="line2d_28">
     <path d="M 101.7 149.514219 
L 127.7 149.514219 
" style="fill:none;stroke:#9467bd;stroke-linecap:square;stroke-width:2.275;"/>
    </g>
    <g id="line2d_29"/>
    <g id="text_22">
     <!-- nke -->
     <g transform="translate(138.1 154.064219)scale(0.13 -0.13)">
      <use xlink:href="#DejaVuSans-6e"/>
      <use x="63.378906" xlink:href="#DejaVuSans-6b"/>
      <use x="121.242188" xlink:href="#DejaVuSans-65"/>
     </g>
    </g>
   </g>
  </g>
 </g>
 <defs>
  <clipPath id="p1ef4014c13">
   <rect height="318.24" width="558" x="90" y="56.16"/>
  </clipPath>
 </defs>
</svg>
