<?xml version="1.0" encoding="utf-8" standalone="no"?>
<!DOCTYPE svg PUBLIC "-//W3C//DTD SVG 1.1//EN"
  "http://www.w3.org/Graphics/SVG/1.1/DTD/svg11.dtd">
<!-- Created with matplotlib (http://matplotlib.org/) -->
<svg height="468pt" version="1.1" viewBox="0 0 720 468" width="720pt" xmlns="http://www.w3.org/2000/svg" xmlns:xlink="http://www.w3.org/1999/xlink">
 <defs>
  <style type="text/css">
*{stroke-linecap:butt;stroke-linejoin:round;}
  </style>
 </defs>
 <g id="figure_1">
  <g id="patch_1">
   <path d="M 0 468 
L 720 468 
L 720 0 
L 0 0 
z
" style="fill:#ffffff;"/>
  </g>
  <g id="axes_1">
   <g id="patch_2">
    <path d="M 90 374.4 
L 648 374.4 
L 648 56.16 
L 90 56.16 
z
" style="fill:#eaeaf2;"/>
   </g>
   <g id="matplotlib.axis_1">
    <g id="xtick_1">
     <g id="line2d_1">
      <path clip-path="url(#p6a4deb4969)" d="M 134.025342 374.4 
L 134.025342 56.16 
" style="fill:none;stroke:#ffffff;stroke-linecap:round;stroke-width:1.3;"/>
     </g>
     <g id="line2d_2"/>
     <g id="text_1">
      <!-- 2003 -->
      <defs>
       <path d="M 50.34375 8.453125 
L 50.34375 0 
L 3.03125 0 
Q 2.9375 3.171875 4.046875 6.109375 
Q 5.859375 10.9375 9.828125 15.625 
Q 13.8125 20.3125 21.34375 26.46875 
Q 33.015625 36.03125 37.109375 41.625 
Q 41.21875 47.21875 41.21875 52.203125 
Q 41.21875 57.421875 37.46875 61 
Q 33.734375 64.59375 27.734375 64.59375 
Q 21.390625 64.59375 17.578125 60.78125 
Q 13.765625 56.984375 13.71875 50.25 
L 4.6875 51.171875 
Q 5.609375 61.28125 11.65625 66.578125 
Q 17.71875 71.875 27.9375 71.875 
Q 38.234375 71.875 44.234375 66.15625 
Q 50.25 60.453125 50.25 52 
Q 50.25 47.703125 48.484375 43.546875 
Q 46.734375 39.40625 42.65625 34.8125 
Q 38.578125 30.21875 29.109375 22.21875 
Q 21.1875 15.578125 18.9375 13.203125 
Q 16.703125 10.84375 15.234375 8.453125 
z
" id="ArialMT-32"/>
       <path d="M 4.15625 35.296875 
Q 4.15625 48 6.765625 55.734375 
Q 9.375 63.484375 14.515625 67.671875 
Q 19.671875 71.875 27.484375 71.875 
Q 33.25 71.875 37.59375 69.546875 
Q 41.9375 67.234375 44.765625 62.859375 
Q 47.609375 58.5 49.21875 52.21875 
Q 50.828125 45.953125 50.828125 35.296875 
Q 50.828125 22.703125 48.234375 14.96875 
Q 45.65625 7.234375 40.5 3 
Q 35.359375 -1.21875 27.484375 -1.21875 
Q 17.140625 -1.21875 11.234375 6.203125 
Q 4.15625 15.140625 4.15625 35.296875 
z
M 13.1875 35.296875 
Q 13.1875 17.671875 17.3125 11.828125 
Q 21.4375 6 27.484375 6 
Q 33.546875 6 37.671875 11.859375 
Q 41.796875 17.71875 41.796875 35.296875 
Q 41.796875 52.984375 37.671875 58.78125 
Q 33.546875 64.59375 27.390625 64.59375 
Q 21.34375 64.59375 17.71875 59.46875 
Q 13.1875 52.9375 13.1875 35.296875 
z
" id="ArialMT-30"/>
       <path d="M 4.203125 18.890625 
L 12.984375 20.0625 
Q 14.5 12.59375 18.140625 9.296875 
Q 21.78125 6 27 6 
Q 33.203125 6 37.46875 10.296875 
Q 41.75 14.59375 41.75 20.953125 
Q 41.75 27 37.796875 30.921875 
Q 33.84375 34.859375 27.734375 34.859375 
Q 25.25 34.859375 21.53125 33.890625 
L 22.515625 41.609375 
Q 23.390625 41.5 23.921875 41.5 
Q 29.546875 41.5 34.03125 44.421875 
Q 38.53125 47.359375 38.53125 53.46875 
Q 38.53125 58.296875 35.25 61.46875 
Q 31.984375 64.65625 26.8125 64.65625 
Q 21.6875 64.65625 18.265625 61.421875 
Q 14.84375 58.203125 13.875 51.765625 
L 5.078125 53.328125 
Q 6.6875 62.15625 12.390625 67.015625 
Q 18.109375 71.875 26.609375 71.875 
Q 32.46875 71.875 37.390625 69.359375 
Q 42.328125 66.84375 44.9375 62.5 
Q 47.5625 58.15625 47.5625 53.265625 
Q 47.5625 48.640625 45.0625 44.828125 
Q 42.578125 41.015625 37.703125 38.765625 
Q 44.046875 37.3125 47.5625 32.6875 
Q 51.078125 28.078125 51.078125 21.140625 
Q 51.078125 11.765625 44.234375 5.25 
Q 37.40625 -1.265625 26.953125 -1.265625 
Q 17.53125 -1.265625 11.296875 4.34375 
Q 5.078125 9.96875 4.203125 18.890625 
z
" id="ArialMT-33"/>
      </defs>
      <g style="fill:#262626;" transform="translate(107.690719 406.016939)rotate(-30)scale(0.13 -0.13)">
       <use xlink:href="#ArialMT-32"/>
       <use x="55.615234" xlink:href="#ArialMT-30"/>
       <use x="111.230469" xlink:href="#ArialMT-30"/>
       <use x="166.845703" xlink:href="#ArialMT-33"/>
      </g>
     </g>
    </g>
    <g id="xtick_2">
     <g id="line2d_3">
      <path clip-path="url(#p6a4deb4969)" d="M 202.938672 374.4 
L 202.938672 56.16 
" style="fill:none;stroke:#ffffff;stroke-linecap:round;stroke-width:1.3;"/>
     </g>
     <g id="line2d_4"/>
     <g id="text_2">
      <!-- 2005 -->
      <defs>
       <path d="M 4.15625 18.75 
L 13.375 19.53125 
Q 14.40625 12.796875 18.140625 9.390625 
Q 21.875 6 27.15625 6 
Q 33.5 6 37.890625 10.78125 
Q 42.28125 15.578125 42.28125 23.484375 
Q 42.28125 31 38.0625 35.34375 
Q 33.84375 39.703125 27 39.703125 
Q 22.75 39.703125 19.328125 37.765625 
Q 15.921875 35.84375 13.96875 32.765625 
L 5.71875 33.84375 
L 12.640625 70.609375 
L 48.25 70.609375 
L 48.25 62.203125 
L 19.671875 62.203125 
L 15.828125 42.96875 
Q 22.265625 47.46875 29.34375 47.46875 
Q 38.71875 47.46875 45.15625 40.96875 
Q 51.609375 34.46875 51.609375 24.265625 
Q 51.609375 14.546875 45.953125 7.46875 
Q 39.0625 -1.21875 27.15625 -1.21875 
Q 17.390625 -1.21875 11.203125 4.25 
Q 5.03125 9.71875 4.15625 18.75 
z
" id="ArialMT-35"/>
      </defs>
      <g style="fill:#262626;" transform="translate(176.604049 406.016939)rotate(-30)scale(0.13 -0.13)">
       <use xlink:href="#ArialMT-32"/>
       <use x="55.615234" xlink:href="#ArialMT-30"/>
       <use x="111.230469" xlink:href="#ArialMT-30"/>
       <use x="166.845703" xlink:href="#ArialMT-35"/>
      </g>
     </g>
    </g>
    <g id="xtick_3">
     <g id="line2d_5">
      <path clip-path="url(#p6a4deb4969)" d="M 271.757729 374.4 
L 271.757729 56.16 
" style="fill:none;stroke:#ffffff;stroke-linecap:round;stroke-width:1.3;"/>
     </g>
     <g id="line2d_6"/>
     <g id="text_3">
      <!-- 2007 -->
      <defs>
       <path d="M 4.734375 62.203125 
L 4.734375 70.65625 
L 51.078125 70.65625 
L 51.078125 63.8125 
Q 44.234375 56.546875 37.515625 44.484375 
Q 30.8125 32.421875 27.15625 19.671875 
Q 24.515625 10.6875 23.78125 0 
L 14.75 0 
Q 14.890625 8.453125 18.0625 20.40625 
Q 21.234375 32.375 27.171875 43.484375 
Q 33.109375 54.59375 39.796875 62.203125 
z
" id="ArialMT-37"/>
      </defs>
      <g style="fill:#262626;" transform="translate(245.423106 406.016939)rotate(-30)scale(0.13 -0.13)">
       <use xlink:href="#ArialMT-32"/>
       <use x="55.615234" xlink:href="#ArialMT-30"/>
       <use x="111.230469" xlink:href="#ArialMT-30"/>
       <use x="166.845703" xlink:href="#ArialMT-37"/>
      </g>
     </g>
    </g>
    <g id="xtick_4">
     <g id="line2d_7">
      <path clip-path="url(#p6a4deb4969)" d="M 340.671059 374.4 
L 340.671059 56.16 
" style="fill:none;stroke:#ffffff;stroke-linecap:round;stroke-width:1.3;"/>
     </g>
     <g id="line2d_8"/>
     <g id="text_4">
      <!-- 2009 -->
      <defs>
       <path d="M 5.46875 16.546875 
L 13.921875 17.328125 
Q 14.984375 11.375 18.015625 8.6875 
Q 21.046875 6 25.78125 6 
Q 29.828125 6 32.875 7.859375 
Q 35.9375 9.71875 37.890625 12.8125 
Q 39.84375 15.921875 41.15625 21.1875 
Q 42.484375 26.46875 42.484375 31.9375 
Q 42.484375 32.515625 42.4375 33.6875 
Q 39.796875 29.5 35.234375 26.875 
Q 30.671875 24.265625 25.34375 24.265625 
Q 16.453125 24.265625 10.296875 30.703125 
Q 4.15625 37.15625 4.15625 47.703125 
Q 4.15625 58.59375 10.578125 65.234375 
Q 17 71.875 26.65625 71.875 
Q 33.640625 71.875 39.421875 68.109375 
Q 45.21875 64.359375 48.21875 57.390625 
Q 51.21875 50.4375 51.21875 37.25 
Q 51.21875 23.53125 48.234375 15.40625 
Q 45.265625 7.28125 39.375 3.03125 
Q 33.5 -1.21875 25.59375 -1.21875 
Q 17.1875 -1.21875 11.859375 3.4375 
Q 6.546875 8.109375 5.46875 16.546875 
z
M 41.453125 48.140625 
Q 41.453125 55.71875 37.421875 60.15625 
Q 33.40625 64.59375 27.734375 64.59375 
Q 21.875 64.59375 17.53125 59.8125 
Q 13.1875 55.03125 13.1875 47.40625 
Q 13.1875 40.578125 17.3125 36.296875 
Q 21.4375 32.03125 27.484375 32.03125 
Q 33.59375 32.03125 37.515625 36.296875 
Q 41.453125 40.578125 41.453125 48.140625 
z
" id="ArialMT-39"/>
      </defs>
      <g style="fill:#262626;" transform="translate(314.336436 406.016939)rotate(-30)scale(0.13 -0.13)">
       <use xlink:href="#ArialMT-32"/>
       <use x="55.615234" xlink:href="#ArialMT-30"/>
       <use x="111.230469" xlink:href="#ArialMT-30"/>
       <use x="166.845703" xlink:href="#ArialMT-39"/>
      </g>
     </g>
    </g>
    <g id="xtick_5">
     <g id="line2d_9">
      <path clip-path="url(#p6a4deb4969)" d="M 409.490117 374.4 
L 409.490117 56.16 
" style="fill:none;stroke:#ffffff;stroke-linecap:round;stroke-width:1.3;"/>
     </g>
     <g id="line2d_10"/>
     <g id="text_5">
      <!-- 2011 -->
      <defs>
       <path d="M 37.25 0 
L 28.46875 0 
L 28.46875 56 
Q 25.296875 52.984375 20.140625 49.953125 
Q 14.984375 46.921875 10.890625 45.40625 
L 10.890625 53.90625 
Q 18.265625 57.375 23.78125 62.296875 
Q 29.296875 67.234375 31.59375 71.875 
L 37.25 71.875 
z
" id="ArialMT-31"/>
      </defs>
      <g style="fill:#262626;" transform="translate(383.167807 406.00983)rotate(-30)scale(0.13 -0.13)">
       <use xlink:href="#ArialMT-32"/>
       <use x="55.615234" xlink:href="#ArialMT-30"/>
       <use x="111.230469" xlink:href="#ArialMT-31"/>
       <use x="166.736328" xlink:href="#ArialMT-31"/>
      </g>
     </g>
    </g>
    <g id="xtick_6">
     <g id="line2d_11">
      <path clip-path="url(#p6a4deb4969)" d="M 478.403447 374.4 
L 478.403447 56.16 
" style="fill:none;stroke:#ffffff;stroke-linecap:round;stroke-width:1.3;"/>
     </g>
     <g id="line2d_12"/>
     <g id="text_6">
      <!-- 2013 -->
      <g style="fill:#262626;" transform="translate(452.068823 406.016939)rotate(-30)scale(0.13 -0.13)">
       <use xlink:href="#ArialMT-32"/>
       <use x="55.615234" xlink:href="#ArialMT-30"/>
       <use x="111.230469" xlink:href="#ArialMT-31"/>
       <use x="166.845703" xlink:href="#ArialMT-33"/>
      </g>
     </g>
    </g>
    <g id="xtick_7">
     <g id="line2d_13">
      <path clip-path="url(#p6a4deb4969)" d="M 547.222504 374.4 
L 547.222504 56.16 
" style="fill:none;stroke:#ffffff;stroke-linecap:round;stroke-width:1.3;"/>
     </g>
     <g id="line2d_14"/>
     <g id="text_7">
      <!-- 2015 -->
      <g style="fill:#262626;" transform="translate(520.88788 406.016939)rotate(-30)scale(0.13 -0.13)">
       <use xlink:href="#ArialMT-32"/>
       <use x="55.615234" xlink:href="#ArialMT-30"/>
       <use x="111.230469" xlink:href="#ArialMT-31"/>
       <use x="166.845703" xlink:href="#ArialMT-35"/>
      </g>
     </g>
    </g>
    <g id="xtick_8">
     <g id="line2d_15">
      <path clip-path="url(#p6a4deb4969)" d="M 616.135834 374.4 
L 616.135834 56.16 
" style="fill:none;stroke:#ffffff;stroke-linecap:round;stroke-width:1.3;"/>
     </g>
     <g id="line2d_16"/>
     <g id="text_8">
      <!-- 2017 -->
      <g style="fill:#262626;" transform="translate(589.80121 406.016939)rotate(-30)scale(0.13 -0.13)">
       <use xlink:href="#ArialMT-32"/>
       <use x="55.615234" xlink:href="#ArialMT-30"/>
       <use x="111.230469" xlink:href="#ArialMT-31"/>
       <use x="166.845703" xlink:href="#ArialMT-37"/>
      </g>
     </g>
    </g>
    <g id="text_9">
     <!-- Date -->
     <defs>
      <path d="M 7.71875 0 
L 7.71875 71.578125 
L 32.375 71.578125 
Q 40.71875 71.578125 45.125 70.5625 
Q 51.265625 69.140625 55.609375 65.4375 
Q 61.28125 60.640625 64.078125 53.1875 
Q 66.890625 45.75 66.890625 36.1875 
Q 66.890625 28.03125 64.984375 21.734375 
Q 63.09375 15.4375 60.109375 11.296875 
Q 57.125 7.171875 53.578125 4.796875 
Q 50.046875 2.4375 45.046875 1.21875 
Q 40.046875 0 33.546875 0 
z
M 17.1875 8.453125 
L 32.46875 8.453125 
Q 39.546875 8.453125 43.578125 9.765625 
Q 47.609375 11.078125 50 13.484375 
Q 53.375 16.84375 55.25 22.53125 
Q 57.125 28.21875 57.125 36.328125 
Q 57.125 47.5625 53.4375 53.59375 
Q 49.75 59.625 44.484375 61.671875 
Q 40.671875 63.140625 32.234375 63.140625 
L 17.1875 63.140625 
z
" id="ArialMT-44"/>
      <path d="M 40.4375 6.390625 
Q 35.546875 2.25 31.03125 0.53125 
Q 26.515625 -1.171875 21.34375 -1.171875 
Q 12.796875 -1.171875 8.203125 3 
Q 3.609375 7.171875 3.609375 13.671875 
Q 3.609375 17.484375 5.34375 20.625 
Q 7.078125 23.78125 9.890625 25.6875 
Q 12.703125 27.59375 16.21875 28.5625 
Q 18.796875 29.25 24.03125 29.890625 
Q 34.671875 31.15625 39.703125 32.90625 
Q 39.75 34.71875 39.75 35.203125 
Q 39.75 40.578125 37.25 42.78125 
Q 33.890625 45.75 27.25 45.75 
Q 21.046875 45.75 18.09375 43.578125 
Q 15.140625 41.40625 13.71875 35.890625 
L 5.125 37.0625 
Q 6.296875 42.578125 8.984375 45.96875 
Q 11.671875 49.359375 16.75 51.1875 
Q 21.828125 53.03125 28.515625 53.03125 
Q 35.15625 53.03125 39.296875 51.46875 
Q 43.453125 49.90625 45.40625 47.53125 
Q 47.359375 45.171875 48.140625 41.546875 
Q 48.578125 39.3125 48.578125 33.453125 
L 48.578125 21.734375 
Q 48.578125 9.46875 49.140625 6.21875 
Q 49.703125 2.984375 51.375 0 
L 42.1875 0 
Q 40.828125 2.734375 40.4375 6.390625 
z
M 39.703125 26.03125 
Q 34.90625 24.078125 25.34375 22.703125 
Q 19.921875 21.921875 17.671875 20.9375 
Q 15.4375 19.96875 14.203125 18.09375 
Q 12.984375 16.21875 12.984375 13.921875 
Q 12.984375 10.40625 15.640625 8.0625 
Q 18.3125 5.71875 23.4375 5.71875 
Q 28.515625 5.71875 32.46875 7.9375 
Q 36.421875 10.15625 38.28125 14.015625 
Q 39.703125 17 39.703125 22.796875 
z
" id="ArialMT-61"/>
      <path d="M 25.78125 7.859375 
L 27.046875 0.09375 
Q 23.34375 -0.6875 20.40625 -0.6875 
Q 15.625 -0.6875 12.984375 0.828125 
Q 10.359375 2.34375 9.28125 4.8125 
Q 8.203125 7.28125 8.203125 15.1875 
L 8.203125 45.015625 
L 1.765625 45.015625 
L 1.765625 51.859375 
L 8.203125 51.859375 
L 8.203125 64.703125 
L 16.9375 69.96875 
L 16.9375 51.859375 
L 25.78125 51.859375 
L 25.78125 45.015625 
L 16.9375 45.015625 
L 16.9375 14.703125 
Q 16.9375 10.9375 17.40625 9.859375 
Q 17.875 8.796875 18.921875 8.15625 
Q 19.96875 7.515625 21.921875 7.515625 
Q 23.390625 7.515625 25.78125 7.859375 
z
" id="ArialMT-74"/>
      <path d="M 42.09375 16.703125 
L 51.171875 15.578125 
Q 49.03125 7.625 43.21875 3.21875 
Q 37.40625 -1.171875 28.375 -1.171875 
Q 17 -1.171875 10.328125 5.828125 
Q 3.65625 12.84375 3.65625 25.484375 
Q 3.65625 38.578125 10.390625 45.796875 
Q 17.140625 53.03125 27.875 53.03125 
Q 38.28125 53.03125 44.875 45.953125 
Q 51.46875 38.875 51.46875 26.03125 
Q 51.46875 25.25 51.421875 23.6875 
L 12.75 23.6875 
Q 13.234375 15.140625 17.578125 10.59375 
Q 21.921875 6.0625 28.421875 6.0625 
Q 33.25 6.0625 36.671875 8.59375 
Q 40.09375 11.140625 42.09375 16.703125 
z
M 13.234375 30.90625 
L 42.1875 30.90625 
Q 41.609375 37.453125 38.875 40.71875 
Q 34.671875 45.796875 27.984375 45.796875 
Q 21.921875 45.796875 17.796875 41.75 
Q 13.671875 37.703125 13.234375 30.90625 
z
" id="ArialMT-65"/>
     </defs>
     <g style="fill:#262626;" transform="translate(353.897859 422.490204)scale(0.143 -0.143)">
      <use xlink:href="#ArialMT-44"/>
      <use x="72.216797" xlink:href="#ArialMT-61"/>
      <use x="127.832031" xlink:href="#ArialMT-74"/>
      <use x="155.615234" xlink:href="#ArialMT-65"/>
     </g>
    </g>
   </g>
   <g id="matplotlib.axis_2">
    <g id="ytick_1">
     <g id="line2d_17">
      <path clip-path="url(#p6a4deb4969)" d="M 90 362.296184 
L 648 362.296184 
" style="fill:none;stroke:#ffffff;stroke-linecap:round;stroke-width:1.3;"/>
     </g>
     <g id="line2d_18"/>
     <g id="text_10">
      <!-- 0.0 -->
      <defs>
       <path d="M 9.078125 0 
L 9.078125 10.015625 
L 19.09375 10.015625 
L 19.09375 0 
z
" id="ArialMT-2e"/>
      </defs>
      <g style="fill:#262626;" transform="translate(62.83 366.948762)scale(0.13 -0.13)">
       <use xlink:href="#ArialMT-30"/>
       <use x="55.615234" xlink:href="#ArialMT-2e"/>
       <use x="83.398438" xlink:href="#ArialMT-30"/>
      </g>
     </g>
    </g>
    <g id="ytick_2">
     <g id="line2d_19">
      <path clip-path="url(#p6a4deb4969)" d="M 90 303.681323 
L 648 303.681323 
" style="fill:none;stroke:#ffffff;stroke-linecap:round;stroke-width:1.3;"/>
     </g>
     <g id="line2d_20"/>
     <g id="text_11">
      <!-- 0.1 -->
      <g style="fill:#262626;" transform="translate(62.83 308.333902)scale(0.13 -0.13)">
       <use xlink:href="#ArialMT-30"/>
       <use x="55.615234" xlink:href="#ArialMT-2e"/>
       <use x="83.398438" xlink:href="#ArialMT-31"/>
      </g>
     </g>
    </g>
    <g id="ytick_3">
     <g id="line2d_21">
      <path clip-path="url(#p6a4deb4969)" d="M 90 245.066463 
L 648 245.066463 
" style="fill:none;stroke:#ffffff;stroke-linecap:round;stroke-width:1.3;"/>
     </g>
     <g id="line2d_22"/>
     <g id="text_12">
      <!-- 0.2 -->
      <g style="fill:#262626;" transform="translate(62.83 249.719041)scale(0.13 -0.13)">
       <use xlink:href="#ArialMT-30"/>
       <use x="55.615234" xlink:href="#ArialMT-2e"/>
       <use x="83.398438" xlink:href="#ArialMT-32"/>
      </g>
     </g>
    </g>
    <g id="ytick_4">
     <g id="line2d_23">
      <path clip-path="url(#p6a4deb4969)" d="M 90 186.451602 
L 648 186.451602 
" style="fill:none;stroke:#ffffff;stroke-linecap:round;stroke-width:1.3;"/>
     </g>
     <g id="line2d_24"/>
     <g id="text_13">
      <!-- 0.3 -->
      <g style="fill:#262626;" transform="translate(62.83 191.10418)scale(0.13 -0.13)">
       <use xlink:href="#ArialMT-30"/>
       <use x="55.615234" xlink:href="#ArialMT-2e"/>
       <use x="83.398438" xlink:href="#ArialMT-33"/>
      </g>
     </g>
    </g>
    <g id="ytick_5">
     <g id="line2d_25">
      <path clip-path="url(#p6a4deb4969)" d="M 90 127.836741 
L 648 127.836741 
" style="fill:none;stroke:#ffffff;stroke-linecap:round;stroke-width:1.3;"/>
     </g>
     <g id="line2d_26"/>
     <g id="text_14">
      <!-- 0.4 -->
      <defs>
       <path d="M 32.328125 0 
L 32.328125 17.140625 
L 1.265625 17.140625 
L 1.265625 25.203125 
L 33.9375 71.578125 
L 41.109375 71.578125 
L 41.109375 25.203125 
L 50.78125 25.203125 
L 50.78125 17.140625 
L 41.109375 17.140625 
L 41.109375 0 
z
M 32.328125 25.203125 
L 32.328125 57.46875 
L 9.90625 25.203125 
z
" id="ArialMT-34"/>
      </defs>
      <g style="fill:#262626;" transform="translate(62.83 132.489319)scale(0.13 -0.13)">
       <use xlink:href="#ArialMT-30"/>
       <use x="55.615234" xlink:href="#ArialMT-2e"/>
       <use x="83.398438" xlink:href="#ArialMT-34"/>
      </g>
     </g>
    </g>
    <g id="ytick_6">
     <g id="line2d_27">
      <path clip-path="url(#p6a4deb4969)" d="M 90 69.22188 
L 648 69.22188 
" style="fill:none;stroke:#ffffff;stroke-linecap:round;stroke-width:1.3;"/>
     </g>
     <g id="line2d_28"/>
     <g id="text_15">
      <!-- 0.5 -->
      <g style="fill:#262626;" transform="translate(62.83 73.874458)scale(0.13 -0.13)">
       <use xlink:href="#ArialMT-30"/>
       <use x="55.615234" xlink:href="#ArialMT-2e"/>
       <use x="83.398438" xlink:href="#ArialMT-35"/>
      </g>
     </g>
    </g>
    <g id="text_16">
     <!-- weight -->
     <defs>
      <path d="M 16.15625 0 
L 0.296875 51.859375 
L 9.375 51.859375 
L 17.625 21.921875 
L 20.703125 10.796875 
Q 20.90625 11.625 23.390625 21.484375 
L 31.640625 51.859375 
L 40.671875 51.859375 
L 48.4375 21.78125 
L 51.03125 11.859375 
L 54 21.875 
L 62.890625 51.859375 
L 71.4375 51.859375 
L 55.21875 0 
L 46.09375 0 
L 37.84375 31.0625 
L 35.84375 39.890625 
L 25.34375 0 
z
" id="ArialMT-77"/>
      <path d="M 6.640625 61.46875 
L 6.640625 71.578125 
L 15.4375 71.578125 
L 15.4375 61.46875 
z
M 6.640625 0 
L 6.640625 51.859375 
L 15.4375 51.859375 
L 15.4375 0 
z
" id="ArialMT-69"/>
      <path d="M 4.984375 -4.296875 
L 13.53125 -5.5625 
Q 14.0625 -9.515625 16.5 -11.328125 
Q 19.78125 -13.765625 25.4375 -13.765625 
Q 31.546875 -13.765625 34.859375 -11.328125 
Q 38.1875 -8.890625 39.359375 -4.5 
Q 40.046875 -1.8125 39.984375 6.78125 
Q 34.234375 0 25.640625 0 
Q 14.9375 0 9.078125 7.71875 
Q 3.21875 15.4375 3.21875 26.21875 
Q 3.21875 33.640625 5.90625 39.90625 
Q 8.59375 46.1875 13.6875 49.609375 
Q 18.796875 53.03125 25.6875 53.03125 
Q 34.859375 53.03125 40.828125 45.609375 
L 40.828125 51.859375 
L 48.921875 51.859375 
L 48.921875 7.03125 
Q 48.921875 -5.078125 46.453125 -10.125 
Q 44 -15.1875 38.640625 -18.109375 
Q 33.296875 -21.046875 25.484375 -21.046875 
Q 16.21875 -21.046875 10.5 -16.875 
Q 4.78125 -12.703125 4.984375 -4.296875 
z
M 12.25 26.859375 
Q 12.25 16.65625 16.296875 11.96875 
Q 20.359375 7.28125 26.46875 7.28125 
Q 32.515625 7.28125 36.609375 11.9375 
Q 40.71875 16.609375 40.71875 26.5625 
Q 40.71875 36.078125 36.5 40.90625 
Q 32.28125 45.75 26.3125 45.75 
Q 20.453125 45.75 16.34375 40.984375 
Q 12.25 36.234375 12.25 26.859375 
z
" id="ArialMT-67"/>
      <path d="M 6.59375 0 
L 6.59375 71.578125 
L 15.375 71.578125 
L 15.375 45.90625 
Q 21.53125 53.03125 30.90625 53.03125 
Q 36.671875 53.03125 40.921875 50.75 
Q 45.171875 48.484375 47 44.484375 
Q 48.828125 40.484375 48.828125 32.859375 
L 48.828125 0 
L 40.046875 0 
L 40.046875 32.859375 
Q 40.046875 39.453125 37.1875 42.453125 
Q 34.328125 45.453125 29.109375 45.453125 
Q 25.203125 45.453125 21.75 43.421875 
Q 18.3125 41.40625 16.84375 37.9375 
Q 15.375 34.46875 15.375 28.375 
L 15.375 0 
z
" id="ArialMT-68"/>
     </defs>
     <g style="fill:#262626;" transform="translate(55.820297 235.946852)rotate(-90)scale(0.143 -0.143)">
      <use xlink:href="#ArialMT-77"/>
      <use x="72.216797" xlink:href="#ArialMT-65"/>
      <use x="127.832031" xlink:href="#ArialMT-69"/>
      <use x="150.048828" xlink:href="#ArialMT-67"/>
      <use x="205.664062" xlink:href="#ArialMT-68"/>
      <use x="261.279297" xlink:href="#ArialMT-74"/>
     </g>
    </g>
   </g>
   <g id="line2d_29">
    <path clip-path="url(#p6a4deb4969)" d="M 90 245.066463 
L 93.959453 223.870129 
L 98.201723 229.95293 
L 102.443994 246.466033 
L 106.497719 249.426938 
L 110.73999 253.784741 
L 114.793715 252.113482 
L 118.84744 255.958196 
L 122.901166 240.721844 
L 126.860618 234.94696 
L 130.914344 256.317102 
L 135.250887 261.965279 
L 139.398885 273.456705 
L 143.358338 274.54096 
L 147.412063 276.318659 
L 151.748606 283.984191 
L 155.708059 279.007452 
L 159.761784 286.625795 
L 163.721237 295.283198 
L 167.869235 291.062748 
L 172.205778 288.996955 
L 176.259503 287.789064 
L 180.313229 289.831634 
L 184.649772 291.671494 
L 188.703497 293.075714 
L 192.757223 292.123081 
L 196.716675 303.761429 
L 200.7704 300.155468 
L 205.106944 299.043195 
L 209.160669 300.899929 
L 213.214394 312.006468 
L 217.26812 314.938336 
L 221.321845 312.474082 
L 225.281298 314.571743 
L 229.523568 311.734832 
L 233.483021 311.757849 
L 237.725291 309.771253 
L 241.779017 315.797465 
L 246.021287 320.03038 
L 250.075013 318.967239 
L 254.128738 319.990821 
L 258.182463 314.721526 
L 262.236189 317.442804 
L 266.195641 314.806306 
L 270.437912 310.64893 
L 274.774455 314.616377 
L 279.016726 317.230128 
L 283.070451 317.873193 
L 287.124176 318.706551 
L 291.177902 322.126209 
L 295.231627 323.578596 
L 299.19108 326.006421 
L 303.43335 330.116699 
L 307.581348 325.121482 
L 311.729346 331.571615 
L 315.971617 335.425803 
L 320.025342 339.961169 
L 324.079067 342.398022 
L 328.03852 346.082471 
L 332.092245 354.963002 
L 336.051698 356.788952 
L 340.388241 357.701375 
L 344.536239 359.234715 
L 348.589965 359.17555 
L 352.64369 356.567975 
L 356.88596 358.114022 
L 360.939686 359.934545 
L 364.993411 347.306216 
L 368.952864 348.927985 
L 373.006589 351.989803 
L 377.437405 353.672048 
L 381.49113 348.851482 
L 385.544856 347.787668 
L 389.598581 348.580638 
L 393.840851 348.213683 
L 397.800304 348.472492 
L 401.854029 347.42344 
L 405.813482 347.697004 
L 409.96148 340.905273 
L 414.015205 347.740994 
L 418.257476 349.242529 
L 422.311201 350.431216 
L 426.364927 350.672639 
L 430.418652 351.507211 
L 434.472377 351.825952 
L 442.6741 351.980607 
L 446.916371 351.579778 
L 450.970096 351.77791 
L 455.212367 349.193564 
L 459.266092 349.964548 
L 463.319818 348.712 
L 467.373543 348.063906 
L 471.332995 347.148432 
L 475.763811 348.155311 
L 479.911809 348.446857 
L 484.248353 347.853754 
L 488.302078 348.286601 
L 492.355803 346.856166 
L 496.409529 346.889578 
L 500.368981 346.290168 
L 504.422707 346.113287 
L 508.382159 347.726964 
L 512.718702 347.814935 
L 520.920426 348.535683 
L 525.162696 348.116837 
L 529.216422 347.525433 
L 533.270147 347.797941 
L 537.323872 347.391064 
L 541.283325 349.067234 
L 545.33705 349.037591 
L 549.767866 350.687276 
L 553.821591 349.030151 
L 557.875317 348.999217 
L 562.117587 348.118292 
L 566.171313 347.441194 
L 570.130765 347.772101 
L 574.184491 349.119935 
L 578.143943 348.938609 
L 582.574759 348.906735 
L 586.722757 350.397904 
L 590.776483 350.44955 
L 594.735935 349.072107 
L 598.78966 349.98877 
L 603.031931 349.337512 
L 607.085656 349.200914 
L 611.045109 348.557684 
L 615.098834 347.720055 
L 619.52965 348.393917 
L 623.583376 349.474416 
L 627.637101 349.362566 
L 631.690826 348.962973 
L 635.744551 349.172551 
L 639.986822 349.692718 
L 643.946275 348.934717 
L 648 350.865959 
L 648 350.865959 
" style="fill:none;stroke:#4c72b0;stroke-linecap:round;stroke-width:2.275;"/>
   </g>
   <g id="line2d_30">
    <path clip-path="url(#p6a4deb4969)" d="M 90 245.066463 
L 93.959453 239.482819 
L 98.201723 249.953216 
L 102.443994 251.176985 
L 106.497719 246.555127 
L 110.73999 230.128459 
L 114.793715 217.92956 
L 118.84744 214.61953 
L 122.901166 203.337458 
L 126.860618 201.026497 
L 130.914344 232.509763 
L 135.250887 233.582869 
L 139.398885 236.972776 
L 143.358338 238.62467 
L 147.412063 237.129361 
L 151.748606 249.450219 
L 155.708059 256.196018 
L 159.761784 260.570528 
L 163.721237 268.512723 
L 167.869235 263.772827 
L 172.205778 271.286757 
L 176.259503 265.063176 
L 180.313229 257.979034 
L 184.649772 264.926982 
L 188.703497 266.420154 
L 192.757223 261.747451 
L 196.716675 263.928793 
L 200.7704 266.313118 
L 205.106944 263.214798 
L 209.160669 267.554333 
L 213.214394 265.563416 
L 217.26812 272.398167 
L 221.321845 278.324269 
L 225.281298 278.623722 
L 229.523568 276.560556 
L 233.483021 284.863263 
L 237.725291 285.409113 
L 241.779017 291.726189 
L 246.021287 297.238072 
L 250.075013 289.694683 
L 254.128738 282.641286 
L 258.182463 273.068433 
L 262.236189 282.221265 
L 270.437912 279.187788 
L 274.774455 284.12863 
L 283.070451 284.162685 
L 287.124176 289.739286 
L 291.177902 290.107389 
L 295.231627 285.484987 
L 299.19108 291.35997 
L 303.43335 292.467464 
L 307.581348 289.904525 
L 311.729346 288.181518 
L 315.971617 290.58271 
L 320.025342 294.567827 
L 324.079067 277.486912 
L 328.03852 270.557428 
L 336.051698 217.946632 
L 340.388241 227.118466 
L 344.536239 232.347056 
L 348.589965 255.366078 
L 352.64369 255.762063 
L 356.88596 250.748915 
L 360.939686 259.178685 
L 364.993411 260.942092 
L 368.952864 257.062488 
L 373.006589 261.262226 
L 377.437405 260.393466 
L 381.49113 267.310262 
L 385.544856 274.003946 
L 389.598581 258.765146 
L 393.840851 261.668225 
L 397.800304 263.488199 
L 401.854029 274.15236 
L 405.813482 275.104621 
L 409.96148 278.225601 
L 414.015205 283.559931 
L 418.257476 273.158734 
L 422.311201 268.279759 
L 426.364927 267.838475 
L 430.418652 257.825903 
L 434.472377 254.649702 
L 438.43183 267.243906 
L 442.6741 263.02292 
L 446.916371 271.140271 
L 450.970096 274.189243 
L 455.212367 277.18775 
L 459.266092 275.300285 
L 463.319818 270.342115 
L 467.373543 269.615029 
L 471.332995 267.970703 
L 475.763811 257.71878 
L 479.911809 260.909742 
L 484.248353 258.242034 
L 488.302078 259.01731 
L 492.355803 265.672162 
L 496.409529 261.544725 
L 500.368981 266.585586 
L 504.422707 273.94404 
L 512.718702 283.169601 
L 516.8667 284.963818 
L 520.920426 283.624555 
L 525.162696 278.766115 
L 529.216422 281.042794 
L 533.270147 282.2951 
L 537.323872 285.079234 
L 541.283325 288.509278 
L 545.33705 287.680718 
L 549.767866 289.28567 
L 553.821591 294.053754 
L 557.875317 294.039691 
L 562.117587 295.019884 
L 566.171313 293.897047 
L 570.130765 286.576948 
L 574.184491 290.278232 
L 578.143943 294.565696 
L 582.574759 284.525333 
L 586.722757 281.95985 
L 590.776483 282.24895 
L 594.735935 280.586128 
L 598.78966 274.27797 
L 603.031931 277.78829 
L 607.085656 281.922138 
L 611.045109 279.897785 
L 615.098834 287.728165 
L 619.52965 290.111174 
L 623.583376 291.206794 
L 627.637101 294.80205 
L 631.690826 290.911491 
L 635.744551 298.331988 
L 639.986822 294.619464 
L 643.946275 302.251637 
L 648 300.632796 
L 648 300.632796 
" style="fill:none;stroke:#55a868;stroke-linecap:round;stroke-width:2.275;"/>
   </g>
   <g id="line2d_31">
    <path clip-path="url(#p6a4deb4969)" d="M 90 245.066463 
L 93.959453 264.17382 
L 98.201723 259.821791 
L 102.443994 270.837327 
L 106.497719 276.225587 
L 110.73999 284.046205 
L 114.793715 307.722674 
L 118.84744 309.542581 
L 122.901166 325.553373 
L 126.860618 334.016994 
L 130.914344 247.707746 
L 135.250887 243.918218 
L 139.398885 228.08853 
L 143.358338 208.92274 
L 147.412063 211.59594 
L 151.748606 178.915211 
L 155.708059 186.367597 
L 159.761784 170.758352 
L 163.721237 149.421649 
L 167.869235 177.90773 
L 172.205778 154.491849 
L 176.259503 178.813728 
L 180.313229 167.676868 
L 184.649772 164.956456 
L 188.703497 167.296107 
L 192.757223 182.693801 
L 196.716675 180.996684 
L 200.7704 190.323533 
L 205.106944 187.259565 
L 209.160669 192.400287 
L 213.214394 166.241144 
L 217.26812 142.533889 
L 221.321845 134.144844 
L 225.281298 110.618967 
L 229.523568 119.67129 
L 233.483021 108.041629 
L 237.725291 111.077873 
L 241.779017 91.127576 
L 246.021287 76.38749 
L 250.075013 93.166671 
L 254.128738 101.260496 
L 258.182463 128.062876 
L 262.236189 94.398886 
L 266.195641 123.870544 
L 270.437912 135.84775 
L 274.774455 125.221019 
L 279.016726 119.793564 
L 283.070451 119.259359 
L 287.124176 107.884011 
L 291.177902 123.358072 
L 295.231627 117.692396 
L 299.19108 132.433966 
L 303.43335 138.052156 
L 307.581348 134.057502 
L 311.729346 123.640846 
L 315.971617 121.730433 
L 320.025342 108.775902 
L 324.079067 127.635578 
L 328.03852 118.377401 
L 332.092245 157.5869 
L 336.051698 176.817307 
L 340.388241 177.520941 
L 344.536239 123.226779 
L 348.589965 88.935289 
L 352.64369 116.312087 
L 356.88596 107.97566 
L 360.939686 111.136615 
L 364.993411 139.062346 
L 368.952864 150.500665 
L 373.006589 124.64522 
L 377.437405 125.17254 
L 381.49113 133.920033 
L 385.544856 131.711358 
L 389.598581 149.150271 
L 393.840851 137.242156 
L 397.800304 146.140887 
L 401.854029 143.935721 
L 405.813482 151.447176 
L 409.96148 145.857635 
L 414.015205 130.254327 
L 418.257476 137.615555 
L 422.311201 141.494266 
L 426.364927 161.698923 
L 430.418652 173.651395 
L 434.472377 194.881209 
L 438.43183 179.650065 
L 442.6741 193.665563 
L 446.916371 208.662737 
L 450.970096 204.647865 
L 455.212367 203.726386 
L 459.266092 207.119631 
L 463.319818 217.959466 
L 467.373543 214.333366 
L 471.332995 200.212173 
L 479.911809 220.666147 
L 484.248353 223.85725 
L 488.302078 224.770452 
L 492.355803 204.852845 
L 496.409529 211.883405 
L 500.368981 214.463486 
L 504.422707 219.146899 
L 508.382159 211.549775 
L 512.718702 210.982156 
L 516.8667 199.243688 
L 520.920426 191.086119 
L 525.162696 191.049174 
L 529.216422 186.575631 
L 533.270147 197.177964 
L 537.323872 196.036553 
L 541.283325 210.862555 
L 545.33705 209.113446 
L 549.767866 189.750522 
L 553.821591 196.459239 
L 557.875317 204.216442 
L 562.117587 213.072396 
L 566.171313 230.114701 
L 570.130765 235.836203 
L 574.184491 244.931586 
L 578.143943 239.378646 
L 582.574759 239.789304 
L 586.722757 233.959455 
L 590.776483 221.934577 
L 594.735935 227.608651 
L 598.78966 219.077737 
L 603.031931 209.084608 
L 607.085656 203.649882 
L 611.045109 199.968092 
L 615.098834 197.632364 
L 619.52965 188.726966 
L 623.583376 193.483668 
L 627.637101 178.762619 
L 631.690826 175.838652 
L 635.744551 183.602112 
L 643.946275 175.104269 
L 648 176.189288 
L 648 176.189288 
" style="fill:none;stroke:#c44e52;stroke-linecap:round;stroke-width:2.275;"/>
   </g>
   <g id="line2d_32">
    <path clip-path="url(#p6a4deb4969)" d="M 90 245.066463 
L 93.959453 262.279711 
L 98.201723 253.433595 
L 102.443994 236.226872 
L 106.497719 233.160269 
L 110.73999 225.297033 
L 114.793715 219.201399 
L 118.84744 230.37359 
L 122.901166 226.223698 
L 126.860618 226.198276 
L 130.914344 237.466769 
L 135.250887 236.058637 
L 139.398885 248.373598 
L 143.358338 273.958219 
L 147.412063 262.193306 
L 151.748606 261.998805 
L 155.708059 252.128571 
L 159.761784 264.631187 
L 163.721237 256.353597 
L 167.869235 244.501558 
L 172.205778 258.440765 
L 176.259503 258.517559 
L 180.313229 256.329709 
L 188.703497 246.743749 
L 192.757223 244.232271 
L 196.716675 236.691695 
L 200.7704 233.608433 
L 205.106944 240.005469 
L 209.160669 224.565173 
L 213.214394 232.922881 
L 217.26812 240.319147 
L 221.321845 246.614482 
L 225.281298 256.454964 
L 229.523568 257.277008 
L 233.483021 256.263869 
L 237.725291 254.828398 
L 241.779017 252.851542 
L 246.021287 251.758146 
L 250.075013 243.461969 
L 254.128738 245.875865 
L 258.182463 237.323703 
L 262.236189 258.162554 
L 266.195641 242.442421 
L 270.437912 239.616988 
L 274.774455 242.4286 
L 279.016726 249.299867 
L 283.070451 242.326533 
L 287.124176 242.969791 
L 291.177902 230.045519 
L 295.231627 235.924551 
L 299.19108 222.053833 
L 303.43335 215.114897 
L 307.581348 223.076411 
L 311.729346 233.779375 
L 315.971617 232.75773 
L 320.025342 232.952327 
L 324.079067 236.939423 
L 328.03852 257.76806 
L 336.051698 291.218845 
L 340.388241 297.52127 
L 344.536239 322.823457 
L 348.589965 326.475615 
L 352.64369 301.384309 
L 356.88596 314.568386 
L 360.939686 289.721867 
L 364.993411 262.417936 
L 368.952864 269.692589 
L 373.006589 273.757586 
L 377.437405 271.019329 
L 381.49113 268.241925 
L 385.544856 268.078026 
L 389.598581 275.395252 
L 393.840851 280.959749 
L 397.800304 278.014175 
L 401.854029 273.456936 
L 405.813482 272.862687 
L 409.96148 267.322295 
L 414.015205 262.808136 
L 418.257476 257.005133 
L 422.311201 271.974319 
L 426.364927 269.62241 
L 430.418652 282.523716 
L 434.472377 281.503025 
L 438.43183 280.316208 
L 442.6741 281.974709 
L 446.916371 252.699401 
L 450.970096 253.404709 
L 459.266092 258.877347 
L 463.319818 243.974802 
L 467.373543 245.627664 
L 471.332995 253.516696 
L 475.763811 260.894378 
L 479.911809 251.173089 
L 484.248353 249.074845 
L 488.302078 253.859396 
L 492.355803 266.649828 
L 496.409529 264.80302 
L 500.368981 264.374942 
L 504.422707 269.537134 
L 508.382159 268.019775 
L 512.718702 252.757957 
L 516.8667 252.162946 
L 520.920426 250.920683 
L 525.162696 251.397097 
L 529.216422 256.485388 
L 533.270147 257.867019 
L 537.323872 260.801428 
L 541.283325 255.787142 
L 545.33705 262.176879 
L 549.767866 260.422359 
L 553.821591 256.875135 
L 557.875317 257.20642 
L 562.117587 254.147285 
L 566.171313 260.739914 
L 570.130765 268.606958 
L 574.184491 270.377107 
L 578.143943 269.729293 
L 582.574759 271.4791 
L 586.722757 282.267416 
L 590.776483 279.874249 
L 594.735935 274.372462 
L 598.78966 278.300596 
L 603.031931 274.8585 
L 607.085656 274.899379 
L 611.045109 269.477801 
L 615.098834 257.077402 
L 619.52965 260.180286 
L 623.583376 266.942253 
L 627.637101 266.907066 
L 631.690826 265.764025 
L 635.744551 265.565811 
L 639.986822 258.409838 
L 643.946275 254.860677 
L 648 262.495419 
L 648 262.495419 
" style="fill:none;stroke:#8172b2;stroke-linecap:round;stroke-width:2.275;"/>
   </g>
   <g id="line2d_33">
    <path clip-path="url(#p6a4deb4969)" d="M 90 245.066463 
L 93.959453 235.525834 
L 98.201723 232.170781 
L 102.443994 220.625098 
L 106.497719 219.964391 
L 110.73999 232.075876 
L 114.793715 228.365198 
L 118.84744 214.838416 
L 122.901166 229.49594 
L 126.860618 229.143587 
L 130.914344 251.330933 
L 135.250887 249.80731 
L 139.398885 238.440704 
L 143.358338 229.285724 
L 147.412063 238.095047 
L 151.748606 250.983887 
L 155.708059 251.632676 
L 159.761784 242.746451 
L 163.721237 255.761146 
L 167.869235 248.087451 
L 172.205778 252.115988 
L 176.259503 235.148787 
L 180.313229 253.515069 
L 184.649772 252.467896 
L 188.703497 251.79659 
L 192.757223 244.535709 
L 196.716675 239.953712 
L 200.7704 234.931761 
L 205.106944 235.809287 
L 209.160669 239.91259 
L 213.214394 248.598404 
L 217.26812 255.142775 
L 221.321845 253.774636 
L 225.281298 265.062917 
L 229.523568 260.088628 
L 233.483021 264.405702 
L 237.725291 264.245676 
L 241.779017 273.82954 
L 246.021287 279.918226 
L 250.075013 280.041752 
L 254.128738 275.563845 
L 258.182463 272.155775 
L 262.236189 273.106806 
L 266.195641 263.407973 
L 270.437912 260.030858 
L 274.774455 258.937687 
L 279.016726 254.915584 
L 283.070451 261.710542 
L 287.124176 266.032674 
L 291.177902 259.695125 
L 295.231627 262.651784 
L 299.19108 253.478123 
L 303.43335 249.581098 
L 307.581348 253.172394 
L 311.729346 248.15896 
L 315.971617 244.835638 
L 320.025342 249.075089 
L 324.079067 240.872378 
L 328.03852 232.546953 
L 332.092245 194.194046 
L 336.051698 182.560578 
L 340.388241 165.470262 
L 344.536239 187.700306 
L 348.589965 195.379781 
L 352.64369 195.30588 
L 356.88596 193.92533 
L 360.939686 205.360601 
L 364.993411 215.603723 
L 368.952864 199.148585 
L 373.006589 213.677478 
L 377.437405 215.074931 
L 381.49113 207.00861 
L 385.544856 203.751315 
L 389.598581 193.441007 
L 393.840851 197.248501 
L 397.800304 189.216561 
L 401.854029 186.363856 
L 405.813482 178.220825 
L 409.96148 193.02151 
L 414.015205 200.968926 
L 418.257476 208.310363 
L 422.311201 193.152753 
L 426.364927 175.499866 
L 430.418652 159.824089 
L 434.472377 142.472426 
L 438.43183 146.240745 
L 442.6741 134.688514 
L 446.916371 141.250127 
L 450.970096 141.312587 
L 455.212367 139.011351 
L 459.266092 134.070502 
L 463.319818 144.34393 
L 467.373543 147.692349 
L 471.332995 156.48431 
L 475.763811 147.80266 
L 479.911809 144.136479 
L 484.248353 146.30443 
L 488.302078 139.398554 
L 492.355803 141.301313 
L 496.409529 140.211586 
L 500.368981 133.618132 
L 504.422707 116.590954 
L 508.382159 119.652948 
L 512.718702 130.607665 
L 516.8667 140.782171 
L 520.920426 151.165275 
L 525.162696 156.003089 
L 529.216422 153.703067 
L 533.270147 140.194289 
L 537.323872 136.024034 
L 541.283325 121.106105 
L 545.33705 117.32368 
L 549.767866 135.186486 
L 553.821591 128.914034 
L 557.875317 120.870544 
L 562.117587 114.974457 
L 566.171313 93.139457 
L 570.130765 86.540102 
L 574.184491 70.625455 
L 578.143943 72.720069 
L 582.574759 80.631841 
L 586.722757 76.747689 
L 590.776483 90.824988 
L 594.735935 93.692965 
L 603.031931 114.263403 
L 607.085656 115.660001 
L 611.045109 127.430951 
L 615.098834 135.174328 
L 619.52965 137.919971 
L 623.583376 124.225182 
L 627.637101 135.498012 
L 631.690826 143.855173 
L 635.744551 128.659851 
L 639.986822 143.43033 
L 643.946275 144.181013 
L 648 135.148852 
L 648 135.148852 
" style="fill:none;stroke:#ccb974;stroke-linecap:round;stroke-width:2.275;"/>
   </g>
   <g id="patch_3">
    <path d="M 90 374.4 
L 90 56.16 
" style="fill:none;"/>
   </g>
   <g id="patch_4">
    <path d="M 648 374.4 
L 648 56.16 
" style="fill:none;"/>
   </g>
   <g id="patch_5">
    <path d="M 90 374.4 
L 648 374.4 
" style="fill:none;"/>
   </g>
   <g id="patch_6">
    <path d="M 90 56.16 
L 648 56.16 
" style="fill:none;"/>
   </g>
   <g id="text_17">
    <!-- EG weights example - monthly rebalancing -->
    <defs>
     <path d="M 7.90625 0 
L 7.90625 71.578125 
L 59.671875 71.578125 
L 59.671875 63.140625 
L 17.390625 63.140625 
L 17.390625 41.21875 
L 56.984375 41.21875 
L 56.984375 32.8125 
L 17.390625 32.8125 
L 17.390625 8.453125 
L 61.328125 8.453125 
L 61.328125 0 
z
" id="ArialMT-45"/>
     <path d="M 41.21875 28.078125 
L 41.21875 36.46875 
L 71.53125 36.53125 
L 71.53125 9.96875 
Q 64.546875 4.390625 57.125 1.578125 
Q 49.703125 -1.21875 41.890625 -1.21875 
Q 31.34375 -1.21875 22.71875 3.296875 
Q 14.109375 7.8125 9.71875 16.359375 
Q 5.328125 24.90625 5.328125 35.453125 
Q 5.328125 45.90625 9.6875 54.953125 
Q 14.0625 64.015625 22.265625 68.40625 
Q 30.46875 72.796875 41.15625 72.796875 
Q 48.921875 72.796875 55.1875 70.28125 
Q 61.46875 67.78125 65.03125 63.28125 
Q 68.609375 58.796875 70.453125 51.5625 
L 61.921875 49.21875 
Q 60.296875 54.6875 57.90625 57.8125 
Q 55.515625 60.9375 51.0625 62.8125 
Q 46.625 64.703125 41.21875 64.703125 
Q 34.71875 64.703125 29.984375 62.71875 
Q 25.25 60.75 22.34375 57.515625 
Q 19.4375 54.296875 17.828125 50.4375 
Q 15.09375 43.796875 15.09375 36.03125 
Q 15.09375 26.46875 18.390625 20.015625 
Q 21.6875 13.578125 27.984375 10.453125 
Q 34.28125 7.328125 41.359375 7.328125 
Q 47.515625 7.328125 53.375 9.6875 
Q 59.234375 12.0625 62.25 14.75 
L 62.25 28.078125 
z
" id="ArialMT-47"/>
     <path id="ArialMT-20"/>
     <path d="M 3.078125 15.484375 
L 11.765625 16.84375 
Q 12.5 11.625 15.84375 8.84375 
Q 19.1875 6.0625 25.203125 6.0625 
Q 31.25 6.0625 34.171875 8.515625 
Q 37.109375 10.984375 37.109375 14.3125 
Q 37.109375 17.28125 34.515625 19 
Q 32.71875 20.171875 25.53125 21.96875 
Q 15.875 24.421875 12.140625 26.203125 
Q 8.40625 27.984375 6.46875 31.125 
Q 4.546875 34.28125 4.546875 38.09375 
Q 4.546875 41.546875 6.125 44.5 
Q 7.71875 47.46875 10.453125 49.421875 
Q 12.5 50.921875 16.03125 51.96875 
Q 19.578125 53.03125 23.640625 53.03125 
Q 29.734375 53.03125 34.34375 51.265625 
Q 38.96875 49.515625 41.15625 46.5 
Q 43.359375 43.5 44.1875 38.484375 
L 35.59375 37.3125 
Q 35.015625 41.3125 32.203125 43.546875 
Q 29.390625 45.796875 24.265625 45.796875 
Q 18.21875 45.796875 15.625 43.796875 
Q 13.03125 41.796875 13.03125 39.109375 
Q 13.03125 37.40625 14.109375 36.03125 
Q 15.1875 34.625 17.484375 33.6875 
Q 18.796875 33.203125 25.25 31.453125 
Q 34.578125 28.953125 38.25 27.359375 
Q 41.9375 25.78125 44.03125 22.75 
Q 46.140625 19.734375 46.140625 15.234375 
Q 46.140625 10.84375 43.578125 6.953125 
Q 41.015625 3.078125 36.171875 0.953125 
Q 31.34375 -1.171875 25.25 -1.171875 
Q 15.140625 -1.171875 9.84375 3.03125 
Q 4.546875 7.234375 3.078125 15.484375 
z
" id="ArialMT-73"/>
     <path d="M 0.734375 0 
L 19.671875 26.953125 
L 2.15625 51.859375 
L 13.140625 51.859375 
L 21.09375 39.703125 
Q 23.34375 36.234375 24.703125 33.890625 
Q 26.859375 37.109375 28.65625 39.59375 
L 37.40625 51.859375 
L 47.90625 51.859375 
L 29.984375 27.4375 
L 49.265625 0 
L 38.484375 0 
L 27.828125 16.109375 
L 25 20.453125 
L 11.375 0 
z
" id="ArialMT-78"/>
     <path d="M 6.59375 0 
L 6.59375 51.859375 
L 14.453125 51.859375 
L 14.453125 44.578125 
Q 16.890625 48.390625 20.9375 50.703125 
Q 25 53.03125 30.171875 53.03125 
Q 35.9375 53.03125 39.625 50.640625 
Q 43.3125 48.25 44.828125 43.953125 
Q 50.984375 53.03125 60.84375 53.03125 
Q 68.5625 53.03125 72.703125 48.75 
Q 76.859375 44.484375 76.859375 35.59375 
L 76.859375 0 
L 68.109375 0 
L 68.109375 32.671875 
Q 68.109375 37.9375 67.25 40.25 
Q 66.40625 42.578125 64.15625 43.984375 
Q 61.921875 45.40625 58.890625 45.40625 
Q 53.421875 45.40625 49.796875 41.765625 
Q 46.1875 38.140625 46.1875 30.125 
L 46.1875 0 
L 37.40625 0 
L 37.40625 33.6875 
Q 37.40625 39.546875 35.25 42.46875 
Q 33.109375 45.40625 28.21875 45.40625 
Q 24.515625 45.40625 21.359375 43.453125 
Q 18.21875 41.5 16.796875 37.734375 
Q 15.375 33.984375 15.375 26.90625 
L 15.375 0 
z
" id="ArialMT-6d"/>
     <path d="M 6.59375 -19.875 
L 6.59375 51.859375 
L 14.59375 51.859375 
L 14.59375 45.125 
Q 17.4375 49.078125 21 51.046875 
Q 24.5625 53.03125 29.640625 53.03125 
Q 36.28125 53.03125 41.359375 49.609375 
Q 46.4375 46.1875 49.015625 39.953125 
Q 51.609375 33.734375 51.609375 26.3125 
Q 51.609375 18.359375 48.75 11.984375 
Q 45.90625 5.609375 40.453125 2.21875 
Q 35.015625 -1.171875 29 -1.171875 
Q 24.609375 -1.171875 21.109375 0.6875 
Q 17.625 2.546875 15.375 5.375 
L 15.375 -19.875 
z
M 14.546875 25.640625 
Q 14.546875 15.625 18.59375 10.84375 
Q 22.65625 6.0625 28.421875 6.0625 
Q 34.28125 6.0625 38.453125 11.015625 
Q 42.625 15.96875 42.625 26.375 
Q 42.625 36.28125 38.546875 41.203125 
Q 34.46875 46.140625 28.8125 46.140625 
Q 23.1875 46.140625 18.859375 40.890625 
Q 14.546875 35.640625 14.546875 25.640625 
z
" id="ArialMT-70"/>
     <path d="M 6.390625 0 
L 6.390625 71.578125 
L 15.1875 71.578125 
L 15.1875 0 
z
" id="ArialMT-6c"/>
     <path d="M 3.171875 21.484375 
L 3.171875 30.328125 
L 30.171875 30.328125 
L 30.171875 21.484375 
z
" id="ArialMT-2d"/>
     <path d="M 3.328125 25.921875 
Q 3.328125 40.328125 11.328125 47.265625 
Q 18.015625 53.03125 27.640625 53.03125 
Q 38.328125 53.03125 45.109375 46.015625 
Q 51.90625 39.015625 51.90625 26.65625 
Q 51.90625 16.65625 48.90625 10.90625 
Q 45.90625 5.171875 40.15625 2 
Q 34.421875 -1.171875 27.640625 -1.171875 
Q 16.75 -1.171875 10.03125 5.8125 
Q 3.328125 12.796875 3.328125 25.921875 
z
M 12.359375 25.921875 
Q 12.359375 15.96875 16.703125 11.015625 
Q 21.046875 6.0625 27.640625 6.0625 
Q 34.1875 6.0625 38.53125 11.03125 
Q 42.875 16.015625 42.875 26.21875 
Q 42.875 35.84375 38.5 40.796875 
Q 34.125 45.75 27.640625 45.75 
Q 21.046875 45.75 16.703125 40.8125 
Q 12.359375 35.890625 12.359375 25.921875 
z
" id="ArialMT-6f"/>
     <path d="M 6.59375 0 
L 6.59375 51.859375 
L 14.5 51.859375 
L 14.5 44.484375 
Q 20.21875 53.03125 31 53.03125 
Q 35.6875 53.03125 39.625 51.34375 
Q 43.5625 49.65625 45.515625 46.921875 
Q 47.46875 44.1875 48.25 40.4375 
Q 48.734375 37.984375 48.734375 31.890625 
L 48.734375 0 
L 39.9375 0 
L 39.9375 31.546875 
Q 39.9375 36.921875 38.90625 39.578125 
Q 37.890625 42.234375 35.28125 43.8125 
Q 32.671875 45.40625 29.15625 45.40625 
Q 23.53125 45.40625 19.453125 41.84375 
Q 15.375 38.28125 15.375 28.328125 
L 15.375 0 
z
" id="ArialMT-6e"/>
     <path d="M 6.203125 -19.96875 
L 5.21875 -11.71875 
Q 8.109375 -12.5 10.25 -12.5 
Q 13.1875 -12.5 14.9375 -11.515625 
Q 16.703125 -10.546875 17.828125 -8.796875 
Q 18.65625 -7.46875 20.515625 -2.25 
Q 20.75 -1.515625 21.296875 -0.09375 
L 1.609375 51.859375 
L 11.078125 51.859375 
L 21.875 21.828125 
Q 23.96875 16.109375 25.640625 9.8125 
Q 27.15625 15.875 29.25 21.625 
L 40.328125 51.859375 
L 49.125 51.859375 
L 29.390625 -0.875 
Q 26.21875 -9.421875 24.46875 -12.640625 
Q 22.125 -17 19.09375 -19.015625 
Q 16.0625 -21.046875 11.859375 -21.046875 
Q 9.328125 -21.046875 6.203125 -19.96875 
z
" id="ArialMT-79"/>
     <path d="M 6.5 0 
L 6.5 51.859375 
L 14.40625 51.859375 
L 14.40625 44 
Q 17.4375 49.515625 20 51.265625 
Q 22.5625 53.03125 25.640625 53.03125 
Q 30.078125 53.03125 34.671875 50.203125 
L 31.640625 42.046875 
Q 28.421875 43.953125 25.203125 43.953125 
Q 22.3125 43.953125 20.015625 42.21875 
Q 17.71875 40.484375 16.75 37.40625 
Q 15.28125 32.71875 15.28125 27.15625 
L 15.28125 0 
z
" id="ArialMT-72"/>
     <path d="M 14.703125 0 
L 6.546875 0 
L 6.546875 71.578125 
L 15.328125 71.578125 
L 15.328125 46.046875 
Q 20.90625 53.03125 29.546875 53.03125 
Q 34.328125 53.03125 38.59375 51.09375 
Q 42.875 49.171875 45.625 45.671875 
Q 48.390625 42.1875 49.953125 37.25 
Q 51.515625 32.328125 51.515625 26.703125 
Q 51.515625 13.375 44.921875 6.09375 
Q 38.328125 -1.171875 29.109375 -1.171875 
Q 19.921875 -1.171875 14.703125 6.5 
z
M 14.59375 26.3125 
Q 14.59375 17 17.140625 12.84375 
Q 21.296875 6.0625 28.375 6.0625 
Q 34.125 6.0625 38.328125 11.0625 
Q 42.53125 16.0625 42.53125 25.984375 
Q 42.53125 36.140625 38.5 40.96875 
Q 34.46875 45.796875 28.765625 45.796875 
Q 23 45.796875 18.796875 40.796875 
Q 14.59375 35.796875 14.59375 26.3125 
z
" id="ArialMT-62"/>
     <path d="M 40.4375 19 
L 49.078125 17.875 
Q 47.65625 8.9375 41.8125 3.875 
Q 35.984375 -1.171875 27.484375 -1.171875 
Q 16.84375 -1.171875 10.375 5.78125 
Q 3.90625 12.75 3.90625 25.734375 
Q 3.90625 34.125 6.6875 40.421875 
Q 9.46875 46.734375 15.15625 49.875 
Q 20.84375 53.03125 27.546875 53.03125 
Q 35.984375 53.03125 41.359375 48.75 
Q 46.734375 44.484375 48.25 36.625 
L 39.703125 35.296875 
Q 38.484375 40.53125 35.375 43.15625 
Q 32.28125 45.796875 27.875 45.796875 
Q 21.234375 45.796875 17.078125 41.03125 
Q 12.9375 36.28125 12.9375 25.984375 
Q 12.9375 15.53125 16.9375 10.796875 
Q 20.953125 6.0625 27.390625 6.0625 
Q 32.5625 6.0625 36.03125 9.234375 
Q 39.5 12.40625 40.4375 19 
z
" id="ArialMT-63"/>
    </defs>
    <g style="fill:#262626;" transform="translate(220.736625 50.16)scale(0.156 -0.156)">
     <use xlink:href="#ArialMT-45"/>
     <use x="66.699219" xlink:href="#ArialMT-47"/>
     <use x="144.482422" xlink:href="#ArialMT-20"/>
     <use x="172.265625" xlink:href="#ArialMT-77"/>
     <use x="244.482422" xlink:href="#ArialMT-65"/>
     <use x="300.097656" xlink:href="#ArialMT-69"/>
     <use x="322.314453" xlink:href="#ArialMT-67"/>
     <use x="377.929688" xlink:href="#ArialMT-68"/>
     <use x="433.544922" xlink:href="#ArialMT-74"/>
     <use x="461.328125" xlink:href="#ArialMT-73"/>
     <use x="511.328125" xlink:href="#ArialMT-20"/>
     <use x="539.111328" xlink:href="#ArialMT-65"/>
     <use x="594.726562" xlink:href="#ArialMT-78"/>
     <use x="644.726562" xlink:href="#ArialMT-61"/>
     <use x="700.341797" xlink:href="#ArialMT-6d"/>
     <use x="783.642578" xlink:href="#ArialMT-70"/>
     <use x="839.257812" xlink:href="#ArialMT-6c"/>
     <use x="861.474609" xlink:href="#ArialMT-65"/>
     <use x="917.089844" xlink:href="#ArialMT-20"/>
     <use x="944.873047" xlink:href="#ArialMT-2d"/>
     <use x="978.173828" xlink:href="#ArialMT-20"/>
     <use x="1005.957031" xlink:href="#ArialMT-6d"/>
     <use x="1089.257812" xlink:href="#ArialMT-6f"/>
     <use x="1144.873047" xlink:href="#ArialMT-6e"/>
     <use x="1200.488281" xlink:href="#ArialMT-74"/>
     <use x="1228.271484" xlink:href="#ArialMT-68"/>
     <use x="1283.886719" xlink:href="#ArialMT-6c"/>
     <use x="1306.103516" xlink:href="#ArialMT-79"/>
     <use x="1356.103516" xlink:href="#ArialMT-20"/>
     <use x="1383.886719" xlink:href="#ArialMT-72"/>
     <use x="1417.1875" xlink:href="#ArialMT-65"/>
     <use x="1472.802734" xlink:href="#ArialMT-62"/>
     <use x="1528.417969" xlink:href="#ArialMT-61"/>
     <use x="1584.033203" xlink:href="#ArialMT-6c"/>
     <use x="1606.25" xlink:href="#ArialMT-61"/>
     <use x="1661.865234" xlink:href="#ArialMT-6e"/>
     <use x="1717.480469" xlink:href="#ArialMT-63"/>
     <use x="1767.480469" xlink:href="#ArialMT-69"/>
     <use x="1789.697266" xlink:href="#ArialMT-6e"/>
     <use x="1845.3125" xlink:href="#ArialMT-67"/>
    </g>
   </g>
   <g id="legend_1">
    <g id="line2d_34">
     <path d="M 101.7 72.615156 
L 127.7 72.615156 
" style="fill:none;stroke:#4c72b0;stroke-linecap:round;stroke-width:2.275;"/>
    </g>
    <g id="line2d_35"/>
    <g id="text_18">
     <!-- aig -->
     <g style="fill:#262626;" transform="translate(138.1 77.165156)scale(0.13 -0.13)">
      <use xlink:href="#ArialMT-61"/>
      <use x="55.615234" xlink:href="#ArialMT-69"/>
      <use x="77.832031" xlink:href="#ArialMT-67"/>
     </g>
    </g>
    <g id="line2d_36">
     <path d="M 101.7 91.156406 
L 127.7 91.156406 
" style="fill:none;stroke:#55a868;stroke-linecap:round;stroke-width:2.275;"/>
    </g>
    <g id="line2d_37"/>
    <g id="text_19">
     <!-- k -->
     <defs>
      <path d="M 6.640625 0 
L 6.640625 71.578125 
L 15.4375 71.578125 
L 15.4375 30.765625 
L 36.234375 51.859375 
L 47.609375 51.859375 
L 27.78125 32.625 
L 49.609375 0 
L 38.765625 0 
L 21.625 26.515625 
L 15.4375 20.5625 
L 15.4375 0 
z
" id="ArialMT-6b"/>
     </defs>
     <g style="fill:#262626;" transform="translate(138.1 95.706406)scale(0.13 -0.13)">
      <use xlink:href="#ArialMT-6b"/>
     </g>
    </g>
    <g id="line2d_38">
     <path d="M 101.7 109.545312 
L 127.7 109.545312 
" style="fill:none;stroke:#c44e52;stroke-linecap:round;stroke-width:2.275;"/>
    </g>
    <g id="line2d_39"/>
    <g id="text_20">
     <!-- glw -->
     <g style="fill:#262626;" transform="translate(138.1 114.095312)scale(0.13 -0.13)">
      <use xlink:href="#ArialMT-67"/>
      <use x="55.615234" xlink:href="#ArialMT-6c"/>
      <use x="77.832031" xlink:href="#ArialMT-77"/>
     </g>
    </g>
    <g id="line2d_40">
     <path d="M 101.7 128.086562 
L 127.7 128.086562 
" style="fill:none;stroke:#8172b2;stroke-linecap:round;stroke-width:2.275;"/>
    </g>
    <g id="line2d_41"/>
    <g id="text_21">
     <!-- txt -->
     <g style="fill:#262626;" transform="translate(138.1 132.636562)scale(0.13 -0.13)">
      <use xlink:href="#ArialMT-74"/>
      <use x="27.783203" xlink:href="#ArialMT-78"/>
      <use x="77.783203" xlink:href="#ArialMT-74"/>
     </g>
    </g>
    <g id="line2d_42">
     <path d="M 101.7 146.475469 
L 127.7 146.475469 
" style="fill:none;stroke:#ccb974;stroke-linecap:round;stroke-width:2.275;"/>
    </g>
    <g id="line2d_43"/>
    <g id="text_22">
     <!-- nke -->
     <g style="fill:#262626;" transform="translate(138.1 151.025469)scale(0.13 -0.13)">
      <use xlink:href="#ArialMT-6e"/>
      <use x="55.615234" xlink:href="#ArialMT-6b"/>
      <use x="105.615234" xlink:href="#ArialMT-65"/>
     </g>
    </g>
   </g>
  </g>
 </g>
 <defs>
  <clipPath id="p6a4deb4969">
   <rect height="318.24" width="558" x="90" y="56.16"/>
  </clipPath>
 </defs>
</svg>
